<?xml version="1.0" encoding="utf-8"?>
<!-- Generator: Adobe Illustrator 24.0.2, SVG Export Plug-In . SVG Version: 6.00 Build 0)  -->
<svg version="1.1" id="Capa_1" xmlns="http://www.w3.org/2000/svg" xmlns:xlink="http://www.w3.org/1999/xlink" x="0px" y="0px"
	 viewBox="0 0 1000 1000" style="enable-background:new 0 0 1000 1000;" xml:space="preserve">
<style type="text/css">
	.st0{fill:#FEFEFE;}
	.st1{fill:#090806;}
	.st2{fill:#D58C3A;}
	.st3{fill:#353C4F;}
	.st4{fill:#212121;}
	.st5{fill:#F8D2BC;}
	.st6{fill:#9D979A;}
	.st7{fill:#262424;}
	.st8{fill:#B1ADB1;}
	.st9{fill:#A3A2A2;}
	.st10{fill:#44230B;}
	.st11{fill:#212536;}
	.st12{fill:#A05B27;}
	.st13{fill:#F3AF98;}
	.st14{fill:#DABDA8;}
</style>
<path class="st0" d="M78.06,730.05c281.56,0,563.13,0,844.69,0c-0.13,0.18,0.3,0.62-0.3,0.61c-0.8-0.03-1.6-0.01-2.4-0.01
	c-279.76,0-559.53,0-839.29-0.04C79.88,730.61,78.72,731.3,78.06,730.05z"/>
<path class="st1" d="M447.07,682.65c-0.02-2.99-0.05-5.98-0.04-8.96c0-1.07-0.13-1.87-1.38-2.28c-2.23-0.74-3.01-2.61-2.82-4.74
	c0.19-2.21-0.32-4.1-1.57-5.9c-0.83-1.18-1.1-2.59-0.86-4.01c1.28-7.57,0.38-15.14-0.08-22.7c-1.12-18.54-1.24-37.11-1.68-55.66
	c-0.27-11.56-1.46-23.09-1.08-34.69c0.09-2.79-1.86-5.77-4.62-7.49c-1.86-1.16-3.86-2.08-5.72-3.25c-2.27-1.42-4-3.42-4.67-6.02
	c-2.09-8.1-4.18-16.21-6.03-24.37c-2.43-10.74-0.16-20.99,3.79-31c4.99-12.62,10.65-24.94,17.15-36.85
	c1.83-3.35,4.41-6.39,7.76-8.47c5.95-3.69,12.16-6.86,19.02-8.56c0.63-0.16,1.47,0.05,1.46-1.04c-0.01-0.97-0.22-1.79-1.22-2.17
	c-4.52-1.7-8.46-4.5-12.58-6.89c-17.63-10.24-27.98-25.31-28.83-45.98c-0.39-9.34,3.01-17.59,9.63-24.37
	c0.46-0.48,1.14-0.84,1.16-1.82c-1.48-0.4-3-0.74-4.48-1.22c-1.51-0.49-2.64-1.43-2.81-3.14c-0.17-1.68,0.71-2.86,2-3.77
	c2.05-1.45,4.38-2.08,6.82-1.69c2,0.32,2.33-0.35,2.29-2.16c-0.06-2.86,0.88-5.5,2.61-7.81c0.99-1.32,2.16-2.48,3.98-2.15
	c1.94,0.36,2.73,1.91,3.1,3.64c0.27,1.24,0.32,2.53,0.49,3.89c0.35-0.04,0.71,0.04,0.87-0.11c7.88-7.26,17.53-10,27.89-11.03
	c11.69-1.16,23.15-0.48,34.19,3.93c3.78,1.51,7.1,3.64,9.59,6.93c1.55,2.05,2.69,4.39,2.41,6.92c-0.27,2.41,0.93,2.94,2.76,3.62
	c3.51,1.31,6.61,3.33,8.84,6.43c3.39,4.7,2.04,9.29-3.47,11.07c-2.03,0.66-2.12,1.41-1.78,3.25c0.87,4.72-0.61,7.74-4.74,9.88
	c-1.26,0.65-1.37,1.39-1.32,2.58c0.37,8.58,0.15,17.16-0.4,25.73c-0.83,12.85-6.79,21.82-19.27,26.08c-4.72,1.61-9.49,2.93-14.7,3.7
	c1.54,0.89,3.06,1.82,4.64,2.65c6.44,3.38,12.09,7.63,16.48,13.57c5.22,7.06,10.79,13.86,16.12,20.85c0.91,1.19,1.57,1.62,3.15,1.22
	c3.48-0.87,6.94-1.93,10.55-2.15c1.71-0.1,2.02-1.44,2.55-2.56c6.05-12.68,12.17-25.34,18.04-38.1c1.31-2.85,3.08-3.88,6.06-4.14
	c15.63-1.37,31.24-2.91,46.86-4.41c3.87-0.37,5.64,2,3.86,5.59c-2.66,5.35-5.52,10.61-8.37,15.87
	c-6.88,12.71-13.83,25.39-20.65,38.13c-0.76,1.42-1.71,2.01-3.16,2.28c-3.64,0.65-7.26,1.38-10.89,2.06
	c-1.26,0.23-1.85,0.67-2.23,2.18c-1.23,4.89-3.93,9.01-7.88,12.21c-0.81,0.65-1.53,1.11-1.56,2.29c-0.1,3.36-1.92,5.83-4.46,7.78
	c-4.67,3.59-9.36,7.16-14.13,10.62c-6.56,4.75-13.22,4.89-20.05,0.39c-3.51-2.32-6.5-5.24-10.24-8.3c0.97,6.04,1.78,11.5,2.75,16.94
	c0.86,4.85,0.44,9.37-3.06,13.15c-0.93,1.01-0.54,2.02-0.49,3.08c0.12,2.84,0.84,5.77-1.52,8.2c-0.36,0.37-0.17,1.32-0.17,2
	c0.08,27.24,0.54,54.49,0.12,81.73c-0.17,10.87-0.14,21.76-1.24,32.6c-0.09,0.87,0.03,1.82,0.31,2.64c1.18,3.44,1.1,6.41-2.33,8.67
	c-1.41,0.93-0.78,4.73,0.92,5.94c4.15,2.94,8.36,5.8,12.54,8.7c0.83,0.7,1.71,1.35,2.49,2.1c1.52,1.46,4.03,2.64,3.02,5.25
	c-0.91,2.35-3.44,2.01-5.48,2.05c-8.57,0.16-17.11-0.47-25.65-1.1c-8.2-0.61-8.73-1.1-9.89-9.09c-0.11-3.39-0.31-6.77-0.3-10.16
	c0.01-1.96-0.02-3.6-2.21-4.57c-1.39-0.61-1.48-2.25-1.73-3.63c-1.17-6.28-1.89-12.61-2.2-18.99c-0.28-5.73-0.76-11.45-1.14-17.17
	c-0.57,0.49-0.65,0.96-0.69,1.44c-0.76,9.34-1.55,18.69-2.23,28.04c-0.14,1.87-0.98,3.73-0.3,5.62c0.79,2.2,1.12,4.2,0.05,6.6
	c-1.03,2.29-1.73,4.43-4.58,4.83c-0.24,0.03-0.52,0.31-0.66,0.54c-0.8,1.36,0.48,7.38,1.78,8.49c2.09,2.51,4.32,4.91,6.23,7.55
	c2.1,2.91,1.37,5.02-1.97,6.22c-1.29,0.46-2.7,0.71-4.07,0.79c-5.57,0.33-10.9-0.76-15.93-3.11c-4.42-2.06-8.67-4.38-8.28-10.34
	C447.5,682.91,447.22,682.78,447.07,682.65z M559.83,483.6c2.11,0.02,2.61-2.06,4.07-3.01c-2.55-0.11-4.89-0.61-7.12-1.6
	c-0.17-0.45-0.52-0.55-0.95-0.51c-1.76-1.09-2.66-4.22-5.66-2.4c-0.91-0.05-1.71,0.29-2.49,0.7c-6.01-0.27-11.8,3.32-17.92,0.97
	c-1.13-0.61-2.29-0.59-3.47-0.13c-4.49-0.12-8.98-0.27-13.48-0.34c-0.8-0.01-1.98-0.64-1.96,1.25c0.12,11.43,1.84,14.89,11.12,21.71
	c0.88,0.65,1.77,1.3,2.67,1.92c6.49,4.45,10.57,4.56,17.03,0.1c4.68-3.23,9.2-6.69,13.74-10.12c2.24-1.69,3.75-3.86,3.59-6.85
	C559.28,484.73,559.55,484.16,559.83,483.6z M456.65,528.53c-0.23-0.72-0.45-1.44-0.68-2.15c-0.26-1.44,0.26-2.76,0.71-4.05
	c1.47-4.26,1.14-8.24-0.92-12.34c-1.99-3.96-3.41-8.21-5.08-12.34c0.97-0.2,1.94-0.4,2.91-0.6c1.57,3.3,2.96,6.7,4.76,9.87
	c3.07,5.41,4.08,10.9,1.63,16.79c-0.3,0.73-0.69,1.49,0.19,2.13c0.13,1.2,1.05,1.98,1.61,2.95c0.3,1.04,0.87,2.09,0.85,3.12
	c-0.04,1.96,0.59,2.75,2.65,2.99c5.11,0.59,10.18,1.5,15.27,2.24c0.76,0.11,1.6,0.27,2.17-0.54c0.18,0,0.37,0,0.55,0
	c0.25,0.83,0.95,0.99,1.66,0.99c6.89,0.08,13.78,0.79,20.66-0.05c0.76,0.19,1.43-0.09,2.08-0.44c3.02-1.25,1.22-3.86,1.65-5.84
	c0.1-1.06-0.01-2.09-0.52-3.05c3.71-4.06,4.8-8.68,3.73-14.12c-2.19-11.16-3.74-22.44-4.71-33.77c-0.25-2.91-1.25-3.57-3.91-3.6
	c-5.49-0.05-10.98-0.44-16.48-0.67c-2.71-0.11-3.44-2.06-3.87-4.2c-0.5-2.47,1.56-2.37,3.01-2.75c6.57-1.72,13.15-3.39,19.72-5.09
	c0.97,0.09,1.84-0.17,2.67-0.65c4.69-1.15,9.39-2.31,14.56-3.58c-5.76-7.55-11.47-14.57-16.63-21.98
	c-3.44-4.94-7.98-8.23-13.07-11.04c-0.78-1.07-1.94-0.95-3.05-0.99c-0.72-0.34-1.55-2.49-2.15,0.01c-1.41,5.82-4.12,7.29-9.61,4.86
	c-2.35-1.04-4.54-2.43-6.81-3.66c-0.37-0.22-0.74-0.45-1.1-0.67c-1.19-1.48-2.65-2.65-4.25-3.67c-0.54-0.65-1.02-1.39-1.9-1.65
	c-1.48,0.02-2.76,0.46-3.63,1.75c-0.82,0.02-1.66-0.07-2.32,0.59c-2.88,1.36-5.77,2.71-8.65,4.08c-4.51,2.14-7.79,5.63-10.03,9.96
	c-6.92,13.38-13.18,27.05-18.15,41.29c-2.7,7.73-3.4,15.45-1.69,23.51c1.51,7.13,3.88,14.03,5.27,21.17
	c0.67,3.45,2.51,5.71,5.43,7.43c2.13,1.25,4.52,2.16,6.19,4.13c0.18,0.91,0.56,1.71,1.33,2.27c0.58,1.01,1.15,2.03,1.75,3.03
	c0.89,1.48,2.02,1.66,3.36,0.58c0.35-0.11,0.7-0.21,1.05-0.32c1.21,0.48,2.07-0.14,2.9-0.89c0.35-0.15,0.7-0.31,1.05-0.46
	c2.25-0.71,4.51-1.4,5.68-3.74l0.25,0.02C459.42,533.47,459.73,532.37,456.65,528.53z M534.11,468.23c1.35-2,2.89-3.9,3.52-6.31
	c0.83-0.72,1.55-1.5,1.62-3.18c-17.6,4.48-35.01,8.91-52.62,13.4c0.79,1.34,1.56,1.12,2.2,1.15c13.85,0.52,27.71,1.02,41.56,1.55
	c1.09,0.04,2.11,0.05,2.2-1.29c0.11-1.85-1.51-0.6-2.18-1.09c0.15-0.66,0.56-1.05,1.25-1.05
	C533.83,471.37,534.26,470.03,534.11,468.23z M543.01,473.73c0.3,0,0.61,0.06,0.89,0.01c13.22-2.61,26.44-5.26,39.67-7.83
	c1.2-0.23,1.59-1.01,2.07-1.9c2.81-5.17,5.68-10.31,8.47-15.49c6.44-11.93,13.19-23.69,19.18-35.86c0.57-0.68,1.4-1.48,0.99-2.31
	c-0.5-1.03-1.62-0.28-2.43-0.21c-14.41,1.29-28.81,2.74-43.23,3.88c-3.47,0.27-5.26,1.7-6.68,4.76
	c-6.14,13.28-12.51,26.45-18.8,39.66c-2.31,4.85-4.65,9.69-6.98,14.53c-0.3,0.63-0.72,1.34-0.27,1.97c0.52,0.73,1.29,0.21,1.93,0.07
	C539.56,474.61,541.28,474.16,543.01,473.73z M518.8,388.63c0.23-5.88,0.46-11.75,0.7-17.63c0.34-8.4-1.14-16.27-6.75-22.78
	c-13.67,7.74-27.82,11.37-43.25,3.61c0.36,4.03-0.21,7.73-0.85,11.45c-1,5.8-5.64,10.34-5.29,16.7c0.13,2.37-3.6,2.74-5.31,0.57
	c-0.55-0.7-0.87-1.57-1.37-2.31c-1.85-2.72-6.17-4.45-8.9-3.61c-2.72,0.84-4.39,3.59-4.51,7.4c-0.17,5.54,3.38,10.02,9.46,11.94
	c1.21,0.38,2.79,0.4,3.21,1.83c0.59,1.97,1.5,4.16,1.12,6.03c-0.82,4.11,1.4,5.68,4.52,6.99c1.28,0.54,2.47,1.31,3.73,1.89
	c3.35,1.54,4.64,4.27,4.35,7.76c-0.08,1-0.06,1.69,0.78,2.3c3.15,2.28,6.19,4.73,9.83,6.24c1.34,0.55,2.89,1.52,4.11,0.05
	c1.06-1.28,1.12-2.85,0.45-4.5c-1.69-4.13-0.25-6.53,4.12-7c6.5-0.7,12.78-2.14,18.55-5.37c5.24-2.93,8.68-7.22,10.06-13.1
	C518.44,394.34,518.65,391.49,518.8,388.63z M491.38,541.4c-7.35-0.54-14.74-0.76-21.99-2.26c-0.91-0.19-1.93-0.54-2.55,0.76
	c-4.16,8.79-12.71,11.54-20.76,14.96c-0.86,0.36-1.85,0.38-2.4-0.56c-0.66-1.12-0.03-1.91,0.96-2.42c1.08-0.56,1.53-1.31,0.8-2.39
	c-0.9-1.33-0.87-3.43-2.96-3.81c-0.83-0.15-1.34,0.29-1.38,1.16c-0.04,0.8-0.08,1.6-0.04,2.39c0.74,14.22,1.76,28.43,2.17,42.65
	c0.47,16.53,0.82,33.06,1.86,49.57c0.26,4.07,0.25,8.19-0.13,12.25c-0.25,2.64-0.62,5.04,0.97,7.44c0.94,1.41,1.3,3.18,0.81,4.9
	c-0.44,1.55,0.28,2.23,1.57,2.67c6.66,2.28,13.39,3,20.3,1.18c2.86-0.75,3.89-3.42,3.24-5.2c-1.34-3.68-0.4-7.09-0.19-10.62
	c0.4-6.76,0.78-13.52,1.35-20.26c1.07-12.49,2.28-24.97,3.4-37.46c0.85-9.52,1.65-19.04,2.5-28.55c0.13-1.45,0.67-2.78,2.04-3.46
	c3.4-1.7,6.97-2.99,10.69-3.77c0.76-0.16,1.66-0.18,2.2,0.58c0.74,1.04-0.28,1.61-0.72,2.32c-3.05,1.22-6.08,2.47-9.14,3.64
	c-1.1,0.42-1.51,1.12-1.59,2.23c-0.71,9.88-1.45,19.75-2.19,29.62c-0.04,0.89-0.21,1.8-0.11,2.68c1.5,13.27,2.12,26.59,2.92,39.91
	c0.4,6.65,0.96,13.31,2.1,19.89c0.22,1.29,0.32,2.57,2.08,2.82c5.77,0.83,11.53,0.96,17.27-0.05c2.24-0.39,3.03-1.82,2.17-3.95
	c-0.89-2.2-1.03-4.49-0.72-6.77c1.05-7.64,0.72-15.34,0.88-22.99c0.56-25.72,0.55-51.46,0.87-77.19c0.05-3.66-0.29-7.05-2.18-10.29
	c-0.7-1.2-1.27-1.8-2.69-1.74c-2.99,0.12-5.99,0.1-8.99,0.13C493.01,541.41,492.2,541.4,491.38,541.4z M431.98,330.78
	c1.15,0.24,1.82,0.37,2.48,0.52c0.58,0.13,1.16,0.29,1.74,0.44c3.84,1.02,4.51,3.15,1.66,5.82c-7.52,7.05-11.08,15.72-10.62,25.95
	c0.33,7.4,2.86,14.18,6.4,20.65c4.42,8.08,10.9,14.14,18.35,19.32c0.77,0.53,1.57,1.15,2.09-0.25c0.69-1.88-1.19-5.29-3.19-5.83
	c-7.93-2.16-12.84-9.69-11.64-17.83c1.02-6.91,8.7-10.89,15.07-7.99c2.94,1.34,4.66,3.64,6.3,6.4c-1.18-3.02,0.2-5.26,1.39-7.75
	c2.99-6.26,5.07-12.78,3.74-19.89c-0.24-1.27-0.1-2.4,1.06-3.18c1.1-0.75,2.04-0.25,3.02,0.38c7.91,5.07,16.47,5.41,25.36,3.46
	c6.03-1.32,11.63-3.53,16.52-7.38c0.98-0.77,2.61-1.88,3.29-0.19c1.68,4.2,4.83,7.54,6.48,11.74c0.34,0.87,0.15,2.66,1.67,2.36
	c1.33-0.27,1.88-1.66,1.85-3.09c-0.02-1,0.05-2-0.02-2.99c-0.32-4.82-0.34-4.82,4.05-6.37c2.87-1.02,3.43-2.96,1.42-5.19
	c-2.3-2.55-4.89-4.73-8.24-5.77c-2.33-0.72-3.51-2.1-3.22-4.63c0.29-2.55-0.8-4.61-2.4-6.53c-3.52-4.23-8.42-5.98-13.45-7.28
	c-10.09-2.62-20.35-2.28-30.59-1.09c-7.29,0.85-13.87,3.54-19.7,8.04c-1.65,1.28-3.33,2.53-5.11,3.62c-1.94,1.19-3.26,0.47-3.7-1.7
	c-0.35-1.74-0.56-3.5-0.87-5.49c-1.74,2.07-1.69,4.36-1.59,6.61c0.12,2.7-1.08,3.82-3.76,3.72
	C435.99,329.31,434.05,329.03,431.98,330.78z M521.54,686.69c-4.93-3.6-9.24-6.89-13.7-9.96c-2.42-1.67-4.37-3.45-4.43-6.61
	c-0.01-0.83-0.2-1.84-1.29-1.53c-3.51,1-6.92-0.34-10.4-0.3c-2.36,0.03-3.06,0.97-2.73,3.05c0.57,3.55,0.58,7.12,0.65,10.7
	c0.06,3.27,1.02,4.11,4.38,4.29c2.18,0.12,4.38,0.21,6.55,0.29C507.3,686.83,514.02,686.69,521.54,686.69z M470.11,692.37
	c1.14-0.57,3.38,0.94,4.05-0.78c0.58-1.51-1.51-2.57-2.52-3.76c-0.19-0.23-0.44-0.41-0.62-0.65c-2.61-3.31-6.22-6.09-5.42-11.1
	c0.24-1.5-0.97-1.98-2.15-1.66c-3.73,1-7.32,0.16-10.91-0.66c-1.83-0.42-2.01,0.36-1.79,1.88c0.42,2.95,0.87,5.9,0.98,8.87
	c0.07,1.97,0.8,3.16,2.54,3.96C459.19,690.72,464.29,692.31,470.11,692.37z M459.79,537.1c-0.23,0.16-0.4,0.27-0.55,0.39
	c-3.42,2.77-7.21,4.91-11.35,6.44c-0.79,0.29-1.09,0.65-0.53,1.53c0.63,1,1.02,2.15,1.56,3.21c0.27,0.53,0.58,1.02,1.37,0.6
	c4.03-2.16,8.08-4.28,11.44-7.46c1.09-1.03,0.31-1.76-0.26-2.54C460.93,538.53,460.88,537.38,459.79,537.1z M558.24,474.54
	c4,3.7,8.55,2.87,9.81-1.59C564.91,473.8,561.82,474.39,558.24,474.54z"/>
<path class="st2" d="M450.69,497.65c1.67,4.12,3.09,8.37,5.08,12.34c2.06,4.1,2.39,8.08,0.92,12.34c-0.45,1.3-0.97,2.62-0.71,4.05
	c-5.8,3.72-11.81,6.98-18.61,8.55c-1.67-1.97-4.05-2.88-6.19-4.13c-2.92-1.72-4.76-3.98-5.43-7.43c-1.38-7.14-3.76-14.04-5.27-21.17
	c-1.71-8.06-1-15.78,1.69-23.51c4.97-14.24,11.23-27.91,18.15-41.29c2.24-4.33,5.51-7.82,10.03-9.96c2.88-1.37,5.77-2.72,8.65-4.08
	c4.56,3.83,9.29,7.45,14.28,10.69c2.42,1.57,5.03,2.77,7.9,3.36c5.7,1.18,9.41-0.98,11.24-6.52c0.45-1.37,0.19-2.99,1.39-4.11
	c5.09,2.81,9.63,6.1,13.07,11.04c5.16,7.41,10.88,14.43,16.63,21.98c-5.17,1.27-9.87,2.42-14.56,3.58
	c-0.93-5.17-1.81-10.34-2.83-15.49c-0.18-0.92-0.12-2.65-1.62-2.34c-1.18,0.24-0.57,1.71-0.45,2.6c0.69,5.3,1.48,10.59,2.23,15.88
	c-6.57,1.69-13.15,3.37-19.72,5.09c-1.45,0.38-3.51,0.28-3.01,2.75c0.43,2.14,1.16,4.08,3.87,4.2c5.49,0.23,10.98,0.62,16.48,0.67
	c2.66,0.02,3.66,0.69,3.91,3.6c0.97,11.33,2.51,22.61,4.71,33.77c1.07,5.44-0.02,10.06-3.73,14.12c-1.58,0.61-3.18,1.09-4.89,1.3
	c-8.62,1.08-17.15-0.08-25.67-1.06c-6.04-0.7-12.04-1.73-18.05-2.62c-0.88-0.64-0.49-1.41-0.19-2.13
	c2.45-5.89,1.44-11.38-1.63-16.79c-1.8-3.17-3.19-6.57-4.76-9.87c-1.87-3.54-1.1-7.05,0.08-10.57c0.28-0.83,0.35-1.74,0.51-2.61
	c2.1-6.13,3.35-12.45,4.39-18.82c0.15-0.92,0.79-2.31-0.44-2.6c-1.1-0.25-1.38,1.22-1.64,2.14c-1.75,6.21-3.45,12.43-5.17,18.64
	C449.86,487.99,447.44,492.7,450.69,497.65z M444.81,435.73c6.98,5.42,10.48,13.01,13.37,21.67
	C459.11,449.85,451.41,437.57,444.81,435.73z"/>
<path class="st3" d="M493.14,563.47c0.44-0.71,1.46-1.28,0.72-2.32c-0.54-0.76-1.44-0.74-2.2-0.58c-3.73,0.78-7.29,2.07-10.69,3.77
	c-1.37,0.69-1.91,2.02-2.04,3.46c-0.85,9.52-1.64,19.04-2.5,28.55c-1.12,12.49-2.34,24.97-3.4,37.46
	c-0.57,6.74-0.95,13.5-1.35,20.26c-0.21,3.52-1.15,6.94,0.19,10.62c0.65,1.78-0.38,4.45-3.24,5.2c-6.92,1.82-13.65,1.1-20.3-1.18
	c-1.29-0.44-2.01-1.13-1.57-2.67c0.49-1.71,0.12-3.48-0.81-4.9c-1.59-2.4-1.22-4.8-0.97-7.44c0.38-4.05,0.38-8.18,0.13-12.25
	c-1.04-16.51-1.39-33.04-1.86-49.57c-0.4-14.23-1.43-28.43-2.17-42.65c-0.04-0.79,0-1.6,0.04-2.39c0.04-0.86,0.55-1.31,1.38-1.16
	c2.09,0.38,2.06,2.47,2.96,3.81c0.73,1.08,0.28,1.83-0.8,2.39c-0.99,0.51-1.62,1.29-0.96,2.42c0.55,0.94,1.54,0.92,2.4,0.56
	c8.05-3.42,16.6-6.18,20.76-14.96c0.62-1.31,1.64-0.95,2.55-0.76c7.26,1.51,14.64,1.72,21.99,2.26c0,3.27,0,6.53,0,9.8
	c0.31-0.01,0.62-0.02,0.93-0.02c1.98-3,1.31-6.46,1.52-9.77c3-0.03,6-0.01,8.99-0.13c1.42-0.06,1.99,0.54,2.69,1.74
	c1.89,3.24,2.23,6.63,2.18,10.29c-0.32,25.73-0.31,51.47-0.87,77.19c-0.17,7.65,0.17,15.35-0.88,22.99
	c-0.31,2.28-0.18,4.57,0.72,6.77c0.87,2.14,0.08,3.56-2.17,3.95c-5.75,1.01-11.51,0.87-17.27,0.05c-1.76-0.25-1.85-1.54-2.08-2.82
	c-1.15-6.58-1.71-13.24-2.1-19.89c-0.8-13.32-1.42-26.64-2.92-39.91c-0.1-0.88,0.07-1.78,0.11-2.68c2.22-2.14,2.35-5.2,3.29-7.85
	C486.77,581.92,490.74,572.96,493.14,563.47z"/>
<path class="st4" d="M431.98,330.78c2.07-1.75,4.01-1.47,5.85-1.39c2.68,0.11,3.88-1.01,3.76-3.72c-0.1-2.25-0.15-4.54,1.59-6.61
	c0.31,1.98,0.52,3.75,0.87,5.49c0.44,2.18,1.76,2.9,3.7,1.7c1.77-1.09,3.46-2.35,5.11-3.62c5.82-4.51,12.4-7.2,19.7-8.04
	c10.25-1.19,20.5-1.53,30.59,1.09c5.03,1.3,9.93,3.05,13.45,7.28c1.6,1.92,2.69,3.98,2.4,6.53c-0.29,2.53,0.89,3.91,3.22,4.63
	c3.35,1.04,5.94,3.22,8.24,5.77c2.01,2.23,1.46,4.17-1.42,5.19c-4.39,1.55-4.38,1.55-4.05,6.37c0.07,0.99,0,1.99,0.02,2.99
	c0.03,1.43-0.52,2.82-1.85,3.09c-1.52,0.3-1.33-1.49-1.67-2.36c-1.65-4.19-4.8-7.54-6.48-11.74c-0.68-1.69-2.31-0.58-3.29,0.19
	c-4.89,3.85-10.49,6.06-16.52,7.38c-8.89,1.94-17.45,1.61-25.36-3.46c-0.98-0.63-1.92-1.12-3.02-0.38c-1.16,0.78-1.3,1.91-1.06,3.18
	c1.33,7.11-0.75,13.63-3.74,19.89c-1.19,2.49-2.57,4.73-1.39,7.75c-1.65-2.76-3.37-5.07-6.3-6.4c-6.37-2.9-14.04,1.08-15.07,7.99
	c-1.2,8.14,3.71,15.67,11.64,17.83c2,0.55,3.88,3.96,3.19,5.83c-0.52,1.4-1.32,0.79-2.09,0.25c-7.45-5.17-13.93-11.24-18.35-19.32
	c-3.54-6.47-6.07-13.25-6.4-20.65c-0.46-10.24,3.1-18.9,10.62-25.95c2.85-2.68,2.18-4.8-1.66-5.82c-0.58-0.15-1.16-0.31-1.74-0.44
	C433.8,331.15,433.13,331.02,431.98,330.78z"/>
<path class="st5" d="M517.55,397.08c-1.38,5.88-4.81,10.16-10.06,13.1c-5.77,3.23-12.05,4.67-18.55,5.37
	c-4.37,0.47-5.81,2.87-4.12,7c0.67,1.65,0.61,3.22-0.45,4.5c-1.23,1.48-2.77,0.51-4.11-0.05c-3.63-1.5-6.68-3.95-9.83-6.24
	c-0.84-0.61-0.86-1.3-0.78-2.3c0.29-3.5-1-6.22-4.35-7.76c-1.27-0.58-2.45-1.35-3.73-1.89c-3.12-1.31-5.34-2.88-4.52-6.99
	c0.37-1.87-0.54-4.06-1.12-6.03c-0.43-1.43-2-1.45-3.21-1.83c-6.08-1.92-9.63-6.4-9.46-11.94c0.12-3.81,1.79-6.55,4.51-7.4
	c2.74-0.85,7.05,0.88,8.9,3.61c0.5,0.74,0.82,1.61,1.37,2.31c1.71,2.17,5.44,1.8,5.31-0.57c-0.35-6.36,4.29-10.9,5.29-16.7
	c0.64-3.72,1.21-7.42,0.85-11.45c15.43,7.76,29.58,4.14,43.25-3.61c5.6,6.5,7.09,14.37,6.75,22.78c-0.24,5.88-0.46,11.75-0.7,17.63
	c-4.2,0.1-6.38,1.66-6.36,4.55C512.45,395.76,513.99,396.94,517.55,397.08z M480,385.71c-2.54,0.57-5.32,0.72-6.33,3.74
	c-0.89,2.67,0.65,4.51,2.59,5.81c2.7,1.8,5.81,2.55,9.08,2.07c2.58-0.38,5.05-1.26,5.36-4.29c0.32-3.09-1.94-4.55-4.38-5.72
	C484.31,386.35,482.11,386.21,480,385.71z M493.99,379.3c-0.07-1.09-0.06-2.19-0.22-3.26c-0.18-1.26-0.8-2.26-2.22-2.42
	c-1.27-0.14-2.13,0.58-2.57,1.64c-1.37,3.29-1.69,6.69-0.71,10.16c0.33,1.16,1.07,1.95,2.31,1.96c1.27,0.02,1.95-0.88,2.38-1.94
	C493.75,383.47,493.92,381.39,493.99,379.3z M510.99,381.05c0.1,1.29,0.08,2.61,0.35,3.86c0.25,1.15,0.7,2.43,2.15,2.56
	c1.43,0.13,2.15-0.91,2.57-2.1c1.05-2.99,1.13-6.06,0.39-9.13c-0.23-0.97-0.82-1.88-2-1.96c-1.28-0.09-2.05,0.72-2.52,1.77
	C511.24,377.64,511.11,379.34,510.99,381.05z M508.22,391.12c-0.03-1.52-0.5-2.92-2.27-2.88c-1.63,0.03-2.48,1.27-2.45,2.85
	c0.03,1.57,0.9,2.79,2.54,2.77C507.61,393.85,508.14,392.58,508.22,391.12z"/>
<path class="st6" d="M613.3,412.65c-5.98,12.17-12.74,23.93-19.18,35.86c-2.8,5.18-5.66,10.32-8.47,15.49
	c-0.48,0.89-0.87,1.66-2.07,1.9c-13.23,2.58-26.45,5.22-39.67,7.83c-0.29,0.06-0.59,0-0.89-0.01c-3.13-1.58-2.88-3.53-1.42-6.44
	c7.82-15.6,15.44-31.3,22.98-47.03c1.17-2.44,2.67-3.75,5.33-3.93c2.58-0.17,5.15-0.5,7.72-0.74c5.15-0.48,10.29-0.99,15.45-1.39
	C599.82,413.67,606.49,412.33,613.3,412.65z M574.76,443.18c0.04,1.8,0.81,2.48,2.34,2.06c2.3-0.63,5.14-4.79,4.91-7.2
	c-0.16-1.67-0.96-2.29-2.6-1.66C577.25,437.22,574.71,440.9,574.76,443.18z"/>
<path class="st2" d="M559.01,485.3c0.15,2.99-1.35,5.16-3.59,6.85c-4.54,3.42-9.06,6.88-13.74,10.12
	c-6.46,4.46-10.54,4.35-17.03-0.1c-0.91-0.62-1.79-1.27-2.67-1.92c-9.28-6.82-11-10.28-11.12-21.71c-0.02-1.88,1.16-1.26,1.96-1.25
	c4.49,0.07,8.99,0.22,13.48,0.34c-0.83,1.67-1.72,3.31-2.48,5.01c-0.36,0.79-0.69,1.82,0.33,2.38c1.1,0.61,1.62-0.37,2.06-1.11
	c1.22-2.03,2.38-4.1,3.56-6.16c6.12,2.35,11.91-1.24,17.92-0.97C550.01,481.54,554.11,483.96,559.01,485.3z"/>
<path class="st7" d="M521.54,686.69c-7.51,0-14.24,0.14-20.96-0.08c-2.17-0.07-4.37-0.17-6.55-0.29c-3.36-0.18-4.32-1.02-4.38-4.29
	c-0.07-3.58-0.08-7.15-0.65-10.7c-0.34-2.08,0.37-3.02,2.73-3.05c3.47-0.04,6.88,1.3,10.4,0.3c1.09-0.31,1.27,0.7,1.29,1.53
	c0.06,3.16,2,4.95,4.43,6.61C512.29,679.8,516.61,683.09,521.54,686.69z"/>
<path class="st8" d="M613.3,412.65c-6.8-0.32-13.48,1.02-20.22,1.54c-5.15,0.4-10.3,0.92-15.45,1.39c-2.58,0.24-5.14,0.57-7.72,0.74
	c-2.66,0.18-4.16,1.49-5.33,3.93c-7.54,15.73-15.16,31.43-22.98,47.03c-1.46,2.91-1.72,4.87,1.42,6.44
	c-1.73,0.43-3.45,0.88-5.19,1.27c-0.64,0.15-1.41,0.66-1.93-0.07c-0.45-0.63-0.04-1.34,0.27-1.97c2.33-4.84,4.67-9.68,6.98-14.53
	c6.3-13.21,12.66-26.38,18.8-39.66c1.42-3.07,3.22-4.49,6.68-4.76c14.42-1.14,28.82-2.59,43.23-3.88c0.81-0.07,1.92-0.83,2.43,0.21
	C614.69,411.18,613.87,411.97,613.3,412.65z"/>
<path class="st7" d="M470.11,692.37c-5.82-0.06-10.92-1.65-15.87-3.9c-1.74-0.79-2.46-1.98-2.54-3.96
	c-0.11-2.97-0.56-5.92-0.98-8.87c-0.21-1.52-0.04-2.3,1.79-1.88c3.59,0.81,7.18,1.65,10.91,0.66c1.18-0.32,2.39,0.17,2.15,1.66
	c-0.8,5.01,2.81,7.8,5.42,11.1c0.18,0.23,0.43,0.42,0.62,0.65c1.01,1.19,3.1,2.25,2.52,3.76
	C473.5,693.31,471.25,691.79,470.11,692.37z"/>
<path class="st9" d="M530.41,472.45c0.67,0.49,2.29-0.76,2.18,1.09c-0.08,1.34-1.11,1.33-2.2,1.29
	c-13.85-0.53-27.71-1.03-41.56-1.55c-0.64-0.02-1.41,0.19-2.2-1.15c17.61-4.48,35.02-8.92,52.62-13.4
	c-0.07,1.68-0.79,2.46-1.62,3.18c-0.49,0.05-1,0.02-1.47,0.15c-9.49,2.65-18.97,5.31-28.46,7.97c-0.65,0.18-1.4,0.19-1.83,1.23
	c2.31,1.26,4.78,0.43,7.13,0.59c5.19,0.19,10.38,0.37,15.57,0.56C529.19,472.42,529.8,472.44,530.41,472.45z"/>
<path class="st10" d="M460.19,525.84c6.02,0.89,12.01,1.92,18.05,2.62c8.52,0.98,17.05,2.15,25.67,1.06
	c1.71-0.21,3.31-0.69,4.89-1.3c0.52,0.96,0.62,1.99,0.52,3.05c-1.61,0.02-2.95,0.13-2,2.43c0.42,1.01,0.25,2.27,0.35,3.41
	c-0.65,0.35-1.31,0.63-2.08,0.44c-0.32-5.27-0.56-5.5-4.04-5c-1.83,0.26-2.62,1.07-2.37,2.94c0.09,0.68-0.01,1.48-0.99,1.49
	c-0.6,0.01-0.9-0.52-0.83-1.02c0.43-2.95-1.37-3.14-3.58-3.11c-1.48,0.02-2.96-0.27-4.43-0.44c-2.94-0.33-5.86-0.64-5.69,3.75
	c0.01,0.14-0.25,0.29-0.38,0.44c-0.18,0-0.37,0-0.55,0c-0.74-0.67-0.98-1.6-0.76-2.47c0.45-1.82-0.14-2.38-2-2.54
	c-3.27-0.28-6.53-0.8-9.76-1.42c-1.98-0.38-3.07,0.04-3.25,2.18c-0.05,0.61,0.08,1.65-0.92,1.56c-0.83-0.07-1.06-1-0.86-1.66
	c0.93-3.2-0.99-3.53-3.37-3.47C461.24,527.82,460.32,527.05,460.19,525.84z"/>
<path class="st11" d="M493.14,563.47c-2.4,9.5-6.36,18.45-9.63,27.65c-0.94,2.65-1.07,5.71-3.29,7.85
	c0.73-9.87,1.48-19.75,2.19-29.62c0.08-1.12,0.49-1.82,1.59-2.23C487.06,565.94,490.09,564.68,493.14,563.47z"/>
<path class="st10" d="M493.82,426.79c-1.2,1.12-0.94,2.74-1.39,4.11c-1.83,5.54-5.54,7.7-11.24,6.52c-2.87-0.59-5.49-1.79-7.9-3.36
	c-4.99-3.25-9.72-6.86-14.28-10.69c0.66-0.65,1.5-0.57,2.32-0.59c1.88,0.82,3.53,1.14,3.63-1.75c0.88,0.26,1.35,1,1.9,1.65
	c-1.57,1.47-1.61,2.63,0.28,4.05c1.65,1.24,2.83,1.78,3.97-0.38c0.37,0.22,0.74,0.45,1.1,0.67c-0.5,1.09-1.28,2.3,0.09,3.2
	c3.85,2.53,7.74,4.98,12.68,4.58c1.89-0.15,3.57-0.94,3.86-2.72c0.36-2.22,1.33-4.17,1.94-6.27
	C491.88,425.84,493.04,425.73,493.82,426.79z"/>
<path class="st4" d="M513.01,471.86c-2.35-0.15-4.83,0.68-7.13-0.59c0.42-1.04,1.18-1.05,1.83-1.23c9.49-2.66,18.97-5.33,28.46-7.97
	c0.47-0.13,0.98-0.1,1.47-0.15c-0.63,2.41-2.17,4.3-3.52,6.31c-1.7,1.33-3.29,2.36-5.81,2.09c-2.57-0.27-5.04-0.72-7.5-1.41
	c-0.6-0.67-1.2-0.67-1.8,0c-0.75,0-1.49,0-2.24,0c0.8,0.67,1.56,0.71,2.25,0.01c0.6,0,1.2,0,1.8,0c-1.48,2.4-4.25,0.51-6.06,1.82
	c-0.17,0.02-0.33,0.02-0.5,0.01c-0.67-0.74-1.41-0.65-2.2-0.14c0.36,0.07,0.72,0.14,1.08,0.21
	C513.08,471.16,513.05,471.51,513.01,471.86z M526.19,467.1c-1.41,0.02-2.85-0.11-4.32,1.14c1.8,0.1,3.14-0.22,4.34-1.12
	c1.2-0.14,2.56,0.34,3.75-1.16C528.38,465.98,527.22,466.29,526.19,467.1z M524.45,469.31l0.02-0.21l-0.22,0.09L524.45,469.31z"/>
<path class="st12" d="M483.28,536.62c0.13-0.15,0.39-0.3,0.38-0.44c-0.17-4.39,2.75-4.08,5.69-3.75c1.48,0.17,2.96,0.45,4.43,0.44
	c2.21-0.02,4.01,0.16,3.58,3.11c-0.07,0.5,0.23,1.03,0.83,1.02c0.98-0.01,1.08-0.82,0.99-1.49c-0.25-1.86,0.54-2.67,2.37-2.94
	c3.48-0.5,3.72-0.27,4.04,5c-6.89,0.84-13.77,0.13-20.66,0.04C484.22,537.6,483.53,537.45,483.28,536.62z"/>
<path class="st12" d="M461.79,528.8c2.37-0.06,4.3,0.27,3.37,3.47c-0.19,0.66,0.03,1.59,0.86,1.66c1.01,0.08,0.87-0.95,0.92-1.56
	c0.18-2.14,1.27-2.56,3.25-2.18c3.23,0.62,6.49,1.15,9.76,1.42c1.87,0.16,2.46,0.71,2,2.54c-0.22,0.87,0.03,1.79,0.76,2.47
	c-0.57,0.81-1.41,0.65-2.17,0.54c-5.09-0.74-10.16-1.65-15.27-2.24c-2.06-0.24-2.69-1.04-2.65-2.99
	C462.66,530.88,462.09,529.84,461.79,528.8z"/>
<path class="st5" d="M459.79,537.1c1.09,0.29,1.15,1.43,1.69,2.17c0.57,0.78,1.35,1.51,0.26,2.54c-3.37,3.18-7.41,5.3-11.44,7.46
	c-0.79,0.42-1.1-0.07-1.37-0.6c-0.54-1.06-0.93-2.21-1.56-3.21c-0.56-0.88-0.25-1.24,0.53-1.53c4.13-1.53,7.92-3.66,11.35-6.44
	C459.39,537.36,459.56,537.26,459.79,537.1z"/>
<path class="st10" d="M437.37,534.93c6.79-1.56,12.8-4.83,18.61-8.55c0.23,0.72,0.45,1.44,0.68,2.15c-2.37,1.6-3.65,3.51-1.83,6.33
	c0.08,0.12-0.05,0.37-0.08,0.56c0,0-0.25-0.02-0.26-0.02c-0.88-0.39-1.36-1.18-1.79-1.94c-0.66-1.17-1.4-1.04-2.47-0.59
	c-3.85,1.61-3.94,1.78-1.9,5.19c0.2,0.34,0.33,0.72,0.49,1.08c-0.35,0.15-0.7,0.31-1.05,0.46c-1.09-0.77-1.68-1.94-2.4-3.01
	c-0.48-0.72-1.16-0.79-1.83-0.45c-1,0.49-0.34,1.16-0.05,1.74c0.44,0.88,0.92,1.75,1.38,2.62c-0.35,0.11-0.7,0.21-1.05,0.32
	c-1.32-0.11-1.87-1.17-2.09-2.17c-0.42-1.94-1.54-1.96-3.02-1.45C437.93,536.63,437.55,535.84,437.37,534.93z"/>
<path class="st12" d="M490.77,425.8c-0.61,2.1-1.58,4.05-1.94,6.27c-0.29,1.78-1.97,2.57-3.86,2.72c-4.94,0.39-8.83-2.06-12.68-4.58
	c-1.37-0.9-0.59-2.11-0.09-3.2c2.26,1.23,4.46,2.62,6.81,3.66c5.49,2.43,8.2,0.96,9.61-4.86
	C489.22,423.31,490.04,425.46,490.77,425.8z"/>
<path class="st10" d="M450.69,497.65c-3.25-4.96-0.83-9.67,0.63-14.42c0.96,0.21,1.92,0.43,2.87,0.64
	c-0.16,0.87-0.23,1.78-0.51,2.61c-1.18,3.52-1.96,7.03-0.08,10.57C452.64,497.25,451.66,497.45,450.69,497.65z"/>
<path class="st10" d="M506.29,464.04c-0.75-5.29-1.54-10.58-2.23-15.88c-0.12-0.88-0.73-2.35,0.45-2.6c1.5-0.31,1.44,1.42,1.62,2.34
	c1.02,5.15,1.9,10.32,2.83,15.49C508.14,463.88,507.26,464.13,506.29,464.04z"/>
<path class="st13" d="M517.55,397.08c-3.56-0.15-5.1-1.32-5.12-3.9c-0.02-2.89,2.16-4.45,6.36-4.55
	C518.65,391.49,518.44,394.34,517.55,397.08z"/>
<path class="st10" d="M559.01,485.3c-4.9-1.34-9-3.76-11.32-8.52c0.78-0.41,1.58-0.75,2.49-0.7c1.42,4,2.32,4.39,5.66,2.4
	c0.43-0.05,0.78,0.06,0.95,0.51c-1.1,2.07-0.92,3.52,1.79,3.86c0.44,0.06,0.84,0.49,1.25,0.75
	C559.55,484.16,559.28,484.73,559.01,485.3z"/>
<path class="st12" d="M448.82,539.14c-0.16-0.36-0.28-0.74-0.49-1.08c-2.04-3.41-1.95-3.59,1.9-5.19c1.07-0.45,1.82-0.58,2.47,0.59
	c0.43,0.76,0.91,1.56,1.79,1.94C453.33,537.75,451.06,538.43,448.82,539.14z"/>
<path class="st7" d="M520.8,468.91c2.46,0.69,4.93,1.14,7.5,1.41c2.53,0.27,4.11-0.76,5.81-2.09c0.15,1.8-0.29,3.14-2.45,3.17
	c-0.69,0.01-1.09,0.39-1.25,1.05c-0.61-0.01-1.22-0.02-1.84-0.03c-0.54-1.65-1.94-0.96-3.01-1.08c-3.6-0.4-7.27,0.6-10.82-0.6
	C516.54,469.42,519.32,471.3,520.8,468.91z"/>
<path class="st14" d="M558.24,474.54c3.58-0.15,6.67-0.73,9.81-1.59C566.79,477.41,562.23,478.23,558.24,474.54z"/>
<path class="st10" d="M529.77,477.75c-1.18,2.05-2.33,4.13-3.56,6.16c-0.44,0.73-0.96,1.72-2.06,1.11
	c-1.01-0.56-0.68-1.59-0.33-2.38c0.76-1.7,1.64-3.34,2.48-5.01C527.47,477.17,528.63,477.14,529.77,477.75z"/>
<path class="st12" d="M454.75,535.42c0.03-0.19,0.15-0.44,0.08-0.56c-1.82-2.82-0.54-4.73,1.83-6.33
	C459.73,532.37,459.42,533.47,454.75,535.42z"/>
<path class="st4" d="M493.82,541.41c-0.21,3.31,0.46,6.76-1.52,9.77c-0.31,0.01-0.62,0.02-0.93,0.02c0-3.27,0-6.53,0-9.8
	C492.2,541.4,493.01,541.41,493.82,541.41z"/>
<path class="st12" d="M559.83,483.6c-0.42-0.26-0.81-0.69-1.25-0.75c-2.71-0.34-2.89-1.79-1.79-3.86c2.23,0.98,4.57,1.48,7.12,1.6
	C562.44,481.53,561.94,483.61,559.83,483.6z"/>
<path class="st12" d="M471.1,426.34c-1.14,2.17-2.31,1.62-3.97,0.38c-1.9-1.42-1.85-2.58-0.28-4.05
	C468.44,423.69,469.91,424.86,471.1,426.34z"/>
<path class="st12" d="M555.83,478.48c-3.34,1.98-4.24,1.6-5.66-2.4C553.17,474.26,554.07,477.39,555.83,478.48z"/>
<path class="st12" d="M444.87,540.49c-0.46-0.87-0.94-1.74-1.38-2.62c-0.29-0.58-0.95-1.24,0.05-1.74c0.67-0.33,1.35-0.26,1.83,0.45
	c0.72,1.07,1.31,2.23,2.4,3.01C446.94,540.36,446.08,540.98,444.87,540.49z"/>
<path class="st12" d="M507.67,537.12c-0.1-1.15,0.07-2.4-0.35-3.41c-0.95-2.3,0.39-2.41,2-2.43
	C508.89,533.26,510.7,535.87,507.67,537.12z"/>
<path class="st12" d="M438.7,537.2c1.48-0.51,2.6-0.49,3.02,1.45c0.22,1,0.77,2.05,2.09,2.17c-1.34,1.08-2.47,0.9-3.36-0.58
	C439.85,539.23,439.29,538.21,438.7,537.2z"/>
<path class="st12" d="M464.95,421.03c-0.09,2.89-1.74,2.56-3.63,1.75C462.19,421.49,463.47,421.05,464.95,421.03z"/>
<path class="st1" d="M454.2,483.88c-0.96-0.21-1.92-0.43-2.87-0.64c1.72-6.22,3.42-12.44,5.17-18.64c0.26-0.92,0.54-2.39,1.64-2.14
	c1.23,0.28,0.59,1.68,0.44,2.6C457.55,471.42,456.3,477.75,454.2,483.88z"/>
<path class="st10" d="M444.81,435.73c6.6,1.85,14.3,14.12,13.37,21.67C455.3,448.73,451.79,441.14,444.81,435.73z"/>
<path class="st13" d="M480,385.71c2.1,0.5,4.31,0.64,6.32,1.61c2.45,1.17,4.7,2.63,4.38,5.72c-0.31,3.03-2.78,3.91-5.36,4.29
	c-3.27,0.48-6.38-0.26-9.08-2.07c-1.94-1.3-3.48-3.14-2.59-5.81C474.68,386.42,477.46,386.28,480,385.71z"/>
<path class="st1" d="M493.99,379.3c-0.06,2.1-0.23,4.17-1.02,6.13c-0.42,1.05-1.11,1.95-2.38,1.94c-1.25-0.01-1.99-0.81-2.31-1.96
	c-0.98-3.47-0.66-6.87,0.71-10.16c0.44-1.06,1.3-1.78,2.57-1.64c1.42,0.16,2.03,1.16,2.22,2.42
	C493.93,377.11,493.92,378.21,493.99,379.3z"/>
<path class="st1" d="M510.99,381.05c0.12-1.71,0.25-3.41,0.94-4.99c0.46-1.06,1.23-1.86,2.52-1.77c1.18,0.08,1.77,0.99,2,1.96
	c0.73,3.06,0.66,6.13-0.39,9.13c-0.42,1.19-1.14,2.22-2.57,2.1c-1.45-0.13-1.9-1.41-2.15-2.56
	C511.07,383.66,511.09,382.34,510.99,381.05z"/>
<path class="st13" d="M508.22,391.12c-0.08,1.46-0.61,2.73-2.18,2.74c-1.64,0.02-2.51-1.2-2.54-2.77c-0.03-1.58,0.82-2.82,2.45-2.85
	C507.72,388.2,508.19,389.6,508.22,391.12z"/>
<path class="st14" d="M574.76,443.18c-0.04-2.27,2.49-5.95,4.65-6.79c1.64-0.64,2.44-0.02,2.6,1.66c0.23,2.41-2.61,6.57-4.91,7.2
	C575.57,445.66,574.79,444.97,574.76,443.18z"/>
<path class="st1" d="M514.73,470.73c3.55,1.2,7.23,0.2,10.82,0.6c1.07,0.12,2.48-0.57,3.01,1.08c-5.19-0.19-10.38-0.37-15.57-0.56
	c0.04-0.35,0.08-0.7,0.11-1.05c0.37-0.02,0.74-0.05,1.11-0.07C514.4,470.75,514.57,470.75,514.73,470.73z"/>
<path class="st7" d="M526.21,467.12c-1.2,0.9-2.54,1.22-4.34,1.12c1.47-1.25,2.92-1.12,4.32-1.14L526.21,467.12z"/>
<path class="st7" d="M526.19,467.1c1.03-0.81,2.19-1.12,3.77-1.14c-1.19,1.5-2.55,1.02-3.75,1.16
	C526.21,467.12,526.19,467.1,526.19,467.1z"/>
<path class="st7" d="M514.24,470.74c-0.37,0.02-0.74,0.05-1.11,0.07c-0.36-0.07-0.72-0.14-1.08-0.21
	C512.82,470.09,513.57,470,514.24,470.74z"/>
<path class="st7" d="M519,468.91c-0.69,0.7-1.45,0.66-2.25-0.01C517.5,468.9,518.25,468.9,519,468.91L519,468.91z"/>
<path class="st7" d="M519,468.9c0.6-0.67,1.2-0.67,1.8,0C520.2,468.91,519.6,468.91,519,468.9C519,468.91,519,468.9,519,468.9z"/>
<polygon class="st7" points="524.45,469.31 524.25,469.19 524.47,469.11 "/>
</svg>
