<?xml version="1.0" encoding="utf-8"?>
<!-- Generator: Adobe Illustrator 24.0.2, SVG Export Plug-In . SVG Version: 6.00 Build 0)  -->
<svg version="1.1" id="Capa_1" xmlns="http://www.w3.org/2000/svg" xmlns:xlink="http://www.w3.org/1999/xlink" x="0px" y="0px"
	 viewBox="0 0 313.7 468.94" style="enable-background:new 0 0 313.7 468.94;" xml:space="preserve">
<style type="text/css">
	.st0{fill:#0B0907;}
	.st1{fill:#D57A35;}
	.st2{fill:#F0DFCA;}
	.st3{fill:#DB7D35;}
	.st4{fill:#F7CEB9;}
	.st5{fill:#3C4450;}
	.st6{fill:#1F1F1F;}
	.st7{fill:#7F8289;}
	.st8{fill:#41332A;}
	.st9{fill:#1F242E;}
	.st10{fill:#F0907C;}
	.st11{fill:#A13F16;}
	.st12{fill:#EFDEC9;}
</style>
<path class="st0" d="M110.43,242.13c-11.63,4.65-23.69,5.7-36.13,5.21c-14.27-0.56-25.21-14.48-27.34-24.41
	c-2.44-11.44,1.04-21.68,5.15-31.9c1.68-4.16,4.06-8,6.87-11.53c1.5-1.89,3-4.03,5.21-4.85c4.4-1.63,6.72-4.91,8.77-8.8
	c1.3-2.47,3.24-4.65,6.57-4.39c1.56,0.12,1.11-1.04,1.13-1.83c0.07-2.49-0.09-4.98,0.49-7.45c0.8-3.39,2.1-6.43,5.11-8.49
	c0.55-0.38,1.03-0.95,1.37-1.53c2.73-4.7,7.51-6.61,12.11-8.62c1.09-0.48,1.25-1.06,1.49-1.86c1.13-3.82,2.23-7.65,3.37-11.46
	c0.55-1.83,1.39-3.4,3.7-3.14c1.04,0.12,1.19-0.37,1.08-1.19c-0.03-0.2-0.04-0.4-0.02-0.6c0.41-3.36-0.17-5.6-3.71-7.69
	c-11.1-6.55-15.61-30.18-1.1-39.01c2.68-1.63,5.53-2.75,8.64-3.17c1.06-0.15,1.77-0.28,1.67-1.76c-0.3-4.75,1.77-8.71,4.67-12.28
	c11.02-13.59,32.19-19.15,48.33-12.48c7.39,3.05,15.18,3.22,22.91,4.02c7.37,0.76,14.71,1.5,21.44,4.98
	c2.82,1.46,5.43,3.24,8.07,5.24c0.2-1.52,0.33-2.78,0.55-4.03c0.32-1.79,1.02-3.36,3.18-3.28c2.1,0.07,2.77,1.66,3.16,3.41
	c0.48,2.17,0.32,4.37,0.33,6.56c0,0.68,0.06,1.37,0.11,2.21c2.42-0.66,4.68-1.47,7.07-1.6c1.19-0.06,2.39-0.07,3.57,0.09
	c1.4,0.19,2.39,1,2.61,2.49c0.2,1.39-0.61,2.3-1.67,2.94c-2.65,1.6-5.69,1.72-8.68,2.07c-0.08,1.09,0.95,1.16,1.51,1.57
	c11.99,8.78,17.37,20.55,15.73,35.31c-0.87,7.83-2.11,15.63-6.5,22.47c-0.64,0.99,0.16,1.18,0.56,1.63
	c6.01,6.84,6.09,14.53,2.72,22.37c-3.29,7.63-9.27,11.79-17.77,11.89c-1.11,0.01-2.06-0.13-2.65,1.24
	c-5.54,12.76-15.98,19.7-28.68,23.93c-0.47,0.16-0.92,0.37-1.48,0.59c1.3,1.36,2.83,2.39,3.63,4.02c0.39,0.81,1.01,0.78,1.75,0.74
	c12.19-0.54,21.71,4.88,29.94,13.28c7.3,7.45,12.14,16.51,17.07,25.53c9.41,17.22,15.12,35.53,16.21,55.17
	c0.34,6.12,0.47,12.59-3.18,17.65c-2.92,4.05-3.13,7.92-2.77,12.33c0.2,2.46-0.56,4.56-2.36,6.49c-1.6,1.72-1.18,4.03-0.08,6.04
	c0.71,1.31,1.74,2.47,2.28,3.84c1.2,3.01,0.12,4.88-3.09,5.34c-1.38,0.2-2.16,0.35-2.57,2.02c-0.59,2.39-2.98,3.22-5.62,2.33
	c-0.84-0.28-1.62-0.77-2.38-1.24c-0.67-0.42-1.26-0.97-2.13-1.66c-0.59,1.71-0.81,3.64-2.77,4.19c-0.97,0.27-1.96,0.2-2.92-0.24
	c-1.33-0.62-1.97-1.93-2.99-2.86c-0.54-1.13-1.04-2.29-1.64-3.39c-0.51-0.92-0.52-2.89-1.96-2.28c-1.39,0.58-3.61,0.94-3.49,3.36
	c0.12,2.45,0.18,4.91,0.27,7.37c-0.25,1.79-0.23,3.57,0.06,5.35c0,0.6,0,1.2,0.01,1.8c0,0.6,0,1.2,0.01,1.8
	c-0.05,0.79-0.14,1.58-0.15,2.37c-0.32,20.4,0.7,40.8-0.34,61.2c-0.12,2.4-0.8,4.09-3.05,4.84c-1.49,0.5-2.01,1.33-1.65,2.8
	c-0.54,4.55-1.95,8.67-5.41,11.95c-3.66,3.47-7.64,6.41-12.34,8.29c-3.56,1.42-7.23,2.3-11.1,1.98c-7.24-0.6-10.22-5.36-7.54-12.08
	c0.77-1.94,1.62-3.86,2.5-5.76c1.2-2.59,3.07-5.27-1.49-6.55c-0.34-0.09-0.58-0.53-0.86-0.8c-1.77-9.88-3.55-19.75-5.82-29.55
	c-3.16-13.66-5.08-27.59-8.95-41.11c-0.24-0.86-0.31-1.79-1.02-2.43c-0.7-0.63-1.64-0.96-2.48-0.69c-0.84,0.27-0.36,1.2-0.36,1.83
	c-0.17,20.42-0.51,40.85,0.18,61.27c0.13,3.69,0.88,7.58-3.41,9.73c-0.03,0.01,0.02,0.19,0.04,0.29c-0.07,0.69-0.17,1.38-0.2,2.07
	c-0.26,6.45-1.1,7.52-7.36,9.36c-6.03,1.77-12.2,2.94-18.44,3.51c-5.64,0.52-11.31,1.17-16.97,0.1c-2-0.38-3.98-1.01-4.66-3.2
	c-0.66-2.11,0.21-3.9,1.71-5.4c1.36-1.36,2.77-2.67,4.16-4c1.9-1.12,3.76-2.3,5.71-3.31c0.72-0.37,1.43-0.82,0.74-1.39
	c-2.41-1.96-0.95-5.02-2.26-7.25c0.52-2.8-0.03-5.52-0.64-8.23c-0.02-0.22-0.04-0.43-0.06-0.65c0.14-0.69,0.06-1.34-0.34-1.93
	c-0.81-3.99-1.12-8.08-2.53-11.95c-0.03-1.49-0.02-2.98-1.04-4.23c-0.33-2.99-0.33-6.03-1.17-8.95c-0.21-2.19,0.35-4.44-0.61-6.56
	c-0.65-4.4-1.3-8.8-1.95-13.21c0.38-1.09,0.48-2.14-0.48-3.03c-0.04-3.73-0.44-7.42-1.38-11.04c0.49-5.11-1.12-10.04-1.35-15.09
	c-0.07-1.49-0.28-2.98-0.41-4.47c-0.2-2.25-0.28-4.14-2.24-6.19c-2.77-2.9-2.26-7.25-1.73-11.15c0.14-1,0.42-1.89-0.26-2.83
	c-5.28-7.27-5.17-15.39-3.08-23.5c2.93-11.33,4.2-22.9,5.92-34.42c0.02-0.24,0.04-0.48,0.06-0.73
	C110.87,241.99,110.65,242.06,110.43,242.13z M113,177.71c0.2,0.19,0.4,0.39,0.61,0.58c0.2,0.13,0.4,0.26,0.61,0.38
	c0.01,0.01,0.1-0.12,0.16-0.18c-0.23-0.09-0.45-0.19-0.68-0.28c-0.2-0.2-0.4-0.39-0.6-0.59c-0.38-0.22-0.77-0.44-1.15-0.67
	c-0.14-0.68-0.59-1.04-1.26-1.14c-0.28-0.44-0.71-0.58-1.2-0.59c-0.04-0.39-0.15-0.75-0.59-0.83c-0.09-0.01-0.21,0.2-0.32,0.31
	c0.29,0.19,0.58,0.39,0.87,0.58c0.38,0.22,0.76,0.44,1.14,0.65c0.11,0.7,0.56,1.06,1.23,1.18C112.2,177.32,112.6,177.52,113,177.71z
	 M107.1,126.19c0.4-0.31,0.58-0.69,0.43-1.19c-0.02-0.07-0.14-0.1-0.22-0.16c-0.1,0.42-0.2,0.85-0.29,1.27
	c-0.42,0.29-0.6,0.68-0.45,1.18c0.02,0.07,0.15,0.1,0.22,0.16C106.89,127.03,106.99,126.61,107.1,126.19z M146.25,222.05
	c-0.17,4.42-1.01,8.85-0.23,13.27c0.47-0.26,0.62-0.53,0.62-0.8c0-4.18-0.03-8.37-0.04-12.55c1.27-2.86,0.3-5.8,0.25-8.71
	C146.65,216.2,146.45,219.12,146.25,222.05z M92.89,142.76c2.59-1.05,5.18-1.05,7.8-0.09c0.94,0.35,2.15,0.62,2.56-0.59
	c0.4-1.19-0.81-1.66-1.66-2.1c-2.84-1.49-6.05-0.69-9.06,2.2c-0.32,0.17-1.08-0.1-0.84,0.56C91.85,143.18,92.47,142.91,92.89,142.76
	z M125.54,323.88c0.41-1.62,1.06-3.15,2.28-4.66c-2.29-0.5-4.3-0.99-6.32-1.38c-5.16-0.97-5.16-0.95-4.21,4.2
	c0.2,1.78,0.47,3.55,0.58,5.33c0.12,1.87,1.08,2.19,2.61,1.6C122.92,328.04,124.76,326.49,125.54,323.88z M231.51,318.24
	c5.87-0.09,11.74-0.23,17.54-1.33c2.07-0.39,3.31-1.18,2.81-3.56c-0.16-0.76-0.1-1.59-0.03-2.38c0.19-2.05-0.56-2.45-2.57-2.02
	c-5.37,1.17-10.81,1.73-16.26,0.43c-0.34-0.19-0.68-0.38-1.02-0.57c0.32-1.67,1.71-1,2.62-1.07c4.08-0.32,8.17-0.5,12.26-0.75
	c0.99-0.06,2.11-0.01,2.83-0.78c3.55-3.82,6.63-7.79,7.47-13.28c1.47-9.51-0.37-18.72-2.24-27.87
	c-3.88-18.95-12.89-35.72-23.14-51.88c-3.12-4.93-7.11-9.12-11.85-12.58c-5.41-3.95-11.3-6.76-18.09-7.28
	c-1-0.08-2.6-0.75-2.44,1.43c0.45,6.09-3.3,9.53-7.97,12.28c-3.9,2.3-8.18,3.79-12.58,4.67c-3.04,0.61-3.71,2.04-3.51,4.86
	c0.32,4.47,0.38,8.97,0.33,13.46c-0.04,3.67,0.34,7.4-0.99,10.96c-0.36,0.95-0.84,1.9-2.07,1.85c-1.11-0.05-1.84-0.78-2.23-1.75
	c-0.68-1.68-0.89-3.46-0.96-5.27c-0.29-6.59-0.01-13.17,0.57-19.73c0.19-2.15-0.19-3.15-2.66-2.69c-1.75,0.32-3.58,0.18-5.38,0.21
	c-0.7,0.01-1.63,0-1.8-0.75c-0.23-1.07,0.92-1.25,1.58-1.4c2.04-0.46,4.12-0.74,6.19-1.06c1.1-0.17,1.83-0.36,2.3-1.75
	c0.94-2.84,3.16-2.96,5.03-0.47c0.34,0.45,0.35,1.09,1.24,0.78c5.75-1.97,11.77-3.41,16.35-7.76c2.98-2.82,3.23-5.81,1.13-9.11
	c-0.48-2.46-2.68-3.19-4.39-4.46c-2.04-1.53-4.24-1.29-6.18-0.31c-1.73,0.87,0.15,2.65-0.34,3.98
	c-6.48,8.31-15.21,13.93-23.79,19.71c-1.44,0.97-2.93,0.65-4.17-0.93c-4.31-5.48-7.35-11.37-6.74-18.61
	c0.62-0.96,0.8-2.31,2.32-2.44c0.62-0.05,1.63,1.02,1.77-0.53c0.11-1.26-0.94-1.32-1.78-1.57c-5.21-1.54-9.92,1.4-11.16,6.95
	c-0.88,2.4,0.06,4.43,1.7,5.97c1.78,1.68,2.43,5.3,6.2,4.04c0.35-0.12,1.19,0.24,1.28,0.54c0.72,2.46,2.5,4.19,4.38,6.19
	c-3.78-0.78-3.52,1.36-3.55,3.67c-0.07,6.78-0.36,13.56-0.53,20.34c-0.03,1.32-0.27,2.58-0.75,3.79c-0.35,0.87-0.89,1.57-1.95,1.62
	c-1.05,0.05-1.64-0.61-2.1-1.42c-1.07-1.9-1.19-3.99-1.21-6.09c-0.05-6.7,0.5-13.38,1.48-19.97c0.46-3.1-0.19-4.79-2.49-6.79
	c-3.69-3.21-7.31-6.84-6.6-12.38c0.27-2.09-0.55-2.32-2.11-2.42c-4.05-0.24-7.95,0.44-11.77,1.74c-6.14,2.1-11.84,5.3-18.07,7.17
	c-0.37,0.11-0.94,0.3-1,0.56c-0.88,3.51-3.45,6.56-3.02,10.42c0.35,3.11,0.33,6.16-0.64,9.16c-0.18,0.56-0.34,1.29-1.07,1.26
	c-1.02-0.05-0.83-0.96-0.84-1.6c-0.04-1.63-0.01-3.26-0.01-5.39c-1.45,2.3-2.48,4.21-3.79,5.91c-0.95,1.24-1.96,3.7-3.69,2.58
	c-1.52-0.98,0.25-2.86,0.95-4.21c3.21-6.22,6.28-12.5,7.37-19.48c0.57-3.65,0.53-7.36-1.97-10.53c2.17-0.16,2.7-2.11,3.68-3.48
	c2.57-3.59,2.51-3.63-1.89-4.52c-0.57-0.4-1.15-0.73-1.88-0.51l0.05,0.05c-3.11-1.99-6.1-4.19-9.64-5.43l0.04,0.06
	c-0.86-2.42-2.75-3.86-4.83-5.15l0.03,0.08c-0.01-1.86-1.17-3.15-2.19-4.85c-1.93,3.04-4.18,5.44-4.9,8.81
	c-0.35,1.6-1.68,2.81-3.4,2.9c-1.57,0.07-2.66,0.82-3.65,1.78C55.26,189.87,49.86,204,51.77,220.39
	c1.23,10.58,7.63,18.35,17.92,20.94c10.42,2.62,21.2,1.68,31.58-1.68c3.28-0.87,6.55-1.75,9.84-2.6c0.51-0.13,1.14-0.25,1.14-0.78
	c-0.03-4.04,3.03-7.74,1.31-11.95c0.02-0.9-0.02-1.8,0.06-2.69c0.11-1.13-0.6-3.08,0.5-3.2c1.72-0.18,1.04,1.91,1.5,2.98
	c0.06,0.14,0.25,0.23,0.43,0.38c0.95-0.38,0.89-2.44,2.24-1.82c1.18,0.54,0.62,1.99,0.46,3.01c-0.66,4.34-1.41,8.66-2.14,12.99
	c-2.43,14.34-3.04,28.96-6.94,43.08c-1.93,7-1.12,13.78,2.97,20.11c1.29,2,2.65,2.88,4.91,3.16c27.2,3.38,54.47,5.65,81.91,5.23
	c6.41-0.1,12.85-0.3,19.39-2.96c-6.08-5.9-5.81-13.34-5.72-20.78c0.08-7-0.76-13.92-2.06-20.81c-1.62-8.53-3.12-17.08-3.44-25.78
	c-0.04-0.96-0.57-2.52,1.02-2.67c1.26-0.12,1.34,1.29,1.52,2.22c3.41,17.7,8.02,35.23,7.87,53.47c-0.04,5.47,2.27,10.01,6.38,13.68
	c3.43,3.06,3.57,4.91,0.73,9.39c0-1.39-0.04-2.47,0.01-3.55c0.04-1.01-0.72-1.1-1.37-1.24c-0.95-0.22-0.81,0.58-0.92,1.12
	c-1.07,5.33-0.16,6.73,5.12,7.92c0.68,0.15,1.37,0.29,2.05,0.44C230.49,318.39,230.98,318.4,231.51,318.24z M155.64,326.8
	c0.02,1.83,0.75,3.49,1.47,5.08c0.95,2.11,3.23,2.56,5.05,2.26c1.33-0.22,0.02-2.01,0.12-3.11c0.11-1.17-0.1-2.36-0.17-3.54
	c-0.26-1.88,1.47-4.74-2.35-4.88c-8.91-0.32-17.73-1.67-26.6-2.44c-3.87-0.34-3.87-0.35-3.93,3.56c-2.27,3.49-4.93,6.54-9.11,7.79
	c-1.35,0.4-1.25,1.42-1.15,2.4c0.38,3.56,0.77,7.12,1.24,10.66c1.5,11.33,2.92,22.68,4.57,33.99c1.64,11.21,4.97,22.16,5.07,33.59
	c0.01,1.34,0.74,1.85,1.98,2.18c3.77,1,7.55,1.83,11.49,1.71c5.3-0.17,10.49-1.16,15.73-1.81c1.36-0.17,1.53-1.02,1.44-2.13
	c-0.2-2.48-0.55-4.96-0.55-7.44c-0.04-16.34-0.43-32.69,0.34-49.02c0.05-1.49,0.15-2.98,0.16-4.48c0.05-7.19,0.04-7.19-7.22-8.19
	c-1.35-0.72-2.94-1.46-2.29-3.32c0.68-1.94,2.41-1.27,3.85-0.98c1.95,0.39,3.91,0.76,5.84,1.26c11.88,3.09,12.15,3.05,14.8,14.9
	c4.44,19.79,8.9,39.58,12.17,59.62c0.28,1.68,0.21,3.48,2.72,3.96c7.7,1.47,15.28,2.43,22.99-0.17c6.45-2.17,6.54-1.96,6.54-8.78
	c0.02-24.73,0.07-49.45-0.02-74.18c-0.01-3.24-1.12-6.48,0.51-9.62c0.26-1.16,0.44-2.35,0.79-3.49c0.54-1.78-0.13-2.18-1.76-1.73
	c-5.59,1.53-11.33,2.19-17.08,2.75c-1.65,0.16-1.83,0.86-1.18,2.16c0.41,0.82,0.94,1.53,1.74,2.01c2.47,4.65,6.95,5.45,11.55,6.05
	c1.11,0.14,2.92-0.24,2.79,1.34c-0.13,1.56-1.94,0.94-3,0.91c-6.36-0.17-11.09-3.3-14.72-8.32c-0.45-2.66-1.83-3.79-4.71-3.63
	c-3.36,0.19-6.73,0.57-10.08,0.57c-5.43,0.01-10.88-0.31-16.29-1.02c-4.13-0.54-4.44-0.24-4.3,3.94c0.01,0.3,0.06,0.59,0.1,0.89
	c0.17,2.06,0.33,4.13,0.5,6.19c0.21,2.42-1.09,2.87-3.14,2.52c-5.39-0.92-6.6-2.09-7.64-7.48c-0.17-0.87-0.4-1.72-0.61-2.58
	c0.17-0.87-0.51-2.29,0.62-2.5c1.29-0.24,0.89,1.39,1.36,2.12C155.37,326.52,155.52,326.65,155.64,326.8z M94.4,174.29
	c0.93,0.83,2.13,1.06,3.26,1.36c1.41,0.37,3.12,0.23,3.75-1.03c0.54-1.08-1.21-1.52-1.92-2.25c-0.54-0.55-1.29-0.89-1.94-1.32
	c-0.89-0.93-1.7-1.95-2.67-2.79c-2.49-2.14-3.1-4.5-1.94-7.71c1.12-3.1,3.19-3.96,6.11-3.86c0.7,0.02,1.41-0.03,1.85-0.73
	c-2.74-3.09-4.54-3.29-7.97-1.26c-0.81,0.48-1.63,2.35-2.91,0.74c-0.98-1.23-0.37-2.49,0.63-3.45c1.64-1.57,3.57-2.55,5.91-2.4
	c1.19,0.07,2.37,0.34,3.56,0.43c0.73,0.06,1.74,0.52,2.07-0.51c0.29-0.95-0.7-1.29-1.31-1.76c-2.83-2.19-5.75-2.48-8.84-0.48
	c-0.98,0.64-2.19,2.01-3.08,1.53c-2.51-1.37-2.39,0.79-2.84,1.87c-1.96,4.72-0.8,9.85-1.75,14.72c-0.07,0.38,0.33,0.93,0.64,1.29
	C87.67,169.77,90.48,172.71,94.4,174.29z M214.49,426.74c0.09-0.58,0.09-1.2,0.28-1.75c0.61-1.76-0.13-2.3-1.68-1.71
	c-5.8,2.19-11.64,2-17.54,0.57c-2.44-0.59-4.04,0.07-3.92,2.94c-1.31,3.01-2.72,5.98-3.89,9.05c-0.52,1.36-0.95,3.11,0.98,3.84
	c1.56,0.59,3.19,1.04,4.96,0.78c5.25-0.77,10.05-2.67,14.19-5.92C210.54,432.43,213.56,430.42,214.49,426.74z M105.84,167.51
	l-0.02-0.01c2.65,3.48,6.52,5.47,9.72,8.46c1.97-4.91,1.81-4.8-0.81-8.65c-2.78-4.08-4.02-8.71-3.22-13.66
	c0.38-2.34,1.19-4.62,1.8-6.92c0.28-1.07,0.43-2.12-0.02-3.22c-0.41-1.03-2.6-1.88-0.4-3.23c-0.92-4.2-1.84-8.4-2.76-12.6
	c-0.71,0.93-0.83,1.86-1.23,2.63c-2.57,4.89-0.35,11-4,15.62c-0.14,0.18,0.05,0.78,0.26,1.06c1.35,1.83,0.61,3.37-0.62,4.85
	c-0.37,0.45-0.67,0.81-0.47,1.56c1.17,4.39,0.94,4.88-3.32,6.45c-1.99,0.74-2.25,2.22-1.11,3.41
	C101.37,165.05,103.15,167.01,105.84,167.51z M213.79,307.75c-0.92-0.28-1.76,0.12-2.63,0.3c-5.67,1.19-11.36,2.08-17.19,2.19
	c-21.51,0.38-42.89-1.49-64.26-3.64c-5.93-0.59-5.83-0.74-5.83,5.18c0,1.86,0.55,2.67,2.4,2.9c4.56,0.55,9.11,1.16,13.64,1.89
	c2.09,0.34,2.54-0.41,2.4-2.36c-0.12-1.69-0.44-3.57,1.15-5.2c0.66,2.12,0.6,4.11,0.57,6.08c-0.02,1.34,0.39,1.95,1.85,2.05
	c5.18,0.35,10.36,0.76,15.52,1.3c2,0.21,2.31-0.54,2.19-2.3c-0.11-1.6-0.43-3.4,1.11-5.32c0.69,2.25,0.61,3.95,0.46,5.58
	c-0.16,1.8,0.38,2.47,2.24,2.53c4.39,0.12,8.78,0.36,13.16,0.71c2.16,0.17,3.08-0.29,2.79-2.7c-0.19-1.61-0.63-3.44,0.59-5.18
	c1.39,1.97,1.1,4.02,1.07,5.96c-0.03,1.4,0.3,2,1.8,1.9c4.88-0.32,9.77-0.57,14.65-0.83c1.48-0.08,1.98-0.59,1.79-2.24
	c-0.22-1.88-0.54-3.95,0.68-6.38c1.36,2.59,1.37,4.64,1.09,6.7c-0.15,1.12,0.15,1.47,1.25,1.28c2.94-0.51,5.89-0.98,8.83-1.47
	c1.06-0.24,2.91,0.48,2.92-1.16c0.03-2.61,0.64-5.31-0.43-7.86c-0.07-0.16-0.75-0.1-1.14-0.09
	C215.58,307.64,214.68,307.7,213.79,307.75z M227.04,64.46c-2.83,0.4-5.15-0.33-6.56-2.99c-2.54-4.77-6.94-7.33-11.56-9.51
	c-7.19-3.4-15.09-3.56-22.78-4.15c-7.84-0.59-15.36-2.07-22.65-4.92c-1.39-0.55-2.81-0.93-4.29-1.24
	c-8.11-1.71-15.69,0.19-22.96,3.5c-9.49,4.33-16.56,10.74-17.21,22.03c-0.08,1.34-0.79,1.79-2.05,2.1
	c-3.49,0.87-6.93,1.98-9.95,3.98c-5.53,3.66-6.33,9.19-6.05,15.28c0.31,6.57,3.83,11.35,8.03,15.86c0.72,0.77,1.56,0.76,1.57-0.5
	c0.01-2.96,1.23-5.63,1.92-8.42c1.7-6.79,5.04-12.87,9.69-18c1.87-2.06,2.54-3.46,1.38-5.85c-0.58-1.18-0.45-2.59,0.7-3.21
	c1.6-0.87,2.04,0.88,2.55,1.78c3.38,5.87,8.69,9.2,14.82,11.47c6.69,2.48,13.61,2.97,21.05,2.18c-3.2-2.23-5.41-4.87-6.77-8.15
	c-0.36-0.87-0.48-1.83,0.43-2.43c0.92-0.6,1.45,0.27,2.01,0.78c1.25,1.14,2.39,2.43,3.72,3.46c9.17,7.13,19.77,10.02,31.21,10.29
	c4.29,0.1,8.57,0.04,12.77-1.06c1.26-0.33,2.63-0.39,3.56,0.85c0.92,1.24-0.2,1.96-0.75,2.86c-0.29,0.48-0.42,1.12-0.43,1.69
	c-0.24,8.52,2,15.94,9.4,21.1c1.2,0.84,2.75,1.81,2.51,3.48c-0.71,4.91-0.11,10.18-3.83,14.34c3.22,0.72,3.22,0.72,4.03-1.94
	c0.3-0.97,0.84-1.78,1.52-2.54c3.24-3.66,7.23-5.59,12.17-5.22c1.96,0.14,3.05-0.43,3.77-2.44c1.28-3.57,2.39-7.19,3.13-10.89
	c1.52-7.64,2.69-15.31-0.13-22.95c-2.41-6.54-6.76-11.67-11.78-16.33C227.98,67.58,226.7,66.43,227.04,64.46
	c0.18-0.04,0.37-0.08,0.56-0.11c-0.05-0.09-0.1-0.18-0.15-0.28C227.3,64.2,227.17,64.33,227.04,64.46z M117.31,152.42
	c-1.82,6.9,0.65,12.49,5.47,17.27c3.66,3.62,8.06,6.1,12.84,7.97c7.57,2.96,15.56,4.07,23.5,5.42c2.1,0.36,4.43,0.37,5.9,2.39
	c-0.72,1.42-2.08,1.89-3.47,1.97c-2.96,0.17-5.95,0.09-5.21,4.5c0.06,0.37-0.47,0.83-0.72,1.25c-1.08,0.19-1.65,0.6-1.01,1.81
	c1.49,2.86,3.59,4.54,7,4.79c5.48,0.41,9.47-2.13,13.25-5.64c2-1.86,4.06-3.21,2.81-6.56c-1.03-2.76,0.3-4.41,3.39-4.89
	c6.03-0.94,11.89-2.61,17.5-5.02c8.78-3.78,16.24-9.24,20.34-18.09c1.66-3.59,3.67-4.89,7.56-5.18
	c10.48-0.78,17.08-10.26,14.68-20.42c-1.13-4.79-4.07-7.57-8-7.57c-4.48,0-9.46,3.6-10.58,7.52c-0.68,2.38-2.59,2.85-4.77,2.55
	c-2.11-0.29-3.94-1.46-3.52-3.65c0.88-4.6,0.37-9.3,1.41-13.85c0.24-1.06,0.11-1.71-0.98-2.42c-7.64-5-11.04-12.27-11.15-21.26
	c-0.01-1.03,0.5-2.12-0.09-2.97c-12.41,1.27-24.25,0-35.44-5.56c-0.85-0.42-1.55-1.44-2.92-0.54c-4.98,3.24-10.59,3.3-16.2,2.49
	c-8.31-1.2-15.67-4.55-21.73-10.58c-9.75,12.76-13.73,26.96-12.5,42.76c0.63,8.11,3.03,15.85,4.35,23.81
	C118.46,147.28,117.89,149.85,117.31,152.42z M121.08,174.84c-1.11,1.27-1.18,2.84-1.8,4.18c-1.59,3.46-4.18,4.41-7.51,2.51
	c-1.89-1.09-3.62-2.45-5.43-3.67c-0.47-0.32-0.96-0.99-1.55-0.59c-0.54,0.37-0.45,1.1-0.06,1.62c2.45,3.27,0.47,5.91-1.43,8.32
	c-1.48,1.88-2.21,3.29-1.28,5.92c0.82,2.32,1.51,1.91,3.04,1.25c5.11-2.23,10.19-4.52,15.5-6.26c4.88-1.6,9.88-2.66,14.99-1.51
	c2.31,0.52,3.71,0.02,4.73-2.17C133.1,182.59,126.66,179.58,121.08,174.84z M119.82,429.45c1.57,0.89,2.96,1.03,4.36,0.93
	c5.36-0.38,10.75-0.6,16.07-1.29c4.94-0.63,9.74-2.01,14.53-3.42c2.91-0.85,2.19-3.11,1.95-4.88c-0.28-1.99-1.97-0.99-3.15-0.82
	c-4.85,0.71-9.89,1.76-14.55,0.56c-4.32-1.12-7.24,0.31-10.39,2.46C125.72,425,122.3,426.34,119.82,429.45z M246.69,335.58
	c0.35-1.86-0.99-3.06-1.41-4.54c-0.32-1.13-0.98-2.35,0.3-3.25c1.47-1.02,2.07,0.44,2.89,1.19c1.08,0.99,1.72,2.66,3.88,2.64
	c-0.97-2.88-3.25-4.99-3.11-7.88c0.11-2.07-0.53-2.46-2.52-2.16c-6.43,0.96-12.89,1.41-19.35,0.21c-0.8-0.15-1.49-0.52-1.81,0.69
	c-0.65,2.44-1.42,4.85-2.15,7.33c1.3,0.09,1.95-0.56,2.68-1.07c3.85-2.68,4.76-2.42,6.87,1.9c0.96,1.96,1.66,4.1,3.45,5.93
	c0.73-2.67,0.08-4.93,0.13-7.18c0.02-0.87,0.29-1.57,1.15-1.88c0.78-0.28,1.37,0.18,1.82,0.72c0.71,0.83,1.31,1.76,2.02,2.59
	C243.03,332.59,244.05,334.9,246.69,335.58z M122.33,309.86c0.08-4.03,0.07-4.03-3.97-4.73c-1.18-0.21-2.36-0.39-3.53-0.63
	c-0.98-0.2-1.43,0.16-1.69,1.12c-1.06,3.97,0.71,6.87,4.76,7.64C122.25,314.08,122.25,314.08,122.33,309.86z M162.9,203.56
	c-4.06,0.53-6.97-1.75-10-3.8c0.43,1.25,0.96,2.25,1.54,3.23c3.43,5.81,3.44,5.81,8.35,1.23
	C162.84,204.18,162.82,204.05,162.9,203.56z M172.51,237.74c0.87-6.99,0.39-13.96-0.39-20.93
	C171.77,223.79,171.67,230.77,172.51,237.74z M105.46,131.88c0.79-1.01,1.24-1.81,0.7-3.06
	C105.54,129.74,105.07,130.49,105.46,131.88z M104.96,133.02c-0.68,0.92-1.14,1.73-0.64,2.97
	C105.08,135.03,105.54,134.23,104.96,133.02z M108.18,122.99c-0.07-0.16-0.14-0.32-0.2-0.49c-0.08,0.14-0.19,0.28-0.24,0.44
	c-0.02,0.07,0.06,0.17,0.09,0.26C107.93,123.12,108.05,123.06,108.18,122.99z"/>
<path class="st1" d="M68.85,72.48c-0.55-0.21-1.33-0.41-2.01-0.79c-3.28-1.88-6.58-3.72-9.51-6.12c-0.97-0.79-1.72-1.81-1.05-3.1
	c0.69-1.34,2.01-1.21,3.16-0.8c4.17,1.47,7.78,3.95,11.31,6.53c0.95,0.69,1.3,1.78,0.8,2.93C71.1,72.18,70.12,72.39,68.85,72.48z"/>
<path class="st1" d="M70.2,50.08c2.13,0.08,10.13,9.17,9.95,11.31c-0.16,1.86-2.51,3.01-4.04,1.71c-3.19-2.72-5.99-5.86-7.84-9.66
	C67.36,51.57,68.4,50.01,70.2,50.08z"/>
<path class="st1" d="M60.63,84.75c-2.02-0.31-4.92,0.1-4.78-2.49c0.13-2.47,2.99-2.27,4.9-2.03c2.03,0.24,5.37,0.02,5.16,2.68
	C65.73,85.27,62.43,84.22,60.63,84.75z"/>
<path class="st2" d="M109.15,337.75c-0.16,0.02-0.32,0.04-0.48,0.06c0.01-0.16,0.01-0.32,0.05-0.48c0.01-0.04,0.23-0.07,0.25-0.04
	C109.04,337.43,109.09,337.59,109.15,337.75z"/>
<path class="st3" d="M230.06,317.98c-0.68-0.15-1.37-0.29-2.05-0.44c-5.28-1.18-6.19-2.59-5.12-7.92c0.11-0.54-0.03-1.33,0.92-1.12
	c0.65,0.15,1.41,0.24,1.37,1.24c-0.05,1.08-0.01,2.15-0.01,3.55c2.84-4.47,2.7-6.33-0.73-9.39c-4.11-3.66-6.43-8.21-6.38-13.68
	c0.15-18.24-4.46-35.76-7.87-53.47c-0.18-0.93-0.26-2.34-1.52-2.22c-1.59,0.15-1.06,1.71-1.02,2.67c0.32,8.7,1.82,17.26,3.44,25.78
	c1.31,6.89,2.14,13.81,2.06,20.81c-0.09,7.44-0.36,14.88,5.72,20.78c-6.54,2.65-12.98,2.86-19.39,2.96
	c-27.44,0.42-54.71-1.85-81.91-5.23c-2.25-0.28-3.61-1.16-4.91-3.16c-4.1-6.33-4.9-13.11-2.97-20.11
	c3.9-14.13,4.51-28.74,6.94-43.08c0.73-4.33,1.48-8.65,2.14-12.99c0.16-1.02,0.72-2.47-0.46-3.01c-1.35-0.62-1.29,1.43-2.24,1.82
	c-0.18-0.15-0.37-0.24-0.43-0.38c-0.47-1.07,0.22-3.17-1.5-2.98c-1.09,0.12-0.39,2.07-0.5,3.2c-0.09,0.89-0.05,1.79-0.06,2.69
	c-2.38,3.13-4.76,6.26-7.15,9.38c-1.59,2.09-4.18,3.32-5.14,5.95c-10.38,3.36-21.17,4.3-31.58,1.68
	C59.4,238.74,53,230.97,51.77,220.39c-1.91-16.39,3.49-30.51,15.37-42.07c0.99-0.97,2.09-1.71,3.65-1.78c1.72-0.08,3.05-1.3,3.4-2.9
	c0.73-3.37,2.97-5.77,4.9-8.81c1.03,1.7,2.18,2.99,2.2,4.85c-2.51,0.09-4.31,2.64-3.75,5.75c1.58-1.92,2.77-3.79,3.72-5.83
	c2.07,1.28,3.97,2.73,4.83,5.14c-3.54,0.44-3.39,3.65-4.69,5.79c2.21-1.13,2.75-1.85,4.64-5.85c3.53,1.24,6.53,3.43,9.64,5.43
	c-2.99,1.1-3.15,3.94-4.07,6.31c2.98-1.13,3.49-3.75,4.02-6.36c0.73-0.22,1.32,0.12,1.88,0.51c0.4,2.89-0.63,5.46-1.79,8
	c2.5,3.16,2.54,6.88,1.97,10.53c-1.09,6.98-4.16,13.26-7.37,19.48c-0.69,1.34-2.47,3.23-0.95,4.21c1.73,1.11,2.74-1.35,3.69-2.58
	c1.31-1.7,2.34-3.61,3.79-5.91c0,2.13-0.03,3.76,0.01,5.39c0.02,0.64-0.18,1.56,0.84,1.6c0.73,0.03,0.89-0.7,1.07-1.26
	c0.97-3,0.98-6.06,0.64-9.16c-0.43-3.86,2.14-6.91,3.02-10.42c0.06-0.26,0.63-0.45,1-0.56c6.23-1.87,11.93-5.07,18.07-7.17
	c3.82-1.31,7.72-1.99,11.77-1.74c1.56,0.09,2.38,0.33,2.11,2.42c-0.71,5.54,2.91,9.17,6.6,12.38c2.29,2,2.95,3.69,2.49,6.79
	c-0.98,6.59-1.52,13.27-1.48,19.97c0.01,2.1,0.14,4.19,1.21,6.09c0.46,0.82,1.05,1.47,2.1,1.42c1.05-0.05,1.6-0.75,1.95-1.62
	c0.48-1.21,0.72-2.47,0.75-3.79c0.17-6.78,0.46-13.56,0.53-20.34c0.03-2.31-0.23-4.45,3.55-3.67c-1.88-2-3.66-3.73-4.38-6.19
	c-0.09-0.29-0.93-0.65-1.28-0.54c-3.78,1.26-4.42-2.36-6.2-4.04c-1.64-1.54-2.58-3.57-1.7-5.97c2.94-0.84,5.74-2.2,8.85-2.42
	c-0.62,7.24,2.42,13.13,6.74,18.61c1.24,1.57,2.72,1.9,4.17,0.93c8.58-5.78,17.31-11.39,23.79-19.71c3.54,1.55,7.2,1.54,10.91,0.8
	c2.1,3.3,1.85,6.29-1.13,9.11c-4.58,4.34-10.6,5.79-16.35,7.76c-0.89,0.31-0.9-0.33-1.24-0.78c-1.87-2.49-4.09-2.37-5.03,0.47
	c-0.47,1.4-1.2,1.58-2.3,1.75c-2.07,0.32-4.15,0.61-6.19,1.06c-0.66,0.15-1.81,0.33-1.58,1.4c0.16,0.75,1.1,0.77,1.8,0.75
	c1.8-0.03,3.63,0.11,5.38-0.21c2.47-0.46,2.85,0.54,2.66,2.69c-0.58,6.56-0.86,13.14-0.57,19.73c0.08,1.8,0.29,3.59,0.96,5.27
	c0.39,0.97,1.12,1.7,2.23,1.75c1.23,0.05,1.71-0.9,2.07-1.85c1.33-3.55,0.95-7.29,0.99-10.96c0.05-4.49,0-8.99-0.33-13.46
	c-0.2-2.82,0.47-4.26,3.51-4.86c4.4-0.88,8.68-2.36,12.58-4.67c4.66-2.76,8.42-6.2,7.97-12.28c-0.16-2.18,1.43-1.51,2.44-1.43
	c6.78,0.53,12.68,3.33,18.09,7.28c4.73,3.46,8.72,7.65,11.85,12.58c10.25,16.16,19.26,32.92,23.14,51.88
	c1.87,9.15,3.7,18.36,2.24,27.87c-0.85,5.49-3.92,9.46-7.47,13.28c-0.72,0.77-1.84,0.72-2.83,0.78c-4.09,0.25-8.18,0.43-12.26,0.75
	c-0.91,0.07-2.3-0.6-2.62,1.07c-0.99,2.89-1.95,5.78-0.15,8.71c-0.12,0.07-0.22,0.15-0.32,0.24
	C231.02,317.84,230.54,317.91,230.06,317.98z M179.16,232.74c-3.36,0.99-1.52,3.81-1.99,5.79c-0.52,2.19,0.64,3.38,2.8,3.64
	c4.66,0.56,9.33,0.86,14.02,0.63c1.07-0.05,2.36-0.2,2.43-1.67c0.11-2.28,0.09-4.57,0.08-6.86c-0.01-1.24-1-1.86-1.96-1.92
	c-5.03-0.3-10.08-0.95-15.07,0.38C179.37,232.8,179.27,232.81,179.16,232.74z M184.16,273.19c-17.87-2.15-35.8-2.3-53.71-2.68
	C148.31,272.42,166.18,274.18,184.16,273.19z M188.69,275.62c1.22,4.99,3.5,9.58,6.96,13.58c1.37,1.59,2.76,3.18,4.74,4.04
	c0.68,0.3,1.54,0.92,2.08-0.13c0.43-0.83-0.36-1.26-0.89-1.65c-4.59-3.41-6.99-8.35-9.42-13.28c-0.53-1.07-1.04-2.15-1.6-3.21
	c-0.29-0.53-0.7-1.05-1.41-0.79C188.57,274.4,188.74,275,188.69,275.62z M76.19,177.58c-0.99,1.13-0.5,1.89-0.22,2.58
	c1.75,4.28,10.65,10.04,15.26,9.93c0.73-0.02,1.52-0.09,1.66-0.9c0.14-0.83-0.64-1.15-1.3-1.4
	C85.75,185.54,80.45,182.48,76.19,177.58z M114.77,287.16c0.43-0.23,1.01-0.45,1.47-0.81c4.5-3.49,8.02-7.75,10.1-13.09
	c0.28-0.71,0.88-1.67,0.04-2.17c-1.12-0.66-1.54,0.56-1.96,1.26c-2.53,4.22-5.54,8.04-9.14,11.41c-0.57,0.53-1.03,1.23-1.4,1.92
	C113.49,286.4,113.66,287.02,114.77,287.16z M199.87,295.26c-6.51-3.58-9.55-10.01-13.26-15.88
	C187.84,287.29,194.27,295.08,199.87,295.26z M211.6,231.45c3.51-7.82,7.32-14.72,13.52-19.99
	C219.12,213.79,211.47,224.95,211.6,231.45z M115,289.59c6-1.08,12.84-9.45,12.31-14.79C124.6,280.95,120.85,285.64,115,289.59z"/>
<path class="st4" d="M165.03,185.47c-1.47-2.02-3.8-2.03-5.9-2.39c-7.94-1.35-15.93-2.47-23.5-5.42c-4.78-1.87-9.19-4.35-12.84-7.97
	c-4.82-4.78-7.29-10.37-5.47-17.27c2.54,0.25,4.85,1.76,7.56,1.24c2.67-0.52,5.22-2.86,5.92-5.65c0.57-2.27-0.44-3.93-2.13-5.15
	c-3.49-2.54-7.34-1.74-9.64,1.85c-1.32-7.96-3.72-15.7-4.35-23.81c-1.23-15.8,2.75-30,12.5-42.76c6.06,6.03,13.42,9.38,21.73,10.58
	c5.6,0.81,11.21,0.75,16.2-2.49c1.38-0.9,2.08,0.12,2.92,0.54c11.19,5.55,23.03,6.83,35.44,5.56c0.58,0.85,0.07,1.94,0.09,2.97
	c0.11,8.98,3.51,16.26,11.15,21.26c1.08,0.71,1.22,1.36,0.98,2.42c-1.04,4.55-0.53,9.26-1.41,13.85c-0.42,2.19,1.41,3.36,3.52,3.65
	c2.18,0.3,4.09-0.18,4.77-2.55c1.12-3.92,6.1-7.52,10.58-7.52c3.93,0,6.87,2.79,8,7.57c2.4,10.16-4.2,19.64-14.68,20.42
	c-3.89,0.29-5.9,1.58-7.56,5.18c-4.1,8.85-11.56,14.31-20.34,18.09c-5.61,2.42-11.47,4.09-17.5,5.02c-3.09,0.48-4.42,2.13-3.39,4.89
	c1.25,3.35-0.81,4.7-2.81,6.56c-3.78,3.51-7.77,6.05-13.25,5.64c-3.41-0.26-5.51-1.94-7-4.79c-0.63-1.22-0.07-1.62,1.01-1.81
	c1.29,0.11,2.53-0.08,3.77-0.47C163.67,191.38,165.43,189.14,165.03,185.47z M146.66,147.71c1.1,1.37,2.48,1.54,4.05,0.98
	c2.17,0.14,3.11-1.3,3.3-3.05c0.22-2-1.1-3.38-2.85-4.09c-2.05-0.84-3.75,0.14-4.94,1.73C145.12,144.74,144.98,146.38,146.66,147.71
	z M157.91,172.19c8.68,0.03,16.31-6.06,17.86-13.5c0.7-3.34-0.44-5.06-3.85-5.14c-9.91-0.24-19.7,0.92-29.35,3.07
	c-3.58,0.8-4.13,2.24-2.03,5.29C144.93,168.28,151.1,171.69,157.91,172.19z M189.94,154.24c3.29-0.02,4.89-0.38,6.7-1.96
	c2.79-2.45,3.29-6.72-0.39-9.19c-2.37-1.59-4.8-1.5-7.42-0.93c-4.37,0.96-7.07,3.81-6.7,7.3
	C182.46,152.55,185.27,154.27,189.94,154.24z M133.4,131.46c-0.06-2.51-0.02-4.62-0.89-6.58c-0.76-1.7-2.08-2.71-3.99-2.57
	c-1.78,0.13-2.49,1.48-2.86,3.02c-0.96,3.97-0.66,7.93,0.3,11.83c0.45,1.81,1.44,3.45,3.66,3.28c2.01-0.15,2.8-1.72,3.17-3.47
	C133.2,135.02,133.53,133.05,133.4,131.46z M184.52,131.87c-0.11-2.25,0.21-4.67-0.88-6.92c-0.66-1.35-1.73-2.25-3.27-2.2
	c-1.57,0.05-2.61,1.06-2.99,2.51c-1.19,4.52-1.19,9.06,0.1,13.55c0.45,1.54,1.54,2.54,3.32,2.45c1.77-0.09,2.6-1.21,3.09-2.76
	C184.56,136.37,184.47,134.18,184.52,131.87z M179.26,102.8c-1.75-0.22-3.01,0.39-3.48,2.12c-0.5,1.84,0.94,2.5,2.22,3
	c4.09,1.59,8.21,3.08,12.33,4.57c1.45,0.53,3.03,0.96,3.9-0.86c0.76-1.6-0.37-2.67-1.49-3.53
	C188.77,105.03,184.11,103.66,179.26,102.8z M133.77,102.66c-4.11,0.48-8.51,2.2-12.32,5.31c-1,0.82-2.01,1.9-1.15,3.34
	c0.83,1.4,2.14,1.1,3.45,0.65c3.96-1.35,7.94-2.64,11.9-3.99c1.46-0.5,2.97-1.17,2.59-3.09
	C137.86,102.94,136.28,102.56,133.77,102.66z"/>
<path class="st5" d="M153.29,326.74c0.2,0.86,0.44,1.71,0.61,2.58c1.04,5.39,2.25,6.56,7.64,7.48c2.05,0.35,3.35-0.1,3.14-2.52
	c-0.18-2.06-0.34-4.12-0.5-6.19c1.09-0.04,2.18-0.1,3.28-0.11c6.76-0.09,13.49,1.14,20.24,0.52c3.92-0.36,7.93-0.03,11.77-1.16
	c3.64,5.02,8.37,8.15,14.72,8.32c1.06,0.03,2.88,0.65,3-0.91c0.13-1.59-1.68-1.2-2.79-1.34c-4.6-0.6-9.08-1.41-11.55-6.05
	c5.92,0.29,11.67-1.01,17.49-1.7c-1.62,3.14-0.52,6.39-0.51,9.62c0.1,24.73,0.04,49.45,0.02,74.18c-0.01,6.82-0.09,6.6-6.54,8.78
	c-7.71,2.6-15.3,1.64-22.99,0.17c-2.51-0.48-2.44-2.27-2.72-3.96c-3.28-20.03-7.73-39.83-12.17-59.62
	c-2.66-11.86-2.92-11.81-14.8-14.9c-1.92-0.5-3.89-0.86-5.84-1.26c-1.44-0.29-3.17-0.96-3.85,0.98c-0.65,1.85,0.94,2.6,2.29,3.32
	c1.89,4.48,4.53,8.54,7.06,12.67c-0.76,16.34-0.38,32.68-0.34,49.02c0.01,2.48,0.35,4.96,0.55,7.44c0.09,1.11-0.08,1.96-1.44,2.13
	c-5.24,0.65-10.43,1.64-15.73,1.81c-3.95,0.12-7.72-0.71-11.49-1.71c-1.23-0.33-1.96-0.84-1.98-2.18
	c-0.11-11.44-3.44-22.39-5.07-33.59c-1.65-11.31-3.08-22.66-4.57-33.99c-0.47-3.55-0.86-7.11-1.24-10.66c-0.1-0.97-0.2-2,1.15-2.4
	c4.18-1.24,6.83-4.3,9.11-7.79c0.46,0.65,1.19,0.66,1.87,0.79C138.43,325.92,145.85,326.44,153.29,326.74z"/>
<path class="st6" d="M227.03,64.45c-0.33,1.98,0.95,3.13,2.2,4.3c5.02,4.66,9.37,9.79,11.78,16.33c2.81,7.64,1.65,15.32,0.13,22.95
	c-0.74,3.7-1.85,7.32-3.13,10.89c-0.72,2.01-1.81,2.59-3.77,2.44c-4.94-0.36-8.93,1.57-12.17,5.22c-0.68,0.76-1.22,1.57-1.52,2.54
	c-0.81,2.66-0.81,2.66-4.03,1.94c3.71-4.16,3.12-9.43,3.83-14.34c0.24-1.67-1.31-2.64-2.51-3.48c-7.4-5.16-9.64-12.57-9.4-21.1
	c0.02-0.57,0.14-1.21,0.43-1.69c0.55-0.9,1.68-1.62,0.75-2.86c-0.93-1.24-2.3-1.18-3.56-0.85c-4.2,1.1-8.48,1.16-12.77,1.06
	c-11.45-0.27-22.04-3.16-31.21-10.29c-1.33-1.04-2.47-2.32-3.72-3.46c-0.56-0.51-1.09-1.39-2.01-0.78c-0.91,0.6-0.8,1.56-0.43,2.43
	c1.37,3.28,3.57,5.92,6.77,8.15c-7.44,0.79-14.36,0.3-21.05-2.18c-6.13-2.27-11.44-5.6-14.82-11.47c-0.51-0.89-0.95-2.65-2.55-1.78
	c-1.15,0.63-1.28,2.03-0.7,3.21c1.17,2.39,0.49,3.79-1.38,5.85c-4.65,5.12-7.99,11.21-9.69,18c-0.7,2.78-1.91,5.46-1.92,8.42
	c-0.01,1.26-0.85,1.27-1.57,0.5c-4.2-4.51-7.72-9.29-8.03-15.86c-0.28-6.09,0.52-11.62,6.05-15.28c3.01-2,6.46-3.11,9.95-3.98
	c1.25-0.31,1.97-0.76,2.05-2.1c0.66-11.29,7.72-17.7,17.21-22.03c7.27-3.31,14.85-5.21,22.96-3.5c1.48,0.31,2.89,0.7,4.29,1.24
	c7.28,2.85,14.81,4.32,22.65,4.92c7.69,0.58,15.59,0.74,22.78,4.15c4.62,2.19,9.02,4.75,11.56,9.51
	C221.89,64.13,224.21,64.86,227.03,64.45L227.03,64.45z"/>
<path class="st1" d="M215.12,316.71c-2.95,0.49-5.89,0.96-8.83,1.47c-1.1,0.19-1.4-0.16-1.25-1.28c0.28-2.06,0.26-4.11-1.09-6.7
	c-1.22,2.43-0.9,4.49-0.68,6.38c0.19,1.65-0.31,2.16-1.79,2.24c-4.88,0.26-9.77,0.51-14.65,0.83c-1.5,0.1-1.82-0.51-1.8-1.9
	c0.04-1.94,0.33-3.99-1.07-5.96c-1.21,1.74-0.78,3.57-0.59,5.18c0.29,2.42-0.63,2.88-2.79,2.7c-4.38-0.35-8.77-0.59-13.16-0.71
	c-1.86-0.05-2.4-0.72-2.24-2.53c0.14-1.63,0.23-3.33-0.46-5.58c-1.55,1.92-1.22,3.71-1.11,5.32c0.12,1.76-0.2,2.51-2.19,2.3
	c-5.16-0.54-10.34-0.95-15.52-1.3c-1.45-0.1-1.87-0.71-1.85-2.05c0.03-1.97,0.09-3.96-0.57-6.08c-1.59,1.63-1.27,3.51-1.15,5.2
	c0.13,1.95-0.31,2.7-2.4,2.36c-4.53-0.73-9.08-1.34-13.64-1.89c-1.85-0.22-2.4-1.03-2.4-2.9c0.01-5.93-0.1-5.78,5.83-5.18
	c21.36,2.14,42.74,4.02,64.26,3.64c5.83-0.1,11.52-1,17.19-2.19c0.87-0.18,1.71-0.59,2.63-0.3
	C214.91,310.64,215.25,313.64,215.12,316.71z"/>
<path class="st7" d="M105.84,167.51c-2.69-0.5-4.47-2.45-6.19-4.25c-1.14-1.19-0.88-2.67,1.11-3.41c4.26-1.58,4.49-2.07,3.32-6.45
	c-0.2-0.75,0.1-1.11,0.47-1.56c1.23-1.48,1.97-3.02,0.62-4.85c-0.21-0.28-0.4-0.88-0.26-1.06c3.65-4.62,1.43-10.73,4-15.62
	c0.41-0.77,0.52-1.7,1.23-2.63c0.92,4.2,1.84,8.4,2.76,12.6c-2.2,1.36-0.01,2.21,0.4,3.23c0.44,1.09,0.3,2.14,0.02,3.22
	c-0.61,2.31-1.42,4.58-1.8,6.92c-0.8,4.95,0.44,9.58,3.22,13.66c2.62,3.85,2.78,3.74,0.81,8.65c-3.21-2.99-7.08-4.98-9.72-8.46
	c1.15-0.48,0.05-2.5,1.55-2.52c1.22-0.02,2.12,0.99,2.99,1.82c0.6,0.57,0.45,1.24,0.32,1.94c-0.07,0.37-0.01,0.89,0.48,0.9
	c0.33,0.01,0.79-0.22,0.99-0.49c0.76-1.03,0.65-2.13-0.28-2.95c-1.03-0.91-2.18-1.71-3.35-2.45c-1.87-1.19-3.08-0.51-3.07,1.73
	C105.44,166.16,105.7,166.83,105.84,167.51z M110.76,147.6c-0.17-0.23-0.34-0.47-0.5-0.7c-0.74-1-1.38-2.17-3.18-1.39
	c0.97,0.56,1.93,1.12,2.9,1.68c0.21,0.18,0.43,0.36,0.64,0.54c0.22,0.14,0.43,0.29,0.66,0.42c0.02,0.01,0.13-0.12,0.2-0.18
	C111.24,147.84,111.01,147.72,110.76,147.6z"/>
<path class="st8" d="M214.49,426.74c-0.93,3.68-3.94,5.69-6.63,7.8c-4.14,3.24-8.94,5.15-14.19,5.92c-1.77,0.26-3.4-0.19-4.96-0.78
	c-1.93-0.73-1.5-2.48-0.98-3.84c1.18-3.06,2.58-6.04,3.89-9.05c1.97-0.2,3.9-0.91,5.9-0.53
	C203.16,427.33,208.83,426.66,214.49,426.74z"/>
<path class="st8" d="M119.82,429.45c2.48-3.11,5.89-4.45,8.82-6.45c3.14-2.15,6.07-3.57,10.39-2.46c4.66,1.21,9.71,0.15,14.55-0.56
	c1.18-0.17,2.87-1.18,3.15,0.82c0.25,1.77,0.96,4.02-1.95,4.88c-4.79,1.4-9.6,2.78-14.53,3.42c-5.32,0.68-10.71,0.9-16.07,1.29
	C122.79,430.48,121.39,430.34,119.82,429.45z"/>
<path class="st4" d="M94.4,174.29c-3.92-1.57-6.73-4.52-9.4-7.62c-0.31-0.36-0.71-0.91-0.64-1.29c0.94-4.87-0.21-10,1.75-14.72
	c0.45-1.08,0.33-3.24,2.84-1.87c0.89,0.49,2.1-0.89,3.08-1.53c3.09-2,6.01-1.71,8.84,0.48c0.61,0.47,1.6,0.81,1.31,1.76
	c-0.32,1.04-1.34,0.57-2.07,0.51c-1.19-0.09-2.37-0.36-3.56-0.43c-2.34-0.14-4.27,0.83-5.91,2.4c-1,0.96-1.62,2.22-0.63,3.45
	c1.28,1.6,2.11-0.26,2.91-0.74c3.43-2.04,5.23-1.83,7.97,1.26c-0.43,0.7-1.15,0.76-1.85,0.73c-2.92-0.1-4.99,0.76-6.11,3.86
	c-1.16,3.2-0.55,5.57,1.94,7.71c0.97,0.83,1.79,1.85,2.67,2.79C95.59,171.24,95.22,172.99,94.4,174.29z"/>
<path class="st4" d="M246.69,335.58c-2.65-0.68-3.66-2.99-5.16-4.76c-0.71-0.83-1.31-1.76-2.02-2.59c-0.46-0.54-1.04-1-1.82-0.72
	c-0.86,0.31-1.13,1.01-1.15,1.88c-0.04,2.25,0.61,4.52-0.13,7.18c-1.79-1.83-2.49-3.97-3.45-5.93c-2.11-4.31-3.03-4.58-6.87-1.9
	c-0.73,0.51-1.39,1.16-2.68,1.07c0.73-2.48,1.5-4.89,2.15-7.33c0.32-1.21,1.02-0.83,1.81-0.69c6.46,1.2,12.92,0.75,19.35-0.21
	c1.99-0.3,2.62,0.1,2.52,2.16c-0.15,2.89,2.13,5,3.11,7.88c-2.16,0.02-2.8-1.65-3.88-2.64c-0.82-0.75-1.42-2.22-2.89-1.19
	c-1.29,0.9-0.63,2.12-0.3,3.25C245.7,332.52,247.04,333.72,246.69,335.58z"/>
<path class="st9" d="M199.47,327.35c-3.85,1.13-7.85,0.8-11.77,1.16c-6.75,0.62-13.48-0.61-20.24-0.52
	c-1.09,0.01-2.18,0.07-3.28,0.11c-0.03-0.29-0.08-0.59-0.09-0.89c-0.14-4.18,0.17-4.48,4.3-3.94c5.41,0.71,10.85,1.02,16.29,1.02
	c3.35,0,6.72-0.38,10.08-0.57C197.63,323.56,199.02,324.69,199.47,327.35z"/>
<path class="st9" d="M153.29,326.74c-7.44-0.3-14.86-0.83-22.2-2.23c-0.68-0.13-1.41-0.14-1.87-0.79c0.06-3.91,0.05-3.9,3.93-3.56
	c8.87,0.78,17.69,2.12,26.6,2.44c3.82,0.14,2.09,3,2.35,4.88c-2.16-0.23-4.31-0.46-6.47-0.69c-0.12-0.14-0.27-0.28-0.37-0.43
	c-0.48-0.73-0.07-2.36-1.36-2.12C152.77,324.45,153.45,325.87,153.29,326.74z"/>
<path class="st1" d="M231.51,317.78c0.1-0.09,0.2-0.17,0.32-0.24c1.22-0.42,1.11-1.48,1.13-2.44c0.04-1.9,0.03-3.8,0.04-5.71
	c5.46,1.3,10.89,0.74,16.26-0.43c2.01-0.44,2.76-0.03,2.57,2.02c-0.07,0.79-0.14,1.62,0.03,2.38c0.5,2.37-0.74,3.17-2.81,3.56
	c-5.8,1.1-11.67,1.24-17.54,1.33C231.46,318.09,231.46,317.93,231.51,317.78z M245.74,313.41c-0.25-0.95,0.43-2.52-1.07-2.65
	c-1.27-0.11-0.9,1.31-0.84,2.08c0.08,1.08-0.49,2.83,0.97,3C245.97,315.97,245.52,314.31,245.74,313.41z"/>
<path class="st10" d="M119.03,144.71c2.3-3.59,6.14-4.39,9.64-1.85c1.69,1.23,2.7,2.89,2.13,5.15c-0.7,2.79-3.25,5.13-5.92,5.65
	c-2.71,0.52-5.02-0.99-7.56-1.24C117.89,149.85,118.46,147.28,119.03,144.71z"/>
<path class="st9" d="M220.35,325.67c-5.82,0.69-11.58,1.99-17.49,1.7c-0.8-0.48-1.33-1.19-1.74-2.01c-0.65-1.3-0.47-2.01,1.18-2.16
	c5.75-0.55,11.49-1.22,17.08-2.75c1.63-0.45,2.3-0.05,1.76,1.73C220.79,323.32,220.6,324.51,220.35,325.67z"/>
<path class="st1" d="M122.33,309.86c-0.08,4.21-0.08,4.21-4.43,3.39c-4.04-0.76-5.82-3.66-4.76-7.64c0.26-0.96,0.71-1.32,1.69-1.12
	c1.17,0.24,2.35,0.42,3.53,0.63C122.41,305.84,122.41,305.84,122.33,309.86z"/>
<path class="st11" d="M101.27,239.65c0.96-2.63,3.55-3.86,5.14-5.95c2.39-3.12,4.76-6.26,7.15-9.38c1.72,4.21-1.34,7.91-1.31,11.95
	c0,0.53-0.63,0.65-1.14,0.78C107.82,237.9,104.55,238.78,101.27,239.65z"/>
<path class="st6" d="M214.49,426.74c-5.66-0.08-11.33,0.58-16.96-0.48c-2-0.38-3.94,0.33-5.9,0.53c-0.12-2.87,1.48-3.53,3.92-2.94
	c5.91,1.43,11.75,1.62,17.54-0.57c1.56-0.59,2.29-0.05,1.68,1.71C214.57,425.54,214.57,426.16,214.49,426.74z"/>
<path class="st11" d="M148.38,191.47c-3.11,0.22-5.91,1.58-8.85,2.42c1.24-5.55,5.95-8.49,11.16-6.95c0.84,0.25,1.89,0.3,1.78,1.57
	c-0.13,1.55-1.15,0.48-1.77,0.53C149.18,189.16,149,190.51,148.38,191.47z"/>
<path class="st11" d="M193.99,192.1c-3.71,0.74-7.37,0.75-10.91-0.8c0.49-1.32-1.39-3.11,0.34-3.98c1.95-0.98,4.14-1.21,6.18,0.31
	C191.3,188.91,193.5,189.64,193.99,192.1z"/>
<path class="st9" d="M117.29,322.04c-0.95-5.15-0.95-5.17,4.21-4.2c2.03,0.38,4.03,0.87,6.32,1.38c-1.22,1.51-1.87,3.04-2.28,4.66
	C122.79,323.27,120.04,322.66,117.29,322.04z"/>
<path class="st9" d="M160.29,355.65c-2.53-4.12-5.17-8.19-7.06-12.67c7.26,1,7.27,1,7.22,8.19
	C160.43,352.67,160.34,354.16,160.29,355.65z"/>
<path class="st5" d="M117.29,322.04c2.75,0.61,5.5,1.23,8.25,1.84c-0.77,2.61-2.62,4.16-5.07,5.09c-1.53,0.58-2.49,0.26-2.61-1.6
	C117.75,325.59,117.49,323.82,117.29,322.04z"/>
<path class="st10" d="M165.03,185.47c0.4,3.67-1.36,5.91-5.63,7.25c-1.24,0.39-2.48,0.58-3.77,0.47c0.26-0.42,0.78-0.88,0.72-1.25
	c-0.74-4.42,2.25-4.34,5.21-4.5C162.95,187.36,164.31,186.89,165.03,185.47z"/>
<path class="st5" d="M155.64,326.8c2.16,0.23,4.31,0.46,6.47,0.69c0.07,1.18,0.28,2.38,0.17,3.54c-0.1,1.1,1.21,2.89-0.12,3.11
	c-1.81,0.3-4.1-0.16-5.05-2.26C156.39,330.28,155.66,328.63,155.64,326.8z"/>
<path class="st2" d="M162.9,203.56c-0.07,0.49-0.05,0.62-0.11,0.67c-4.91,4.58-4.92,4.58-8.35-1.23c-0.58-0.98-1.11-1.99-1.54-3.23
	C155.92,201.81,158.83,204.09,162.9,203.56z"/>
<path class="st11" d="M215.12,316.71c0.13-3.07-0.21-6.08-1.33-8.97c0.89-0.05,1.79-0.11,2.68-0.14c0.39-0.01,1.08-0.07,1.14,0.09
	c1.07,2.55,0.45,5.25,0.43,7.86C218.03,317.19,216.18,316.48,215.12,316.71z"/>
<path class="st10" d="M92.53,142.18c3.01-2.9,6.22-3.7,9.06-2.2c0.85,0.44,2.06,0.92,1.66,2.1c-0.41,1.21-1.62,0.94-2.56,0.59
	c-2.62-0.96-5.21-0.96-7.8,0.09C92.77,142.56,92.65,142.37,92.53,142.18z"/>
<path class="st10" d="M94.4,174.29c0.82-1.3,1.19-3.04,3.15-3.24c0.66,0.43,1.4,0.78,1.94,1.32c0.72,0.72,2.46,1.17,1.92,2.25
	c-0.63,1.26-2.34,1.4-3.75,1.03C96.53,175.35,95.32,175.12,94.4,174.29z"/>
<path class="st11" d="M172.51,237.74c-0.85-6.98-0.74-13.95-0.39-20.93C172.9,223.78,173.38,230.76,172.51,237.74z"/>
<path class="st11" d="M95.72,188.57c1.17-2.54,2.19-5.11,1.79-8c4.4,0.89,4.45,0.93,1.89,4.52
	C98.42,186.46,97.89,188.41,95.72,188.57z"/>
<path class="st6" d="M233,309.39c-0.01,1.9,0,3.8-0.04,5.71c-0.02,0.96,0.1,2.02-1.13,2.44c-1.81-2.94-0.84-5.83,0.15-8.71
	C232.32,309.01,232.66,309.2,233,309.39z"/>
<path class="st1" d="M146.6,221.97c0.02,4.18,0.04,8.37,0.04,12.55c0,0.27-0.14,0.53-0.62,0.8c-0.78-4.42,0.06-8.85,0.23-13.27
	c0,0,0.19,0.02,0.19,0.02S146.6,221.97,146.6,221.97z"/>
<path class="st6" d="M81.26,169.59c-0.96,2.03-2.14,3.91-3.72,5.83c-0.56-3.11,1.24-5.66,3.75-5.75
	C81.29,169.67,81.26,169.59,81.26,169.59z"/>
<path class="st11" d="M146.6,221.97l-0.16,0.09c0,0-0.19-0.02-0.19-0.02c0.2-2.93,0.4-5.86,0.6-8.78
	C146.89,216.18,147.87,219.12,146.6,221.97z"/>
<path class="st8" d="M105.46,131.88c-0.4-1.39,0.08-2.14,0.7-3.06C106.7,130.07,106.25,130.87,105.46,131.88z"/>
<path class="st8" d="M104.96,133.02c0.57,1.21,0.11,2.01-0.64,2.97C103.82,134.75,104.28,133.95,104.96,133.02z"/>
<path class="st8" d="M110.69,175.81c0.67,0.11,1.11,0.46,1.26,1.14l-0.14,0.16c-0.67-0.12-1.12-0.48-1.23-1.18L110.69,175.81z"/>
<path class="st8" d="M109.44,175.28c-0.29-0.19-0.58-0.39-0.87-0.58c0.11-0.11,0.23-0.32,0.32-0.31c0.44,0.07,0.55,0.44,0.59,0.83
	C109.48,175.23,109.44,175.28,109.44,175.28z"/>
<path class="st8" d="M107.01,126.12c0.1-0.42,0.2-0.85,0.29-1.27c0.08,0.05,0.2,0.09,0.22,0.16c0.15,0.5-0.03,0.88-0.43,1.19
	L107.01,126.12z"/>
<path class="st8" d="M108.18,122.99c-0.13,0.07-0.24,0.14-0.36,0.21c-0.03-0.09-0.11-0.19-0.09-0.26c0.05-0.15,0.16-0.29,0.24-0.44
	C108.04,122.66,108.11,122.82,108.18,122.99z"/>
<path class="st8" d="M107.1,126.19c-0.11,0.42-0.21,0.84-0.32,1.26c-0.08-0.05-0.2-0.09-0.22-0.16c-0.15-0.5,0.03-0.89,0.45-1.18
	C107.01,126.12,107.1,126.19,107.1,126.19z"/>
<path class="st8" d="M113.69,178.21c0.23,0.09,0.45,0.19,0.68,0.28c-0.05,0.06-0.14,0.19-0.16,0.18c-0.21-0.12-0.41-0.25-0.61-0.38
	C113.61,178.29,113.69,178.21,113.69,178.21z"/>
<path class="st6" d="M231.51,317.78c-0.05,0.16-0.05,0.31,0,0.47c-0.53,0.16-1.03,0.14-1.46-0.26
	C230.54,317.91,231.02,317.84,231.51,317.78z"/>
<path class="st6" d="M227.04,64.46c0.13-0.13,0.27-0.26,0.4-0.39c0.05,0.09,0.1,0.18,0.15,0.28
	C227.4,64.38,227.22,64.42,227.04,64.46C227.03,64.45,227.04,64.46,227.04,64.46z"/>
<path class="st8" d="M110.58,175.94c-0.38-0.22-0.76-0.44-1.14-0.65c0,0,0.05-0.06,0.05-0.06c0.49,0.01,0.92,0.14,1.2,0.59
	C110.69,175.81,110.58,175.94,110.58,175.94z"/>
<path class="st8" d="M111.94,176.95c0.38,0.22,0.77,0.44,1.15,0.67l-0.09,0.09c-0.4-0.2-0.79-0.4-1.19-0.6
	C111.81,177.12,111.94,176.95,111.94,176.95z"/>
<path class="st10" d="M92.89,142.76c-0.42,0.15-1.05,0.42-1.2-0.01c-0.24-0.67,0.53-0.4,0.84-0.56
	C92.65,142.37,92.77,142.56,92.89,142.76z"/>
<path class="st12" d="M110.43,242.13c0.22-0.07,0.43-0.14,0.65-0.21c-0.02,0.24-0.04,0.48-0.06,0.73
	C110.83,242.47,110.63,242.3,110.43,242.13z"/>
<path class="st8" d="M113.09,177.62c0.2,0.2,0.4,0.39,0.6,0.59c0,0-0.08,0.08-0.08,0.09c-0.2-0.19-0.4-0.39-0.61-0.58
	C113,177.72,113.09,177.62,113.09,177.62z"/>
<path class="st2" d="M179.16,232.74c0.11,0.07,0.21,0.06,0.31-0.03c3.23,0.91,6.54,0.46,9.82,0.55c6.11,0.16,6.03,0.09,5.84,6.08
	c-0.05,1.68-0.71,1.99-2.15,1.92c-2.79-0.13-5.58-0.12-8.38-0.23c-5.89-0.22-5.89-0.24-5.62-5.92
	C179.02,234.32,179.1,233.53,179.16,232.74z"/>
<path class="st0" d="M184.16,273.19c-17.97,0.98-35.84-0.77-53.71-2.68C148.36,270.89,166.28,271.05,184.16,273.19z"/>
<path class="st6" d="M179.16,232.74c-0.06,0.79-0.14,1.58-0.18,2.38c-0.27,5.69-0.27,5.7,5.62,5.92c2.79,0.1,5.59,0.1,8.38,0.23
	c1.45,0.07,2.1-0.24,2.15-1.92c0.19-5.99,0.27-5.92-5.84-6.08c-3.27-0.08-6.59,0.36-9.82-0.55c4.99-1.32,10.04-0.68,15.07-0.38
	c0.95,0.06,1.95,0.68,1.96,1.92c0.02,2.29,0.03,4.58-0.08,6.86c-0.07,1.47-1.36,1.61-2.43,1.67c-4.69,0.23-9.37-0.07-14.02-0.63
	c-2.16-0.26-3.32-1.44-2.8-3.64C177.64,236.54,175.8,233.72,179.16,232.74z"/>
<path class="st0" d="M188.69,275.62c0.05-0.63-0.12-1.22,0.47-1.44c0.71-0.26,1.12,0.26,1.41,0.79c0.56,1.05,1.07,2.13,1.6,3.21
	c2.43,4.93,4.83,9.87,9.42,13.28c0.53,0.39,1.32,0.82,0.89,1.65c-0.55,1.05-1.4,0.42-2.08,0.13c-1.98-0.86-3.37-2.46-4.74-4.04
	C192.19,285.21,189.91,280.61,188.69,275.62z"/>
<path class="st0" d="M76.19,177.58c4.26,4.9,9.56,7.96,15.4,10.2c0.66,0.25,1.44,0.57,1.3,1.4c-0.14,0.81-0.93,0.89-1.66,0.9
	c-4.61,0.11-13.51-5.65-15.26-9.93C75.69,179.47,75.2,178.71,76.19,177.58z"/>
<path class="st0" d="M114.77,287.16c-1.12-0.14-1.28-0.76-0.89-1.5c0.37-0.69,0.83-1.39,1.4-1.92c3.6-3.37,6.61-7.18,9.14-11.41
	c0.42-0.69,0.84-1.92,1.96-1.26c0.85,0.5,0.24,1.46-0.04,2.17c-2.08,5.35-5.59,9.61-10.1,13.09
	C115.78,286.7,115.21,286.92,114.77,287.16z"/>
<path class="st6" d="M199.87,295.26c-5.61-0.18-12.03-7.98-13.26-15.88C190.33,285.25,193.37,291.69,199.87,295.26z"/>
<path class="st0" d="M211.6,231.45c-0.12-6.5,7.53-17.66,13.52-19.99C218.91,216.72,215.11,223.62,211.6,231.45z"/>
<path class="st6" d="M115,289.59c5.85-3.95,9.61-8.64,12.31-14.79C127.84,280.14,121,288.51,115,289.59z"/>
<path class="st6" d="M95.64,180.06c-0.53,2.61-1.04,5.23-4.02,6.36c0.92-2.37,1.07-5.21,4.07-6.31
	C95.68,180.11,95.64,180.06,95.64,180.06z"/>
<path class="st6" d="M86.05,174.68c-1.9,3.99-2.43,4.71-4.64,5.85c1.29-2.13,1.15-5.35,4.69-5.79
	C86.09,174.74,86.05,174.68,86.05,174.68z"/>
<path class="st0" d="M157.91,172.19c-6.81-0.51-12.98-3.91-17.37-10.28c-2.1-3.05-1.55-4.49,2.03-5.29
	c9.66-2.15,19.44-3.31,29.35-3.07c3.41,0.08,4.55,1.8,3.85,5.14C174.22,166.14,166.59,172.22,157.91,172.19z M156.92,157.91
	c-2.59-0.2-5.14,0.17-7.68,0.62c-1.98,0.35-5.61,0.17-5.54,1.35c0.12,2.07,2.5,3.79,4.76,4.78c4.05,3.99,9,4.32,14.13,3.14
	c5.19-1.2,7.78-5.2,9.62-9.8c0.67-1.69-0.62-1.54-1.6-1.47c-3.97,0.28-7.94,0.61-11.91,0.92c-0.53-0.17-0.98-0.04-1.36,0.36
	C157.2,157.83,157.06,157.86,156.92,157.91z"/>
<path class="st10" d="M189.94,154.24c-4.67,0.03-7.47-1.69-7.8-4.78c-0.37-3.49,2.33-6.34,6.7-7.3c2.62-0.57,5.05-0.66,7.42,0.93
	c3.68,2.47,3.18,6.74,0.39,9.19C194.83,153.86,193.23,154.22,189.94,154.24z"/>
<path class="st0" d="M133.4,131.46c0.13,1.59-0.2,3.56-0.61,5.51c-0.37,1.75-1.16,3.32-3.17,3.47c-2.22,0.17-3.21-1.47-3.66-3.28
	c-0.96-3.9-1.26-7.86-0.3-11.83c0.37-1.53,1.08-2.88,2.86-3.02c1.91-0.14,3.23,0.86,3.99,2.57
	C133.38,126.84,133.34,128.95,133.4,131.46z"/>
<path class="st0" d="M184.52,131.87c-0.06,2.31,0.04,4.51-0.63,6.64c-0.49,1.55-1.31,2.67-3.09,2.76c-1.78,0.09-2.88-0.91-3.32-2.45
	c-1.3-4.49-1.29-9.04-0.1-13.55c0.38-1.45,1.42-2.46,2.99-2.51c1.55-0.05,2.62,0.85,3.27,2.2
	C184.73,127.19,184.42,129.62,184.52,131.87z"/>
<path class="st0" d="M179.26,102.8c4.84,0.86,9.51,2.23,13.49,5.3c1.12,0.86,2.25,1.93,1.49,3.53c-0.87,1.82-2.45,1.38-3.9,0.86
	c-4.12-1.49-8.24-2.99-12.33-4.57c-1.29-0.5-2.72-1.16-2.22-3C176.25,103.19,177.52,102.58,179.26,102.8z"/>
<path class="st0" d="M133.77,102.66c2.51-0.09,4.09,0.28,4.47,2.22c0.38,1.92-1.14,2.59-2.59,3.09c-3.96,1.36-7.94,2.64-11.9,3.99
	c-1.31,0.45-2.62,0.75-3.45-0.65c-0.85-1.44,0.15-2.52,1.15-3.34C125.26,104.86,129.66,103.14,133.77,102.66z"/>
<path class="st1" d="M146.66,147.71c-1.68-1.33-1.54-2.97-0.43-4.44c1.19-1.59,2.89-2.57,4.94-1.73c1.75,0.72,3.07,2.09,2.85,4.09
	c-0.2,1.75-1.13,3.2-3.3,3.05c0.39-1.58-0.38-2.42-1.84-2.74C147.43,145.63,146.98,146.61,146.66,147.71z"/>
<path class="st0" d="M146.66,147.71c0.33-1.1,0.78-2.08,2.21-1.77c1.46,0.32,2.23,1.16,1.84,2.74
	C149.14,149.25,147.75,149.08,146.66,147.71z"/>
<path class="st6" d="M105.84,167.51c-0.14-0.68-0.4-1.35-0.4-2.03c-0.01-2.25,1.2-2.93,3.07-1.73c1.16,0.74,2.31,1.54,3.35,2.45
	c0.93,0.82,1.04,1.92,0.28,2.95c-0.2,0.27-0.65,0.5-0.99,0.49c-0.49-0.01-0.55-0.53-0.48-0.9c0.13-0.7,0.29-1.37-0.32-1.94
	c-0.87-0.83-1.78-1.84-2.99-1.82c-1.5,0.03-0.4,2.04-1.55,2.52C105.82,167.5,105.84,167.51,105.84,167.51z"/>
<path class="st8" d="M109.98,147.19c-0.97-0.56-1.93-1.12-2.9-1.68c1.8-0.78,2.45,0.38,3.18,1.39
	C110.16,147,110.07,147.09,109.98,147.19z"/>
<path class="st8" d="M110.77,147.6c0.24,0.12,0.47,0.25,0.71,0.37c-0.07,0.06-0.17,0.2-0.2,0.18c-0.23-0.12-0.44-0.27-0.66-0.42
	C110.62,147.73,110.77,147.6,110.77,147.6z"/>
<path class="st8" d="M110.26,146.9c0.17,0.23,0.34,0.47,0.51,0.7c0,0-0.14,0.13-0.14,0.13c-0.21-0.18-0.43-0.36-0.64-0.54
	C110.07,147.09,110.16,147,110.26,146.9z"/>
<path class="st0" d="M245.74,313.41c-0.22,0.91,0.23,2.56-0.94,2.43c-1.46-0.16-0.89-1.92-0.97-3c-0.06-0.77-0.42-2.18,0.84-2.08
	C246.17,310.89,245.49,312.46,245.74,313.41z"/>
<path class="st10" d="M158.7,157.45c3.97-0.31,7.94-0.64,11.91-0.92c0.97-0.07,2.27-0.22,1.6,1.47c-1.83,4.6-4.42,8.6-9.62,9.8
	c-5.14,1.18-10.08,0.86-14.13-3.14c2.82-2.25,5.64-4.49,8.46-6.74c0.14-0.04,0.28-0.08,0.42-0.1
	C157.87,157.95,158.33,157.85,158.7,157.45z"/>
<path class="st11" d="M156.92,157.91c-2.82,2.25-5.64,4.49-8.46,6.74c-2.26-0.99-4.64-2.7-4.76-4.77c-0.07-1.18,3.56-0.99,5.54-1.35
	C151.78,158.08,154.33,157.71,156.92,157.91z"/>
<path class="st11" d="M158.7,157.45c-0.38,0.41-0.84,0.5-1.36,0.36C157.72,157.41,158.17,157.27,158.7,157.45z"/>
</svg>
