<?xml version="1.0" encoding="utf-8"?>
<!-- Generator: Adobe Illustrator 24.0.2, SVG Export Plug-In . SVG Version: 6.00 Build 0)  -->
<svg version="1.1" id="Capa_1" xmlns="http://www.w3.org/2000/svg" xmlns:xlink="http://www.w3.org/1999/xlink" x="0px" y="0px"
	 viewBox="0 0 1000 1000" style="enable-background:new 0 0 1000 1000;" xml:space="preserve">
<style type="text/css">
	.st0{fill:#0A0907;}
	.st1{fill:#BA702E;}
	.st2{fill:#DE9F40;}
	.st3{fill:#222222;}
	.st4{fill:#3A4559;}
	.st5{fill:#FAD2B8;}
	.st6{fill:#2A3045;}
	.st7{fill:#878788;}
	.st8{fill:#2B2B2A;}
	.st9{fill:#424141;}
	.st10{fill:#BE987C;}
	.st11{fill:#DDBC9A;}
	.st12{fill:#0C0C0B;}
	.st13{fill:#4B4B4B;}
	.st14{fill:#525050;}
</style>
<path class="st0" d="M487.23,684.03c4.09-1.93,5.74-4.43,5.37-9.63c-2.32-32.34-4.71-64.69-6.01-97.1c-0.04-1.1-0.05-2.2-0.09-3.29
	c-0.07-1.9,0.28-3.68-1.79-5.2c-1.78-1.3-1.19-3.85-0.98-5.94c0.08-0.75,0.7-1.49-0.05-2.23c-3.54-3.51-3.56-8.03-3.64-12.56
	c-0.02-1,0.74-2.43-0.51-2.95c-1.08-0.44-1.94,0.78-2.79,1.42c-3.76,2.82-7.51,5.64-11.19,8.54c-1.25,0.98-2.51,1.42-4.11,1.4
	c-32.39-0.39-64.77-0.73-97.16-1.08c-1.6-0.02-3.18-0.48-4.73-0.53c-2.76-0.08-3.53-1.47-3.26-3.83c0.17-1.46-0.28-2.25-1.78-2.5
	c-2.14-0.35-2.92-1.86-3.6-3.82c-11.69-33.4-23.45-66.76-35.22-100.13c-1.43-4.04,0.74-7.42,5.05-7.61
	c23.77-1.05,47.53-2.05,71.3-3.14c2.66-0.12,3.4,1.43,4.06,3.46c4.93,15.27,9.89,30.53,14.86,45.79
	c3.64,11.18,7.36,22.33,10.95,33.53c0.49,1.52,1.2,1.84,2.7,1.97c3.43,0.31,6.18-0.12,8.6-3.14c2.58-3.23,6.59-4.35,10.67-4.79
	c1.54-0.17,2.67-0.48,3.19-2.4c0.79-2.88,3.27-4.49,5.91-5.56c7.34-2.96,14.05-7.12,20.99-10.85c1.61-0.87,2.55-1.98,3.23-3.65
	c4.48-11.09,8.85-22.23,13.69-33.16c3.3-7.45,6.98-14.76,11.88-21.35c1.25-1.69,2.72-3.25,4.75-4c1.64-0.61,1.58-1.87,1.47-3.17
	c-0.16-1.84-1.65-1.06-2.56-1.11c-3.2-0.15-6.37-0.49-9.51-1.14c-14.63-3.04-21.83-12.89-24.66-26.77
	c-1.56-7.65-2.42-15.37-2.4-23.18c0-1.01,0.4-2.11-0.94-2.85c-6.95-3.86-8.69-10.53-8.45-17.62c0.26-7.8,3.39-14.79,9.01-20.32
	c2.21-2.17,4.58-3.82,5.76-7.03c1.22-3.33,4.54-5.26,7.72-6.78c17.76-8.49,35.75-9.06,53.85-1.12c1.83,0.8,2.4,0.99,2.65-1.34
	c0.27-2.52,1.37-4.97,4.34-5.4c3.2-0.47,4.63,1.81,5.74,4.28c0.78,1.74,1.32,3.58,1.29,5.5c-0.02,1.57,0.43,2.06,2.07,1.77
	c2.29-0.4,4.59-0.04,6.77,0.79c2.19,0.84,3.94,2.19,4.03,4.7c0.1,2.49-1.76,3.62-3.76,4.51c-0.62,0.28-1.41,0.21-1.78,0.85
	c13.54,18.07,12.15,37.25,4,56.69c-3.1,7.38-8.16,13.47-15.68,17.03c-0.97,0.46-1.49,1.3-2.07,2.1c-1.65,2.26-3.4,4.43-5.64,6.17
	c-2.43,1.89-3.21,4.92-2.16,7.86c0.28,0.79,0.68,1.02,1.5,1.1c4.94,0.46,8.37,3.46,11.49,6.94c8.11,9.05,11.98,19.89,13.18,31.78
	c0.38,3.77,0.75,7.58,0.57,11.35c-1.22,24.6,0.85,49.06,2.67,73.54c0.34,4.6-0.51,8.74-3.44,12.33c-0.82,1.01-0.96,2.04-0.96,3.29
	c0.01,3.08,0.27,6.32-3.15,8.11c-0.8,0.42-0.51,1.22-0.54,1.88c-1.51,31.1-2,62.23-2.27,93.37c-0.05,5.77,0.37,11.53,0.58,17.3
	c-0.25,1.47,0.02,3.64-0.85,4.28c-3.24,2.4-2.27,5.81-2.74,8.86c-0.41,2.69-1.85,4.34-4.47,4.99c-9.9,2.46-19.94,3.05-30.03,1.71
	c-4.9-0.65-5.69-3.34-2.54-7.24c2.15-2.66,4.82-4.76,7.49-6.88c0.61-0.49,1.85-0.87,1.09-2.06c-0.96-1.51-0.72-3.29-1.25-4.89
	c-0.06-2.51,0.07-5.05-1.3-7.68c-0.42,2.2-0.46,4.23-2.4,5.43c-0.55,0.34-0.2,1.09-0.08,1.65c-0.09,0.79-0.19,1.58-0.27,2.37
	c-0.68,6.45-1.32,7.23-7.72,8.05c-6.54,0.84-13.13,1.2-19.73,1.01c-2-0.06-3.98-0.38-5.86-1.11c-3.71-1.43-4.28-4.07-1.47-6.83
	C485.11,685.82,486.19,684.95,487.23,684.03z M423.59,525.19c1.83,0,3.66,0,5.68,0c-1.86-2.26-3-2.2-5.62,0.02
	c-1.21-0.04-2.4-0.05-3.1,1.2c-0.65,0.08-1.03,0.43-1.13,1.08c-1.89,0.03-3.72,0.35-5.38,1.31c-0.21,0.11-0.42,0.23-0.63,0.34
	c0.24,0.07,0.48,0.14,0.73,0.21c3.59-0.17,7.4,1.67,10.71-1.16c0.65-0.05,1.06-0.39,1.19-1.03c1.05-0.41,1.39-0.9,0.03-1.3
	C425.23,525.63,424.27,525.95,423.59,525.19z M418.28,533.45c-0.02,0.23-0.04,0.47-0.07,0.7c-1.34,0.17-2.64,0.42-3.71,1.61
	c3.56,0.56,7,1.77,9.7-1.54c0.01-0.14,0.02-0.28,0.02-0.42c1.38-0.19,2.82-0.24,3.82-1.44c0.32-0.19,0.64-0.37,0.97-0.56
	c1.67-0.5,3.51-0.66,5.34-2.51c-3.82,0.34-7.12-0.83-10.09,1.28c-0.22,0.38-0.44,0.76-0.66,1.14
	C421.7,531.88,419.82,532.15,418.28,533.45z M409.08,531.2c-0.15,0.14-0.29,0.29-0.44,0.43c0.25,0.03,0.49,0.06,0.74,0.09
	c3.27-0.58,6.76,1.31,9.9-0.83C415.88,531.05,412.43,529.68,409.08,531.2z M409.81,534.86c1.52-0.09,3.01-0.24,4.26-1.76
	c-4-0.32-7.69-0.39-11.35,0.52c-1.08,0.01-1.73,0.53-1.92,1.61c-1.93,0.28-3.9,0.45-5.39,1.95c-0.71,0.07-1.12,0.46-1.21,1.18
	c-1.35,0.1-2.75,0.11-3.77,1.53c1.3,0.62,2.73-0.02,3.81,0.79c-0.02,0.21-0.03,0.41-0.05,0.62c-1.79,0.01-3.67,0.38-5.36-0.04
	c-2.62-0.65-4.53,0.37-6.48,1.71c4.57-0.22,9.31,2.18,13.63-0.99c0.64-0.06,1.07-0.36,1.21-1.02c0.4-0.01,0.79-0.03,1.19-0.04
	c0,0.53,0,1.06,0,1.6c-1.01,0.79-0.96,1.23,0.41,1.21c3.96-0.06,8.07,0.92,11.64-1.73c0.37-0.08,0.89-0.15,0.82-0.6
	c-0.09-0.6-0.5-0.36-0.81-0.1c-2.16,0-4.33-0.03-6.49,0.02c-1.68,0.04-2.39-0.64-1.98-2.33c0.57-0.06,1.02-0.28,1.22-0.86
	c1.91-0.45,3.93-0.61,5.41-2.14C409.3,535.92,409.71,535.56,409.81,534.86z M379.68,553.28c1.46,0.02,2.91,0.04,4.37,0.06
	c25.58,0.23,51.17,0.46,76.75,0.69c0.59,0.01,1.34,0.17,1.74-0.12c4.22-3.09,8.39-6.26,12.61-9.44c-2.29-1.87-3.96-1.27-5.59,0.29
	c-4.71,4.5-10.16,5.92-16.8,5.7c-23.57-0.79-47.16-0.96-70.75-1.36l-0.17,0c-4.79-0.09-9.59-0.2-14.38-0.27
	c-2.3-0.03-4.59-0.02-6.89,0.05c-0.89,0.02-1.83,0.09-1.82,1.43c0.01,1.13,0.37,2.04,1.49,2.29c1.06,0.24,2.18,0.27,3.27,0.3
	C368.91,553.03,374.3,553.15,379.68,553.28z M410.81,543.81c-1.21-0.1-1.62,0.57-1.6,1.66c-9.4-0.17-18.8-0.34-28.19-0.51
	c-0.06-0.67,0.03-1.53-0.87-1.6c-1.06-0.08-1.87,0.43-2.13,1.56c-1-0.03-2.39,0.9-2.84-0.51c-0.32-0.98,1.01-1.26,1.8-1.61
	c16.89-7.3,33.78-14.59,50.21-21.69c-2.63-0.23-5.67-0.34-8.8,1.03c-14.17,6.19-28.45,12.15-42.68,18.21
	c-4.33,1.84-8.64,3.71-12.96,5.57c0.51,0.65,0.86,0.69,1.21,0.7c30.78,0.03,61.54,1.13,92.32,1.68c3.86,0.07,6.63-0.89,9.16-3.91
	c-2.52-0.13-5.07,0.37-6.88-1.52c-1.05-1.1-2.27-1.54-3.66-1.76c0.01-0.4-0.1-0.74-0.51-0.9c-1.55-2.66-0.68-4.8,1.26-6.89
	c1.08-1.16,2.89-1.57,3.4-3.29l0.01-0.01c4.28-1.39,7.57-5.34,12.7-4.69c-5.01-0.66-9.91-0.96-14.81-1.13
	c-0.59-0.02-1.22,0.61-1.81,0.95c-5,2.87-9.99,5.78-15.02,8.59c-0.73,0.41-1.46,1.59-2.56,0.55c-0.1-1.37,1.15-1.45,1.91-1.98
	c2.26-1.55,4.92-2.48,7.35-4.66c-1.08,0.05-1.68,0.01-2.25,0.12c-7.08,1.31-13.01,5.33-19.43,8.22c-2.33,1.05,0.61,1.31,0.37,2.05
	C418.66,539.36,415.68,540.53,410.81,543.81z M459.98,534.71c-1.47,0.55-2.37,1.54-2.31,3.31c1.27-0.86,2.54-1.72,3.82-2.58
	c1.6-0.52,3.21-1.05,4.81-1.56c1.06-0.34,2.08-0.27,2.47,0.93c0.38,1.18-0.76,1.41-1.48,1.86c-1.99,1.24-4.43,1.78-5.99,3.76
	c1.2,1.4,2.59,0.6,3.67,0.26c4.05-1.28,8.01-1.25,12,0.18c1.53,0.55,3.14,0.55,4.74,0.43c1.49-0.12,2.25-0.53,1.13-2.19
	c-1.85-2.73-3.18-5.77-3.93-8.97c-0.39-1.67-1.17-1.83-2.67-1.89C469.82,528,464.71,530.82,459.98,534.71z M484.12,549.13
	c-0.39,1.59-0.22,3.19,0.09,4.75c0.74,3.7,3.45,6.76,6.06,7.21c15.62,2.67,31.37,3.02,47.17,2.58c5.79-0.16,11.58-0.37,17.37-0.46
	c0.95-0.01,2.68-0.72,2.39,1.49c-4.97,1.68-10.14,2.15-15.33,2.38c-17.69,0.79-35.34,0.95-52.75-3.1c-0.71-0.17-1.62-0.78-1.88,0.54
	c-0.18,0.94-0.08,1.85,1.01,2.2c1.8,0.58,3.6,1.23,5.44,1.61c13.88,2.9,27.99,2.63,42.05,2.92c6.21,0.13,12.35-0.38,18.48-1.43
	c3.14-0.54,4.36-1.99,3.79-5.05c-0.22-2.27,0.42-4.26,1.73-6.13c1.96-2.78,2.67-5.89,2.43-9.31c-0.9-12.89-1.96-25.78-2.23-38.71
	c-0.01-0.45,0.24-1.12-0.59-1.39c-1.43,6.15-3.44,12.05-6.22,17.68c-2.45,2.96-5.42,5.25-8.86,6.94
	c-11.68,5.73-23.93,9.99-36.49,13.18c-6.17,1.57-12.54,1.64-18.51-1.93C486.06,543.17,483.84,545.11,484.12,549.13z M517.77,421.6
	c0.3,1.37-0.28,2.52-1.5,2.83c-3.1,0.79-4.1,2.78-3.9,5.73c0.03,0.53-0.34,1.08-0.53,1.63c0.72,1.36,1.97,0.68,2.91,0.6
	c5.43-0.49,10.45-2.46,15.51-4.34c2.26-0.84,3.36-1.71,2.58-4.49c-0.89-3.16-1.28-6.68,1.99-9.01c3.01-2.14,4.84-5.28,7.24-7.94
	c0.49-0.54,0.74-1.07,0.62-1.88c-0.25-1.77-0.39-3.56-0.47-5.35c-0.03-0.74,0.02-1.41-0.89-1.62c-0.92-0.22-1.85-0.52-1.58-1.71
	c0.23-1.02,1.23-1.18,2.09-1.46c1.04-0.33,2.1-0.64,3.09-1.1c6.44-3.01,8.25-10.35,3.91-15.73c-3.04-3.76-7.96-3.16-9.85,1.26
	c-0.78,1.83-1.28,3.78-2.08,5.6c-0.9,2.05-2.06,4.19-4.72,3.84c-2.51-0.34-3.02-2.71-3.48-4.73c-0.71-3.13-0.79-6.33-0.66-9.53
	c0.05-1.19-0.19-1.75-1.56-1.9c-5.61-0.59-10.93-2.13-15.73-5.37c-0.68,4.79-1.82,5.64-6.59,5.07c-4.4-0.53-8.16-2.51-11.66-5.08
	c-6.16-4.53-10.76-10.33-13.87-17.36c-1.1,0.83-1.23,1.99-1.52,2.98c-4.9,17-4.16,33.94,1.05,50.69
	c2.71,8.73,8.83,14.32,17.78,16.56c5.94,1.48,11.97,2.29,18.1,1.26C515.34,420.83,516.65,420.62,517.77,421.6z M536.42,579.05
	c-0.73-3.22-2.66-4.2-6.01-4.17c-12.96,0.12-25.96,0.21-38.64-3.2c-1.71-0.46-1.79,0.1-1.68,1.54c0.47,6.55,0.86,13.11,1.25,19.66
	c0.6,10.13,1.41,20.26,1.73,30.4c0.53,17.12,3.18,34.1,3.11,51.25c-0.01,1.83,0.73,2.81,2.46,3.12c5.43,1,10.91,1.08,16.4,0.67
	c1.85-0.14,2.84-1.09,2.79-3.13c-0.05-1.78,0.2-3.57,0.37-5.35c0.45-4.75,1.39-9.51,1.27-14.24c-0.14-5.44-1.14-10.87-1.89-16.29
	c-1.68-12.12-3.35-24.24-5.22-36.33c-0.97-6.31-0.51-13.4-7.96-16.78c-1.41-0.64-1.19-2.15-0.38-3.4c4.79,0.63,9.46,4.67,10.38,9.28
	c2.03,10.17,3.38,20.44,4.78,30.71c2.81,20.63,5.96,41.21,7.66,61.97c0.16,1.9,0.84,3.07,2.79,3.15c6.57,0.28,13.1,1.48,19.72,0.33
	c1.96-0.34,2.77-0.96,2.71-3.01c-0.13-4.69,0.08-9.39-0.14-14.07c-0.33-7.08-0.7-14.17-0.31-21.24c1.3-23.6,0.53-47.27,2.22-70.86
	c0.11-0.68,0.19-1.37,0.34-2.04c0.51-2.33,0.22-3.51-2.76-2.87c-2.87,0.61-5.9,0.47-8.84,0.8c-1.6,0.18-4.07-0.91-4.59,0.75
	c-0.53,1.69,1.52,3.2,2.92,4.45c0.07,0.06,0.17,0.1,0.26,0.14c1.18,0.92,2.36,1.83,3.53,2.75c0.75,0.59,2.11,1.17,1.45,2.23
	c-0.66,1.06-1.8,0.14-2.64-0.32C540.75,583.48,538.82,580.99,536.42,579.05z M507.56,432.17c-0.54,0.98-0.72,1.48-1.05,1.85
	c-5.62,6.19-8.08,13.95-10.28,21.68c-5.41,18.96-7.52,38.52-9.62,58.05c-0.06,0.58-0.5,1.38,0.5,1.83
	c4.29-2.28,8.75-4.27,13.37-5.88c5.57-1.94,10.96-4.25,16.19-7c1.69-0.89,2.56-1.93,2.87-3.78c1.17-6.98,2.43-13.94,3.69-20.91
	c0.74-4.12,1.51-8.24,2.35-12.33c0.27-1.3,0.34-3.36,2.04-3.18c1.91,0.2,1.07,2.19,1.11,3.49c0,0.1-0.01,0.2-0.02,0.3
	c-1.47,11.48-3.72,22.82-5.8,34.2c-0.43,2.36-1.77,3.96-4.06,5.15c-6.21,3.25-12.63,5.93-19.2,8.34c-4.68,1.72-9.36,3.52-13.44,6.49
	c-3.91,2.84-4.75,5.61-3.15,10.13c1.07,3.02,2.64,5.8,4.27,8.55c1.61,2.72,4.04,4.12,7.06,4.47c4.79,0.56,9.62,0.74,14.28-0.66
	c11-3.29,21.81-7.07,32.34-11.71c5.86-2.58,9.37-6.71,11.55-12.52c6.36-16.94,8.14-34.48,7.03-52.37
	c-0.59-9.56-3.02-18.7-8.43-26.81c-2.56-3.82-5.34-7.49-9.49-9.8c-2.23-1.24-4.21-1.33-6.66,0.15c-6.23,3.74-13.16,5.72-20.38,6.53
	C511.79,436.77,509.23,436.08,507.56,432.17z M546.99,402.8c4.63-3.17,8.14-7.05,10.33-11.76c4.62-9.94,7.32-20.33,6.14-31.5
	c-1.04-9.8-3.8-18.69-11.63-25.33c-0.73-0.62-1.2-1.35-0.9-2.35c0.32-1.05,1.19-1.22,2.13-1.29c1.29-0.1,2.59-0.14,3.85-0.39
	c0.69-0.14,1.85-0.14,1.74-1.22c-0.09-0.9-1.12-1.13-1.87-1.24c-2.08-0.3-4.17-0.39-6.24,0.19c-2.32,0.65-3.43-0.19-3.35-2.64
	c0.08-2.32-0.51-4.54-1.13-6.75c-0.22-0.78-0.53-1.63-1.52-1.59c-1.04,0.04-1.04,1.08-1.3,1.78c-0.63,1.71,0.01,3.35,0.4,4.98
	c0.28,1.17,0.83,2.35-0.47,3.25c-1.42,0.97-2.36-0.32-3.09-1.01c-2.07-1.96-4.4-3.36-7.04-4.41c-14.83-5.88-29.67-5.38-44.34,0.32
	c-4.95,1.92-10.03,4.22-11.46,10.3c-0.1,0.42-0.58,0.86-0.99,1.07c-3.97,2.02-6.09,5.6-8.09,9.32c-3.93,7.33-4.69,14.72-0.45,22.2
	c0.42,0.75,0.75,1.98,1.77,1.73c0.93-0.23,0.78-1.46,0.91-2.33c1.02-6.72,2.67-13.28,5.55-19.47c0.54-1.16,1.02-2.62,2.58-2.58
	c1.54,0.04,2.08,1.46,2.48,2.68c1.61,4.91,4.34,9.15,7.6,13.1c3.8,4.6,8.63,7.64,14.23,9.53c0.85,0.29,1.82,0.61,2.54-0.15
	c0.75-0.8,0.18-1.68-0.18-2.5c-0.56-1.28-1.28-2.51-1.66-3.83c-0.33-1.13-0.46-2.49,0.89-3.17c1.19-0.6,2.1,0.17,2.88,1
	c5.83,6.29,13.27,8.98,21.62,9.48c2.21,0.13,3.02,1.29,3.18,3.17c0.13,1.49,0,2.99,0.08,4.49c0.12,2.06-0.48,4.25,1.16,6.5
	c0.61-1.77,1.11-3.17,1.57-4.57c1.91-5.77,6.31-8.04,12.17-6.01c5.2,1.8,7.7,6.07,8.35,11.12c0.73,5.7-1.74,10.31-6.67,13.41
	C545.47,398.42,545.35,398.66,546.99,402.8z M356.36,437.77c0,0.01,0,0.02,0,0.03c-11.48,0.53-22.96,1.06-34.45,1.59
	c-3.61,0.17-4.92,2.06-3.77,5.48c0.35,1.04,0.79,2.05,1.16,3.08c11.17,31.69,22.34,63.38,33.52,95.07c1.34,3.81,2.16,3.95,5.94,2.32
	c12.08-5.22,24.23-10.27,36.34-15.4c7.54-3.19,15.05-6.45,22.6-9.61c2.15-0.9,2.58-2.05,1.72-4.28c-1.64-4.28-2.95-8.68-4.37-13.05
	c-6.9-21.25-13.82-42.49-20.65-63.77c-0.73-2.27-1.7-3.06-4.21-2.92C378.94,436.94,367.65,437.31,356.36,437.77z M487.91,471.67
	c-0.42,0.85-0.88,1.68-1.24,2.56c-2.05,4.98-4.14,9.94-6.06,14.97c-1.05,2.76-2.75,4.73-5.35,6.13
	c-6.42,3.44-12.58,7.38-19.42,10.01c-1.29,0.5-2.55,1.18-3.69,1.96c-1.82,1.24-2.38,2.47-0.12,4.09c3.12,2.24,5.66,5.11,6.92,8.82
	c0.53,1.54,1.55,1.54,2.79,1.58c4.99,0.16,9.99,0.38,14.98,0.54c3.81,0.12,5.49-1.43,5.83-5.3c0.95-10.83,2.43-21.6,3.89-32.37
	C487.01,480.37,488.4,476.19,487.91,471.67z M525.39,701.87c6.38,0.01,12.7-0.68,18.99-1.74c4.56-0.77,4.39-0.82,4.73-5.41
	c0.16-2.16-0.57-2.45-2.44-2.43c-4.98,0.08-9.95,0.18-14.92-0.49c-1.28-0.17-2.79-1.1-4.02-0.02c-2.99,2.62-5.9,5.34-8.81,8.06
	c-1.27,1.19-0.8,1.94,0.78,2.01C521.59,701.94,523.49,701.87,525.39,701.87z M495.07,691.19c5.24-0.43,10.48-0.85,15.71-1.3
	c3.61-0.31,5.11-2.11,4.49-6.18c-0.47-3.16-2.88-0.49-4.3-0.99c-0.53-0.19-1.2,0.05-1.78-0.04c-3.53-0.55-7.14-0.31-10.64-1.14
	c-0.81-0.19-1.79-0.86-2.51,0.04c-2.32,2.92-5.57,4.74-8.31,7.17c-0.37,0.33-0.88,0.59-0.73,1.16c0.16,0.61,0.76,0.56,1.24,0.58
	C490.53,690.57,492.75,691.46,495.07,691.19z M441.75,524.73c4.88-0.25,8.77-1.7,12.62-3.35c1.17-0.5,0.76-1.06,0.39-1.79
	c-2.51-4.92-5.96-6.51-11.37-5.64c-5.3,0.85-8.56,4.14-11.56,8.68c2.74,0.39,4.45-0.84,6.05-2.07c2.16-1.67,4.62-2.25,7.24-2.45
	c0.74-0.05,1.49,0.15,1.79,0.83c0.34,0.76-0.29,1.31-0.8,1.78C444.83,521.89,443.12,522.6,441.75,524.73z M406.43,539.4
	c4.15,1.76,8.62,1.01,11.78-2.03C414.06,537.22,409.98,536.5,406.43,539.4z M430.05,527.98c3.19,0.06,5.66,1.6,8.24-0.91
	C435.52,527.2,433.11,526.4,430.05,527.98z"/>
<path class="st1" d="M419.67,365.24c1.66,0.12,3.43,0.71,5.11,1.59c0.98,0.51,1.53,1.31,1.16,2.43c-0.37,1.14-1.32,1.44-2.39,1.18
	c-1.83-0.45-3.63-1-5.22-2.05c-0.77-0.5-1.48-1.16-1.16-2.18C417.53,365.14,418.53,365.24,419.67,365.24z"/>
<path class="st1" d="M423.06,387.44c-1.52-0.08-3.44,0.09-3.2-1.84c0.28-2.19,2.49-2.21,4.25-2.3c1.32-0.07,2.99,0.15,2.89,1.76
	C426.86,387.49,424.62,387.2,423.06,387.44z"/>
<path class="st1" d="M426.85,399.34c-1.17,0.03-2.1-0.4-2-1.44c0.23-2.28,2.09-2.93,3.99-3.31c0.96-0.19,1.98,0.19,1.85,1.33
	C430.43,398.17,428.53,398.76,426.85,399.34z"/>
<path class="st2" d="M507.56,432.17c1.67,3.91,4.23,4.6,7.08,4.28c7.22-0.81,14.15-2.79,20.38-6.53c2.45-1.47,4.43-1.39,6.66-0.15
	c4.15,2.31,6.93,5.97,9.49,9.8c5.42,8.1,7.84,17.25,8.43,26.81c1.1,17.89-0.68,35.43-7.03,52.37c-2.18,5.81-5.69,9.94-11.55,12.52
	c-10.53,4.64-21.34,8.43-32.34,11.71c-4.67,1.39-9.5,1.21-14.28,0.66c-3.01-0.35-5.45-1.75-7.06-4.47c-1.63-2.75-3.2-5.53-4.27-8.55
	c-1.6-4.52-0.76-7.29,3.15-10.13c4.08-2.97,8.76-4.78,13.44-6.49c6.57-2.41,12.99-5.1,19.2-8.34c2.29-1.2,3.62-2.79,4.06-5.15
	c2.08-11.37,4.33-22.72,5.8-34.2c0.01-0.1,0.03-0.2,0.02-0.3c-0.05-1.3,0.8-3.29-1.11-3.49c-1.7-0.18-1.77,1.88-2.04,3.18
	c-0.85,4.1-1.61,8.22-2.35,12.33c-1.26,6.96-2.52,13.93-3.69,20.91c-0.31,1.85-1.18,2.89-2.87,3.78c-5.23,2.74-10.62,5.05-16.19,7
	c-4.62,1.61-9.08,3.6-13.37,5.88c-1-0.44-0.56-1.25-0.5-1.83c2.1-19.53,4.21-39.09,9.62-58.05c2.21-7.73,4.66-15.49,10.28-21.68
	C506.85,433.65,507.02,433.15,507.56,432.17z M534.77,505.47c-1.43-2.36-8.23-4.21-10.37-2.8c-0.7,0.46-0.32,1.02,0.02,1.53
	c0.4,0.41,0.81,0.83,1.21,1.24c1.88,2.41,4.64,3.45,7.3,4.6c1.09,0.47,2.13,0.36,2.57-1.02
	C536.88,507.5,536.16,506.42,534.77,505.47z"/>
<path class="st3" d="M546.99,402.8c-1.65-4.13-1.52-4.37,1.8-6.46c4.93-3.11,7.4-7.71,6.67-13.41c-0.65-5.05-3.15-9.32-8.35-11.12
	c-5.86-2.03-10.25,0.24-12.17,6.01c-0.47,1.4-0.96,2.79-1.57,4.57c-1.64-2.25-1.04-4.45-1.16-6.5c-0.09-1.49,0.05-3-0.08-4.49
	c-0.17-1.88-0.97-3.03-3.18-3.17c-8.35-0.5-15.79-3.19-21.62-9.48c-0.77-0.83-1.68-1.6-2.88-1c-1.35,0.68-1.22,2.04-0.89,3.17
	c0.39,1.33,1.1,2.56,1.66,3.83c0.36,0.81,0.92,1.7,0.18,2.5c-0.71,0.76-1.69,0.44-2.54,0.15c-5.6-1.89-10.43-4.93-14.23-9.53
	c-3.26-3.95-5.99-8.19-7.6-13.1c-0.4-1.22-0.94-2.64-2.48-2.68c-1.56-0.04-2.05,1.42-2.58,2.58c-2.88,6.2-4.53,12.75-5.55,19.47
	c-0.13,0.88,0.02,2.1-0.91,2.33c-1.02,0.25-1.34-0.98-1.77-1.73c-4.24-7.48-3.47-14.87,0.45-22.2c1.99-3.72,4.12-7.3,8.09-9.32
	c0.41-0.21,0.89-0.66,0.99-1.07c1.44-6.09,6.51-8.38,11.46-10.3c14.67-5.7,29.51-6.21,44.34-0.32c2.64,1.05,4.97,2.44,7.04,4.41
	c0.73,0.69,1.67,1.99,3.09,1.01c1.3-0.89,0.75-2.08,0.47-3.25c-0.39-1.64-1.03-3.27-0.4-4.98c0.26-0.7,0.26-1.74,1.3-1.78
	c0.98-0.04,1.29,0.8,1.52,1.59c0.63,2.21,1.21,4.43,1.13,6.75c-0.08,2.45,1.04,3.29,3.35,2.64c2.07-0.58,4.16-0.49,6.24-0.19
	c0.75,0.11,1.78,0.34,1.87,1.24c0.1,1.08-1.05,1.08-1.74,1.22c-1.26,0.25-2.56,0.29-3.85,0.39c-0.94,0.07-1.81,0.24-2.13,1.29
	c-0.3,1,0.16,1.73,0.9,2.35c7.83,6.64,10.58,15.53,11.63,25.33c1.19,11.17-1.51,21.55-6.14,31.5
	C555.14,395.75,551.62,399.62,546.99,402.8z"/>
<path class="st4" d="M553.83,579.09c-1.69,23.59-0.93,47.25-2.22,70.86c-0.39,7.07-0.02,14.16,0.31,21.24
	c0.22,4.68,0,9.38,0.14,14.07c0.06,2.05-0.75,2.67-2.71,3.01c-6.61,1.14-13.15-0.05-19.72-0.33c-1.95-0.08-2.63-1.25-2.79-3.15
	c-1.7-20.76-4.85-41.34-7.66-61.97c-1.4-10.27-2.75-20.54-4.78-30.71c-0.92-4.61-5.58-8.66-10.38-9.28
	c-1.52-3.97-1.34-4.5,1.56-4.25c9.13,0.78,18.27,1.19,27.43,1.14c1.16-0.01,2.42,0.34,3.41-0.64c2.4,1.94,4.33,4.43,7.08,5.94
	c0.85,0.46,1.98,1.38,2.64,0.32c0.67-1.06-0.7-1.64-1.45-2.23c-1.17-0.93-2.35-1.84-3.53-2.75
	C545.32,579.15,549.57,579.09,553.83,579.09z M544.85,620.29c0.17,6.17-0.15,12.34,0.5,18.49c0.08,0.8-0.38,2.19,0.87,2.16
	c1.09-0.03,0.88-1.38,0.88-2.23c0.08-10.95,0.16-21.89-0.52-32.83c-0.05-0.76,0.12-1.92-0.91-1.89c-1.02,0.03-0.8,1.21-0.81,1.96
	C544.84,610.73,544.85,615.51,544.85,620.29z M546.45,646.66c-0.21,0-0.42,0-0.63,0c0,6.89,0,13.78,0,20.68
	c0.21-0.01,0.42-0.01,0.63-0.02C546.45,660.43,546.45,653.55,546.45,646.66z M545.51,587.85c-0.73,3.52-0.88,7-0.49,10.5
	c0.03,0.31,0.41,0.72,0.73,0.84c0.42,0.16,0.76-0.19,0.77-0.63C546.55,594.96,546.84,591.35,545.51,587.85z M547.37,680.53
	c-0.56-0.87,0.66-2.77-0.97-2.89c-1.43-0.11-0.95,1.69-0.92,2.66c0.03,1.16-0.65,3.1,1.06,3.16
	C547.8,683.5,546.97,681.63,547.37,680.53z"/>
<path class="st5" d="M517.77,421.6c-1.11-0.98-2.43-0.77-3.71-0.56c-6.14,1.02-12.16,0.22-18.1-1.26
	c-8.95-2.24-15.07-7.83-17.78-16.56c-5.21-16.75-5.95-33.69-1.05-50.69c0.29-1,0.41-2.15,1.52-2.98
	c3.11,7.03,7.71,12.82,13.87,17.36c3.5,2.58,7.27,4.56,11.66,5.08c4.77,0.57,5.91-0.27,6.59-5.07c4.8,3.24,10.12,4.78,15.73,5.37
	c1.36,0.14,1.61,0.71,1.56,1.9c-0.14,3.2-0.06,6.41,0.66,9.53c0.46,2.03,0.97,4.4,3.48,4.73c2.66,0.36,3.82-1.79,4.72-3.84
	c0.8-1.82,1.3-3.77,2.08-5.6c1.89-4.42,6.81-5.02,9.85-1.26c4.34,5.38,2.53,12.72-3.91,15.73c-0.99,0.46-2.05,0.77-3.09,1.1
	c-0.86,0.28-1.86,0.43-2.09,1.46c-0.27,1.19,0.66,1.5,1.58,1.71c0.91,0.21,0.85,0.88,0.89,1.62c0.08,1.79,0.22,3.58,0.47,5.35
	c0.12,0.81-0.13,1.34-0.62,1.88c-2.4,2.66-4.23,5.8-7.24,7.94c-3.28,2.33-2.88,5.85-1.99,9.01c0.78,2.78-0.32,3.65-2.58,4.49
	c-5.06,1.88-10.08,3.85-15.51,4.34c-0.94,0.09-2.19,0.76-2.91-0.6c5-1.86,8.78-5.23,11.79-9.52c0.49-0.7,1.17-1.58,0.47-2.42
	c-0.63-0.75-1.51-0.1-2.2,0.13C520.5,420.44,519.14,421.06,517.77,421.6z M484.84,384.96c-0.12-2.28-0.34-4.25-1.18-6.08
	c-0.35-0.77-0.93-1.33-1.81-1.32c-0.89,0.01-1.61,0.57-1.74,1.37c-0.53,3.1-0.3,6.18,1.48,8.85c0.96,1.43,2.6,0.97,3.07-0.75
	C484.87,386.28,484.8,385.45,484.84,384.96z"/>
<path class="st6" d="M536.42,579.05c-0.99,0.98-2.25,0.64-3.41,0.64c-9.16,0.05-18.3-0.36-27.43-1.14
	c-2.89-0.25-3.08,0.29-1.56,4.25c-0.8,1.25-1.02,2.76,0.38,3.4c7.45,3.38,6.98,10.47,7.96,16.78c1.87,12.09,3.53,24.21,5.22,36.33
	c0.75,5.42,1.75,10.85,1.89,16.29c0.12,4.73-0.82,9.49-1.27,14.24c-0.17,1.78-0.42,3.57-0.37,5.35c0.05,2.04-0.94,2.99-2.79,3.13
	c-5.49,0.41-10.96,0.33-16.4-0.67c-1.74-0.32-2.47-1.29-2.46-3.12c0.07-17.15-2.59-34.13-3.11-51.25
	c-0.31-10.14-1.12-20.27-1.73-30.4c-0.39-6.56-0.78-13.11-1.25-19.66c-0.1-1.44-0.02-2,1.68-1.54c12.68,3.4,25.67,3.32,38.64,3.2
	C533.76,574.86,535.69,575.83,536.42,579.05z"/>
<path class="st2" d="M553.14,526.9c2.77-5.63,4.79-11.53,6.22-17.68c0.83,0.27,0.58,0.94,0.59,1.39
	c0.28,12.93,1.33,25.82,2.23,38.71c0.24,3.42-0.48,6.53-2.43,9.31c-1.32,1.87-1.96,3.86-1.73,6.13c-0.27-0.02-0.54-0.05-0.82-0.07
	c0.28-2.2-1.44-1.5-2.39-1.49c-5.79,0.09-11.58,0.3-17.37,0.46c-15.79,0.44-31.54,0.09-47.17-2.58c-2.62-0.45-5.32-3.51-6.06-7.21
	c-0.31-1.56-0.48-3.16-0.09-4.75c1.42-0.08,2.74,0.23,4.06,0.78c6,2.49,12.14,3.61,18.68,2.32c4.44-0.87,8.69-2.27,12.87-3.84
	c9.13-3.44,18.41-6.66,26.53-12.25C549.5,533.9,552.79,531.42,553.14,526.9z"/>
<path class="st7" d="M356.36,437.77c11.28-0.46,22.57-0.83,33.85-1.45c2.5-0.14,3.48,0.65,4.21,2.92
	c6.82,21.27,13.75,42.52,20.65,63.77c1.42,4.36,2.73,8.77,4.37,13.05c0.86,2.23,0.43,3.38-1.72,4.28
	c-7.55,3.16-15.06,6.41-22.6,9.61c-12.11,5.13-24.26,10.19-36.34,15.4c-3.78,1.63-4.6,1.49-5.94-2.32
	c-11.18-31.69-22.34-63.38-33.52-95.07c-0.36-1.03-0.81-2.04-1.16-3.08c-1.15-3.42,0.16-5.31,3.77-5.48
	c11.48-0.53,22.96-1.06,34.45-1.59C356.36,437.79,356.36,437.78,356.36,437.77z M418.23,516.84c-0.14-0.44-0.29-0.92-0.45-1.39
	c-8.23-24.69-16.48-49.37-24.66-74.08c-0.63-1.9-1.58-2.41-3.47-2.29c-7.28,0.45-14.56,0.78-21.85,1.14
	c-14.27,0.71-28.54,1.46-42.81,2.07c-2.8,0.12-3.08,1.04-2.16,3.46c2.52,6.61,4.85,13.3,7.21,19.97
	c8.56,24.25,17.13,48.49,25.58,72.78c0.94,2.71,1.97,3.33,4.68,2.24c9.63-3.88,19.35-7.53,29.02-11.28
	c8.83-3.43,17.66-6.87,26.47-10.37C416.8,518.69,418.25,518.54,418.23,516.84z"/>
<path class="st7" d="M454.89,541.12c1.4,0.22,2.61,0.66,3.66,1.76c1.81,1.9,4.37,1.39,6.88,1.52c-2.53,3.02-5.29,3.98-9.16,3.91
	c-30.77-0.55-61.53-1.66-92.32-1.68c-0.35,0-0.7-0.05-1.21-0.7c4.32-1.86,8.63-3.73,12.96-5.57c14.23-6.05,28.51-12.01,42.68-18.21
	c3.13-1.37,6.17-1.26,8.8-1.03c-16.44,7.1-33.33,14.39-50.21,21.69c-0.8,0.34-2.12,0.63-1.8,1.61c0.45,1.4,1.85,0.47,2.84,0.51
	c1,0.01,2,0.02,3,0.04c9.4,0.17,18.8,0.34,28.19,0.51c3.2,0.13,6.41,0.43,9.6-0.14c6.36-2.77,12.21-6.48,18.24-9.85
	c0.43-0.24,1.21-0.52,0.43-1.25l0.05,0.08c1.11,1.04,1.83-0.14,2.56-0.55c5.04-2.81,10.02-5.72,15.02-8.59
	c0.6-0.34,1.22-0.97,1.81-0.95c4.9,0.17,9.8,0.47,14.81,1.13c-5.13-0.65-8.42,3.3-12.7,4.69c-0.22-0.21-0.44-0.41-0.66-0.62
	c-2.1-1.16-4.25-1.07-6.4-0.83c-0.01,0.26-0.02,0.53-0.03,0.79c2.16,0,4.31,0,6.47,0c0.21,0.22,0.41,0.45,0.61,0.67
	c-0.51,1.73-2.32,2.13-3.4,3.29c-1.94,2.09-2.81,4.23-1.26,6.89c-7.08,0.46-14.15-0.92-21.24-0.07
	C440.39,540.56,447.59,541.95,454.89,541.12z"/>
<path class="st1" d="M487.91,471.67c0.49,4.52-0.89,8.7-1.47,12.98c-1.47,10.77-2.94,21.54-3.89,32.37
	c-0.34,3.87-2.02,5.42-5.83,5.3c-4.99-0.16-9.99-0.38-14.98-0.54c-1.24-0.04-2.26-0.04-2.79-1.58c-1.26-3.71-3.8-6.58-6.92-8.82
	c-2.26-1.62-1.7-2.85,0.12-4.09c1.15-0.78,2.4-1.46,3.69-1.96c6.84-2.63,13-6.57,19.42-10.01c2.61-1.4,4.3-3.37,5.35-6.13
	c1.92-5.03,4.02-9.99,6.06-14.97C487.02,473.35,487.49,472.52,487.91,471.67z"/>
<path class="st7" d="M382.02,549.08c23.58,0.41,47.18,0.58,70.75,1.36c6.64,0.22,12.09-1.2,16.8-5.7c1.63-1.56,3.3-2.16,5.59-0.29
	c-4.22,3.18-8.39,6.35-12.61,9.44c-0.4,0.29-1.15,0.13-1.74,0.12c-25.58-0.22-51.17-0.46-76.75-0.69
	C384.16,551.54,383.75,550,382.02,549.08z M391.75,550.78c-0.97,0.8-3.27-0.88-3.34,1.01c-0.07,1.75,2.21,0.96,3.42,0.97
	c1.17,0.01,3.34,0.97,3.36-0.92C395.21,550.21,393.05,551.32,391.75,550.78z"/>
<path class="st1" d="M553.14,526.9c-0.35,4.52-3.64,7-6.88,9.23c-8.12,5.59-17.4,8.81-26.53,12.25c-4.18,1.57-8.44,2.97-12.87,3.84
	c-6.54,1.29-12.68,0.17-18.68-2.32c-1.33-0.55-2.64-0.86-4.06-0.78c-0.28-4.01,1.94-5.96,5.15-4.03c5.97,3.58,12.34,3.5,18.51,1.93
	c12.56-3.19,24.81-7.45,36.49-13.18C547.72,532.15,550.69,529.86,553.14,526.9z"/>
<path class="st1" d="M557.2,564.69c0.27,0.02,0.54,0.05,0.82,0.07c0.57,3.06-0.65,4.51-3.79,5.05c-6.13,1.06-12.27,1.56-18.48,1.43
	c-14.07-0.29-28.17-0.02-42.05-2.92c-1.85-0.39-3.64-1.03-5.44-1.61c-1.09-0.35-1.19-1.27-1.01-2.2c0.26-1.32,1.17-0.7,1.88-0.54
	c17.4,4.05,35.06,3.89,52.75,3.1C547.06,566.84,552.23,566.37,557.2,564.69z"/>
<path class="st8" d="M525.39,701.87c-1.9,0-3.79,0.07-5.68-0.02c-1.58-0.07-2.06-0.81-0.78-2.01c2.9-2.72,5.82-5.44,8.81-8.06
	c1.23-1.08,2.74-0.16,4.02,0.02c4.97,0.68,9.94,0.57,14.92,0.49c1.87-0.03,2.6,0.26,2.44,2.43c-0.34,4.59-0.17,4.64-4.73,5.41
	C538.09,701.19,531.77,701.88,525.39,701.87z"/>
<path class="st3" d="M495.07,691.19c-2.33,0.26-4.54-0.62-6.82-0.69c-0.48-0.01-1.08,0.03-1.24-0.58c-0.15-0.57,0.36-0.83,0.73-1.16
	c2.73-2.43,5.98-4.25,8.31-7.17c0.72-0.9,1.7-0.23,2.51-0.04c3.5,0.83,7.11,0.59,10.64,1.14c0.58,0.09,1.25-0.15,1.78,0.04
	c1.43,0.5,3.83-2.17,4.3,0.99c0.61,4.07-0.88,5.87-4.49,6.18C505.55,690.35,500.31,690.76,495.07,691.19z"/>
<path class="st5" d="M459.98,534.71c4.72-3.89,9.83-6.71,16.25-6.45c1.5,0.06,2.28,0.21,2.67,1.89c0.75,3.2,2.08,6.24,3.93,8.97
	c1.12,1.66,0.37,2.07-1.13,2.19c-1.6,0.12-3.21,0.12-4.74-0.43c-3.99-1.44-7.94-1.46-12-0.18c-1.08,0.34-2.47,1.14-3.67-0.26
	c1.56-1.98,4-2.52,5.99-3.76c0.72-0.45,1.86-0.68,1.48-1.86c-0.38-1.19-1.41-1.26-2.47-0.93c-1.61,0.51-3.21,1.04-4.81,1.56
	C460.99,535.2,460.49,534.96,459.98,534.71z"/>
<path class="st5" d="M441.75,524.73c1.36-2.12,3.08-2.84,4.36-4.01c0.51-0.47,1.14-1.02,0.8-1.78c-0.3-0.68-1.05-0.89-1.79-0.83
	c-2.62,0.19-5.08,0.78-7.24,2.45c-1.6,1.24-3.31,2.47-6.05,2.07c2.99-4.54,6.26-7.83,11.56-8.68c5.42-0.87,8.86,0.72,11.37,5.64
	c0.37,0.73,0.78,1.29-0.39,1.79C450.52,523.03,446.63,524.48,441.75,524.73z"/>
<path class="st9" d="M410.81,543.81c4.87-3.28,7.85-4.45,14.68-5.76c0.24-0.74-2.7-1-0.37-2.05c6.41-2.89,12.35-6.91,19.43-8.22
	c0.57-0.11,1.17-0.07,2.25-0.12c-2.43,2.19-5.1,3.11-7.35,4.66c-0.76,0.53-2.02,0.61-1.92,1.98c0,0-0.05-0.08-0.05-0.07
	c-0.72-0.19-1.37,0.02-2,0.34c-5.92,3.01-11.84,6.01-17.35,9.76C415.69,544.16,413.25,543.98,410.81,543.81z"/>
<path class="st6" d="M553.83,579.09c-4.26,0-8.51,0.05-12.66,1.23c-0.09-0.05-0.19-0.08-0.26-0.14c-1.41-1.25-3.45-2.76-2.92-4.45
	c0.52-1.66,2.99-0.57,4.59-0.75c2.94-0.33,5.97-0.19,8.84-0.8c2.97-0.63,3.27,0.54,2.76,2.87
	C554.03,577.72,553.95,578.41,553.83,579.09z"/>
<path class="st7" d="M379.68,553.28c-5.39-0.13-10.78-0.25-16.16-0.4c-1.09-0.03-2.21-0.06-3.27-0.3c-1.12-0.26-1.48-1.16-1.49-2.29
	c-0.01-1.34,0.93-1.41,1.82-1.43c2.29-0.06,4.59-0.08,6.89-0.05c4.79,0.07,9.59,0.18,14.38,0.27
	C379.72,549.76,379.49,551.41,379.68,553.28z M370.52,552.4c1.07-0.48,3.11,0.8,3.11-1.07c0-1.76-2.02-1-3.14-1
	c-1.12,0-3.16-0.74-3.12,1.03C367.41,553.12,369.46,551.9,370.52,552.4z"/>
<path class="st10" d="M517.77,421.6c1.38-0.55,2.73-1.16,4.14-1.62c0.7-0.23,1.57-0.88,2.2-0.13c0.7,0.84,0.02,1.71-0.47,2.42
	c-3.02,4.3-6.8,7.67-11.79,9.52c0.19-0.54,0.56-1.1,0.53-1.63c-0.19-2.96,0.8-4.94,3.9-5.73
	C517.48,424.12,518.07,422.97,517.77,421.6z"/>
<path class="st9" d="M394.26,540.67c-1.09-0.8-2.51-0.16-3.81-0.79c1.02-1.42,2.41-1.43,3.77-1.53c2.59,0.21,5.18,0.42,7.77,0.63
	c-0.41,1.68,0.29,2.37,1.98,2.32c2.16-0.05,4.33-0.02,6.49-0.02c0,0.23,0,0.46,0,0.7c-3.57,2.65-7.68,1.67-11.64,1.73
	c-1.37,0.02-1.41-0.42-0.41-1.21c0.62-0.33,1.71-0.34,1.49-1.34c-0.13-0.62-0.95-0.34-1.5-0.26c-0.4,0.01-0.79,0.03-1.19,0.04
	C396.23,540.86,395.24,540.77,394.26,540.67z"/>
<path class="st9" d="M406.43,539.4c3.55-2.9,7.64-2.18,11.78-2.03C415.04,540.41,410.58,541.17,406.43,539.4z"/>
<path class="st9" d="M396,541.97c-4.32,3.17-9.06,0.77-13.63,0.99c1.96-1.35,3.87-2.36,6.48-1.71c1.69,0.42,3.57,0.06,5.36,0.04
	C394.84,541.44,395.58,541.28,396,541.97z"/>
<path class="st8" d="M454.89,541.12c-7.3,0.82-14.5-0.57-21.75-0.97c7.09-0.85,14.16,0.53,21.24,0.07
	C454.79,540.39,454.89,540.72,454.89,541.12z"/>
<path class="st9" d="M408.61,535.99c-1.48,1.53-3.5,1.69-5.41,2.14c-2.59-0.32-5.19-0.63-7.78-0.94c1.49-1.5,3.46-1.67,5.39-1.95
	C403.41,535.48,406.01,535.74,408.61,535.99z"/>
<path class="st9" d="M414.03,528.81c1.67-0.96,3.49-1.28,5.38-1.31c1.81,0.23,3.61,0.46,5.42,0.7c-3.3,2.83-7.12,0.99-10.71,1.16
	C414.06,529.18,414.03,528.99,414.03,528.81z"/>
<path class="st9" d="M424.2,534.21c-2.7,3.31-6.15,2.1-9.7,1.54c1.07-1.19,2.37-1.44,3.71-1.61
	C420.21,534.17,422.2,534.19,424.2,534.21z"/>
<path class="st11" d="M522.95,683.89c-1.22-0.45-2.47-0.69-3.77-0.59c-0.12-0.57-0.47-1.31,0.08-1.65c1.93-1.2,1.98-3.23,2.4-5.43
	C523.02,678.84,522.89,681.38,522.95,683.89z"/>
<path class="st9" d="M402.73,533.62c3.66-0.91,7.36-0.85,11.35-0.52c-1.25,1.52-2.75,1.67-4.26,1.76
	C407.43,534.59,404.98,534.64,402.73,533.62z"/>
<path class="st12" d="M410.81,543.81c2.44,0.17,4.88,0.34,7.32,0.52c0.23,0.34,0.45,0.67,0.68,1.01c-3.19,0.57-6.4,0.27-9.6,0.14
	C409.19,544.38,409.6,543.71,410.81,543.81z"/>
<path class="st3" d="M379.68,553.28c-0.19-1.87,0.04-3.52,2.16-4.2c0,0,0.17,0,0.17,0c1.73,0.92,2.15,2.46,2.04,4.26
	C382.6,553.32,381.14,553.3,379.68,553.28z"/>
<path class="st9" d="M424.26,530.57c2.96-2.11,6.26-0.94,10.09-1.28c-1.83,1.85-3.67,2.01-5.34,2.51
	C427.57,530.84,425.83,531.04,424.26,530.57z"/>
<path class="st9" d="M409.08,531.2c3.35-1.51,6.8-0.14,10.21-0.31c-3.15,2.14-6.63,0.26-9.9,0.84
	C409.28,531.55,409.18,531.37,409.08,531.2z"/>
<path class="st9" d="M428.04,532.35c-1,1.2-2.44,1.25-3.82,1.44c-1.98-0.11-3.96-0.23-5.95-0.34c1.54-1.3,3.42-1.56,5.33-1.74
	C425.09,531.92,426.56,532.14,428.04,532.35z"/>
<path class="st12" d="M395.42,537.18c2.59,0.31,5.19,0.63,7.78,0.94c-0.19,0.59-0.65,0.81-1.22,0.87c-2.59-0.21-5.18-0.42-7.77-0.63
	C394.3,537.65,394.71,537.26,395.42,537.18z"/>
<path class="st12" d="M402.73,533.62c2.26,1.01,4.7,0.97,7.09,1.24c-0.1,0.69-0.51,1.06-1.2,1.13c-2.6-0.25-5.2-0.5-7.8-0.76
	C400.99,534.15,401.65,533.64,402.73,533.62z"/>
<path class="st9" d="M430.05,527.98c3.07-1.58,5.48-0.78,8.24-0.91C435.71,529.58,433.24,528.04,430.05,527.98z"/>
<path class="st12" d="M424.83,528.2c-1.81-0.23-3.61-0.46-5.42-0.7c0.1-0.65,0.48-1.01,1.13-1.08c1.88-0.12,3.68,0.27,5.48,0.75
	C425.89,527.81,425.48,528.14,424.83,528.2z"/>
<path class="st9" d="M423.64,525.21c2.63-2.23,3.76-2.28,5.62-0.03c-2.01,0-3.84,0-5.67,0
	C423.59,525.19,423.64,525.21,423.64,525.21z"/>
<path class="st8" d="M426.02,527.16c-1.79-0.48-3.6-0.87-5.48-0.75c0.7-1.25,1.89-1.25,3.1-1.2c0,0-0.05-0.03-0.05-0.03
	c0.68,0.76,1.65,0.44,2.46,0.68C427.42,526.26,427.07,526.75,426.02,527.16z"/>
<path class="st11" d="M459.98,534.71c0.5,0.25,1,0.49,1.51,0.74c-1.27,0.86-2.54,1.72-3.82,2.58
	C457.61,536.25,458.51,535.27,459.98,534.71z"/>
<path class="st12" d="M428.04,532.35c-1.48-0.22-2.96-0.43-4.44-0.65c0.22-0.38,0.44-0.76,0.66-1.14c1.57,0.47,3.3,0.28,4.74,1.23
	C428.69,531.98,428.36,532.17,428.04,532.35z"/>
<path class="st12" d="M381.02,544.97c-1-0.01-2-0.02-3-0.04c0.26-1.13,1.07-1.65,2.13-1.56
	C381.04,543.44,380.96,544.3,381.02,544.97z"/>
<path class="st12" d="M418.28,533.45c1.98,0.11,3.96,0.23,5.95,0.34c-0.01,0.14-0.01,0.28-0.02,0.42c-2-0.02-4-0.04-5.99-0.07
	C418.23,533.91,418.25,533.68,418.28,533.45z"/>
<path class="st12" d="M398.4,540.92c0.54-0.08,1.36-0.36,1.5,0.26c0.21,0.99-0.87,1.01-1.49,1.34
	C398.41,541.98,398.41,541.45,398.4,540.92z"/>
<path class="st12" d="M396,541.97c-0.42-0.7-1.16-0.54-1.79-0.68c0.02-0.21,0.03-0.41,0.05-0.62c0.99,0.09,1.97,0.19,2.95,0.28
	C397.07,541.61,396.64,541.92,396,541.97z"/>
<path class="st12" d="M410.46,541.99c0-0.23,0-0.46,0-0.7c0.31-0.26,0.72-0.5,0.81,0.1C411.34,541.84,410.82,541.91,410.46,541.99z"
	/>
<path class="st12" d="M409.08,531.2c0.1,0.18,0.2,0.35,0.3,0.53c-0.25-0.03-0.49-0.06-0.74-0.09
	C408.79,531.49,408.93,531.34,409.08,531.2z"/>
<path class="st12" d="M414.03,528.81c0,0.19,0.03,0.37,0.09,0.55c-0.24-0.07-0.48-0.14-0.73-0.21
	C413.61,529.03,413.82,528.92,414.03,528.81z"/>
<path class="st1" d="M525.63,505.44c-0.4-0.41-0.81-0.83-1.21-1.24c3.55-0.36,7,0.04,10.34,1.28c1.39,0.94,2.12,2.03,0.74,3.55
	c-1.82,0.27-3.19-0.88-4.73-1.51C529.06,506.82,527.69,505.26,525.63,505.44z"/>
<path class="st12" d="M534.77,505.47c-3.35-1.24-6.8-1.64-10.34-1.28c-0.34-0.51-0.72-1.07-0.02-1.53
	C526.54,501.26,533.34,503.12,534.77,505.47z"/>
<path class="st12" d="M525.63,505.44c2.06-0.18,3.43,1.38,5.14,2.07c1.54,0.63,2.9,1.78,4.73,1.51c-0.44,1.39-1.48,1.49-2.57,1.02
	C530.27,508.89,527.51,507.85,525.63,505.44z"/>
<path class="st12" d="M544.85,620.29c0-4.78-0.01-9.56,0.01-14.34c0-0.75-0.21-1.92,0.81-1.96c1.03-0.03,0.86,1.13,0.91,1.89
	c0.68,10.93,0.6,21.88,0.52,32.83c-0.01,0.86,0.2,2.2-0.88,2.23c-1.25,0.03-0.78-1.35-0.87-2.16
	C544.7,632.63,545.02,626.45,544.85,620.29z"/>
<path class="st0" d="M546.45,646.66c0,6.89,0,13.77,0,20.66c-0.21,0.01-0.42,0.01-0.63,0.02c0-6.89,0-13.78,0-20.68
	C546.03,646.66,546.24,646.66,546.45,646.66z"/>
<path class="st12" d="M545.51,587.85c1.32,3.5,1.04,7.11,1,10.7c0,0.44-0.35,0.79-0.77,0.63c-0.31-0.12-0.69-0.52-0.73-0.84
	C544.64,594.85,544.78,591.37,545.51,587.85z"/>
<path class="st12" d="M547.37,680.53c-0.39,1.1,0.44,2.97-0.83,2.93c-1.71-0.06-1.03-2.01-1.06-3.16c-0.03-0.97-0.51-2.77,0.92-2.66
	C548.03,677.76,546.81,679.65,547.37,680.53z"/>
<path class="st12" d="M484.84,384.96c-0.04,0.49,0.03,1.32-0.17,2.06c-0.47,1.73-2.12,2.19-3.07,0.75
	c-1.78-2.67-2.02-5.75-1.48-8.85c0.14-0.79,0.86-1.36,1.74-1.37c0.88-0.01,1.46,0.55,1.81,1.32
	C484.5,380.71,484.72,382.68,484.84,384.96z"/>
<path class="st12" d="M418.23,516.84c0.02,1.7-1.43,1.85-2.43,2.25c-8.81,3.5-17.64,6.94-26.47,10.37
	c-9.68,3.76-19.39,7.41-29.02,11.28c-2.71,1.09-3.74,0.47-4.68-2.24c-8.44-24.29-17.02-48.53-25.58-72.78
	c-2.35-6.67-4.69-13.36-7.21-19.97c-0.92-2.42-0.64-3.34,2.16-3.46c14.27-0.61,28.54-1.36,42.81-2.07
	c7.28-0.36,14.57-0.68,21.85-1.14c1.89-0.12,2.84,0.39,3.47,2.29c8.17,24.71,16.42,49.39,24.66,74.08
	C417.94,515.93,418.09,516.4,418.23,516.84z M365.15,535.6c0.96,0.89,1.82,0.11,2.66-0.2c2.18-0.82,4.32-1.72,6.48-2.6
	c13.64-4.55,26.9-10.08,40.24-15.41c1.26-0.51,1.25-1.33,0.88-2.41c-0.88-2.54-1.75-5.09-2.59-7.64
	c-7.02-21.21-14.06-42.41-21.02-63.63c-0.59-1.81-1.44-2.55-3.41-2.43c-9.06,0.55-18.13,0.99-27.2,1.46
	c-4.46,0.34-8.92,1.01-13.36,0.94c-7-0.1-13.95,0.88-20.94,0.67c-1.9-0.06-2.18,0.57-1.52,2.29c1.67,4.37,3.04,8.86,4.79,13.2
	c0.79,1.96,0.82,4.35,2.73,5.8c-0.27,1.35,0.32,2.55,0.74,3.76c6.03,17.23,12.06,34.46,18.1,51.68c1.88,5.36,3.77,10.73,5.71,16.07
	c0.76,2.1,0.89,2.09,2.68,0.78C361.92,537.44,363.55,536.54,365.15,535.6z"/>
<path class="st0" d="M418.81,545.33c-0.23-0.34-0.45-0.67-0.68-1.01c5.5-3.75,11.43-6.74,17.35-9.76c0.63-0.32,1.28-0.53,2-0.34
	c0.78,0.73,0,1.01-0.43,1.25C431.02,538.85,425.17,542.56,418.81,545.33z"/>
<path class="st8" d="M458.42,529.37c-2.16,0-4.31,0-6.47,0c0.01-0.26,0.02-0.53,0.03-0.79c2.16-0.25,4.3-0.33,6.4,0.83
	C458.38,529.41,458.42,529.37,458.42,529.37z"/>
<path class="st8" d="M459.03,530.04c-0.2-0.22-0.41-0.45-0.61-0.67c0,0-0.04,0.04-0.04,0.04c0.22,0.21,0.44,0.41,0.66,0.62
	C459.05,530.03,459.03,530.04,459.03,530.04z"/>
<path class="st12" d="M391.75,550.78c1.3,0.53,3.46-0.58,3.44,1.06c-0.02,1.89-2.19,0.93-3.36,0.92c-1.2-0.01-3.48,0.78-3.42-0.97
	C388.48,549.91,390.78,551.58,391.75,550.78z"/>
<path class="st0" d="M370.52,552.4c-1.07-0.5-3.12,0.72-3.15-1.05c-0.03-1.77,2-1.03,3.12-1.03c1.12,0,3.15-0.76,3.14,1
	C373.63,553.2,371.59,551.92,370.52,552.4z"/>
<path class="st13" d="M360.11,537.94c-1.78,1.31-1.92,1.32-2.68-0.78c-1.94-5.34-3.83-10.71-5.71-16.07
	c-6.04-17.22-12.07-34.45-18.1-51.68c-0.42-1.21-1.01-2.41-0.74-3.76c2.85-3.59,6.87-4.81,11.47-5.22c-1.22-1.48-3.9-0.87-3.53-3.38
	c2.19-0.66,4.47-0.28,6.69-0.61c0.66-0.1,1.62,0.06,1.61-0.86c-0.01-1.09-1.03-0.99-1.8-0.98c-0.98,0.01-1.87,0.7-2.9,0.37
	c-0.41-3.15,1.55-3.88,4.11-4.01c1.66,1.06,3.46,0.28,5.19,0.39c1.93,0.51,3.96-0.22,4.06-1.92c0.17-2.9,1.6-4.79,3.4-6.67
	c9.07-0.48,18.14-0.91,27.2-1.46c1.97-0.12,2.81,0.62,3.41,2.43c6.97,21.23,14,42.43,21.02,63.63c0.85,2.55,1.71,5.1,2.59,7.64
	c0.37,1.07,0.38,1.9-0.88,2.41c-13.34,5.33-26.6,10.86-40.24,15.41c0.12-1.08,0.56-2.38-1.46-1.52c-2.48,1.06-5.02,1.98-7.53,2.96
	c-1.47,0.48-2.93,1-4.42,1.42C359.45,536.07,359.16,536.77,360.11,537.94z M412.92,514.2c-0.16-0.38-0.31-0.77-0.47-1.15
	c-2.95,1.95-6.94,1.63-9.12,5.27C406.53,516.95,409.73,515.57,412.92,514.2z M366.9,484.63c1.28-0.55,3.42,0.2,4.37-1.69
	c0.25-0.49-0.78-0.9-1.32-0.67c-1.51,0.66-3.7-0.39-4.57,1.65C365.14,484.47,365.94,484.83,366.9,484.63z M374.27,483.32
	c0.89-0.3,2.29-0.09,2.46-1.54c0.08-0.69-0.74-1.03-1.31-0.79c-1,0.43-2.7-0.17-2.86,1.5C372.47,483.36,373.47,483.33,374.27,483.32
	z M409.53,511.01c-0.37-0.04-0.79-0.23-1.07-0.1c-1.35,0.64-4.2,1.14-3.82,1.86c1.01,1.87,2.12-0.97,3.5-0.78
	C408.67,512.05,409.36,511.94,409.53,511.01z M341.17,464.6c-1.48-0.55-2.97-0.82-4.32,0.38
	C338.31,465.22,339.76,465.61,341.17,464.6z"/>
<path class="st14" d="M348.54,450.94c-2.55,0.13-4.51,0.86-4.11,4.01c-1.06,0.1-2.14,0.09-3.17,0.33c-1.06,0.25-2.02,0.75-0.43,1.76
	c-0.37,2.52,2.32,1.9,3.53,3.38c-4.61,0.41-8.63,1.63-11.47,5.22c-1.91-1.45-1.93-3.84-2.73-5.8c-1.75-4.34-3.12-8.83-4.79-13.2
	c-0.66-1.73-0.37-2.35,1.52-2.29c6.99,0.21,13.94-0.77,20.94-0.67c4.45,0.07,8.91-0.6,13.36-0.94c-1.8,1.88-3.23,3.77-3.4,6.67
	c-0.1,1.7-2.14,2.43-4.06,1.92c0.41-1.03-0.08-1.57-1.06-1.53C351.23,449.87,349.67,449.68,348.54,450.94z M333.43,456.46
	c1.42,0.64,2.83,0.82,4.52-0.43C336.12,455.66,334.75,455.56,333.43,456.46z"/>
<path class="st7" d="M365.3,534.25c2.51-0.98,5.05-1.91,7.53-2.96c2.03-0.87,1.58,0.44,1.46,1.52c-2.16,0.87-4.3,1.78-6.48,2.6
	c-0.84,0.31-1.71,1.09-2.66,0.2C365.2,535.15,365.25,534.7,365.3,534.25z"/>
<path class="st11" d="M365.3,534.25c-0.05,0.45-0.1,0.9-0.15,1.35c-1.61,0.94-3.23,1.84-5.04,2.34c-0.95-1.16-0.67-1.87,0.77-2.27
	C362.37,535.25,363.83,534.73,365.3,534.25z"/>
<path class="st1" d="M412.92,514.2c-3.19,1.37-6.39,2.74-9.58,4.12c2.18-3.64,6.17-3.32,9.12-5.27
	C412.61,513.43,412.77,513.82,412.92,514.2z"/>
<path class="st7" d="M340.83,457.04c-1.58-1-0.63-1.51,0.43-1.76c1.03-0.24,2.11-0.23,3.17-0.33c1.02,0.33,1.92-0.36,2.9-0.37
	c0.77,0,1.79-0.1,1.8,0.98c0.01,0.92-0.95,0.77-1.61,0.86C345.3,456.76,343.02,456.38,340.83,457.04z"/>
<path class="st10" d="M366.9,484.63c-0.96,0.2-1.76-0.15-1.52-0.71c0.88-2.04,3.06-0.99,4.57-1.65c0.53-0.23,1.56,0.18,1.32,0.67
	C370.32,484.83,368.18,484.07,366.9,484.63z"/>
<path class="st7" d="M348.54,450.94c1.13-1.26,2.69-1.07,4.14-1.14c0.98-0.04,1.47,0.5,1.06,1.53
	C352,451.22,350.2,452,348.54,450.94z"/>
<path class="st7" d="M374.27,483.32c-0.8,0.01-1.81,0.04-1.72-0.83c0.17-1.66,1.86-1.07,2.86-1.5c0.57-0.24,1.39,0.1,1.31,0.79
	C376.56,483.23,375.16,483.02,374.27,483.32z"/>
<path class="st7" d="M409.53,511.01c-0.17,0.93-0.86,1.04-1.38,0.97c-1.39-0.19-2.49,2.65-3.5,0.78c-0.39-0.72,2.46-1.22,3.82-1.86
	C408.74,510.78,409.16,510.97,409.53,511.01z"/>
<path class="st11" d="M341.17,464.6c-1.41,1-2.86,0.62-4.32,0.38C338.2,463.78,339.68,464.05,341.17,464.6z"/>
<path class="st11" d="M333.43,456.46c1.33-0.9,2.69-0.79,4.52-0.43C336.26,457.27,334.85,457.09,333.43,456.46z"/>
</svg>
