<?xml version="1.0" encoding="utf-8"?>
<!-- Generator: Adobe Illustrator 24.0.2, SVG Export Plug-In . SVG Version: 6.00 Build 0)  -->
<svg version="1.1" id="Capa_1" xmlns="http://www.w3.org/2000/svg" xmlns:xlink="http://www.w3.org/1999/xlink" x="0px" y="0px"
	 viewBox="0 0 286.13 485.28" style="enable-background:new 0 0 286.13 485.28;" xml:space="preserve">
<style type="text/css">
	.st0{fill:#0A0807;}
	.st1{fill:#D2B4A0;}
	.st2{fill:#D3B5A1;}
	.st3{fill:#3F3E45;}
	.st4{fill:#B6533F;}
	.st5{fill:#F4D1BD;}
	.st6{fill:#212121;}
	.st7{fill:#822A1D;}
	.st8{fill:#3E3636;}
	.st9{fill:#DF9E8D;}
	.st10{fill:#B48E7B;}
</style>
<path class="st0" d="M232.73,238.13c-0.88-2.77-1.75-5.54-2.63-8.31c-1.61-4.69-3.23-9.38-4.84-14.06
	c-3.13-7.2-6.23-14.42-9.4-21.61c-3.06-6.94-7.48-12.34-14.8-15.56c-8.51-3.75-17.59-6.48-25.11-12.29
	c-0.31-0.24-0.71-0.47-1.08-0.49c-1.7-0.1-2.14-0.98-1.87-2.55c0.25-1.46-0.32-2.94,2-3.66c9.88-3.06,17.84-8.71,22.86-17.99
	c0.51-0.95,0.88-1.49,2.22-1.26c3.46,0.59,6.71-0.38,9.81-1.91c2.74-1.59,4.53-4.12,6.5-6.48c0.47-1.54,0.94-3.07,1.42-4.61
	c0.05-0.4,0.09-0.8,0.14-1.19c-0.24-1.91,0.17-3.91-0.76-5.74c-0.46-1.17-0.85-2.38-1.41-3.49c-0.47-0.94-1.29-1.65-0.53-2.89
	c2.22-3.62,2.74-7.74,3.28-11.84c-0.14-1.98-0.28-3.95-0.42-5.93c-0.42-0.56-0.44-1.21-0.36-1.87c-0.12-0.43,0.12-0.66,0.48-0.81
	c0.62-1.3,1.51-2.4,1.97-3.85c1.02-3.17-0.55-5.95-0.79-8.91c-2.23-4.49-4.7-8.82-8.5-12.22l-0.15-0.07c-0.65-0.6-1.3-1.2-2.23-2.04
	c1.3-0.31,2.28-0.8,3.14-1.5c0.46-0.77,0.91-1.55,1.37-2.32c-0.15-1.14-0.9-1.95-1.6-2.77c-0.71-0.3-1.43-0.6-2.14-0.9
	c-0.3,0.03-0.59,0.07-0.89,0.08c-4.67,0.09-4.67,0.09-5.11-4.79c-1.33-2.41-2.46-4.94-5.26-6.14c-3.12-1.33-4.71-0.4-4.86,2.92
	c-0.05,1.21,0.45,2.47-0.22,4.05c-2.31-2.77-5.3-4.12-7.78-6.17l-6.64-2.97c-4.34-1.03-8.68-2.06-13.03-3.08l-0.6-0.04
	c-1.64-0.03-3.3,0.36-4.91-0.3c-0.56-0.08-1.13-0.17-1.69-0.25c-2.59,0.04-5.17,0.08-7.76,0.13c-0.78,0.38-1.61,0.36-2.44,0.27
	c-5.1,0.86-10.18,1.8-14.86,4.17c-4.59,2.45-8.72,5.48-12.07,9.5c-0.5,0.6-0.99,1.33-1.84,1.42c-5.91,0.61-10.94,3.24-15.58,6.76
	c-0.18,0.18-0.37,0.37-0.55,0.55l-3.13,4.76c0.28,0.67,0.13,1.31-0.15,1.94c-0.2,2.46,0.09,4.85,1.05,7.14
	c1.43,1.74,2.15,3.44,0.13,5.33c-0.51,0.48-0.65,1.37-0.91,2.09c-0.87,2.48-1.72,4.97-2.57,7.46c0,1.4,0,2.8,0,4.19
	c0.94,4.7,4.16,8.27,6.14,12.46c2.05,1.31,3.48,2.68,0.91,4.91c-1.23,1.07-1.44,2.78-2.16,4.18c-0.87,1.07-0.48,2.39-0.69,3.59
	c0.87,6.37,3.88,11.25,9.87,14c0.97,0.44,1.65,1.01,2.04,2.01c3.1,7.87,9.24,12.87,16.33,16.85c4.89,2.74,10.07,4.87,15.74,5.42
	c1.11,0.11,1.61,0.51,1.63,1.63c0.01,1.05-0.1,1.61-1.36,2.14c-9.07,3.83-18.03,7.91-27.07,11.81c-2.72,1.17-4.33,3.45-6.12,5.54
	c-6.49,7.58-13.07,15.1-19.28,22.92c-2.33,2.93-5.56,5.03-7.73,8.07c-0.17,0.36-0.39,0.7-0.65,1.01c-0.17,0.3-0.36,0.58-0.51,0.9
	c-0.35,0.73-1.08,0.84-1.82,0.63c-0.06-0.02-0.09-0.04-0.14-0.06c-0.36,0.08-0.75,0.12-1.17,0.12c-0.44,0-0.84-0.05-1.22-0.14
	c-0.57-0.02-1.1-0.16-1.6-0.42c-0.31-0.1-0.6-0.24-0.87-0.41c-0.33-0.04-0.71-0.14-1.16-0.31c-0.64-0.24-1.34-0.34-2.01-0.51
	c-0.33-0.05-0.66-0.11-0.99-0.16c-0.65-0.12-1.29-0.24-1.94-0.36c-4.58-0.73-9.26-2.77-13.76-0.7c-2.9,1.33-5.49,0.5-8.21,0.44
	c-1.44-0.03-2.74-0.58-3.42-1.89c-0.51-0.29-0.94-0.68-1.28-1.13l-0.11-0.03c-2.83-1.78-5.48-3.86-8.67-5.04
	c-1.73-0.65-3.42-1.14-5.15-0.05c0,0.14-0.04,0.26-0.11,0.37c-1.08,2.01-0.46,3.81,1.06,5.7c-4.93,0.92-9.8-0.63-14.23,1.48
	c-1.42,1.54-1.65,3.16-0.16,4.77c0.91,0.98,0.77,1.96,0.24,3.02c2.03,4.21,6.02,6.4,9.48,9.13c3.87,0.94,7.45,2.73,11.34,3.7
	c2.02,0.5,1.83,3.59,3.67,4.74c1.33,0.17,2.6,0.47,3.49,1.6c2.37,3.11,3.46,7.23,7.45,9.05c4.82,2.2,9.74,4.13,14.75,5.85
	c1.57,0.54,3.14,0.95,4.54,2.02c0.12,0.02,0.25,0.02,0.37,0.04c0.49,0.1,0.96,0.27,1.42,0.45c0.2,0.06,0.39,0.14,0.57,0.23
	c0.08,0.03,0.16,0.07,0.25,0.1c0.33,0.13,0.66,0.23,0.99,0.34c0.1-0.01,0.2,0,0.3-0.02c0.58-0.06,1.14,0.02,1.65,0.2
	c0.01,0,0.01,0,0.02,0c0.69,0.18,1.19,0.43,1.58,0.73c0.86,0.1,1.59,0.4,2.18,0.83c0.02,0.01,0.04,0.01,0.06,0.02
	c0.14,0.06,0.29,0.12,0.43,0.18c0.16,0.07,0.31,0.14,0.45,0.22c0.43,0.03,0.83,0.1,1.19,0.21c0.27-0.02,0.62,0.08,1.06,0.27
	c5.76,2.47,10.72,0.63,15.33-2.9c2.6-1.99,5.11-4.08,7.97-6.36c-0.42,6.26-1.41,12.08-2.71,17.87c-0.68,3.01-1.2,6.06-1.76,9.09
	c-0.13,0.68-0.37,1.46-0.17,2.07c1.9,5.66,2.43,11.57,3.45,17.4c0.12,0.69,0.2,1.33,0.16,2.02c-1.56,24.43-0.6,48.86,0.06,73.28
	c0.22,8.08,0.53,16.15,0.84,24.22c0.08,2.03-0.13,3.96-1.06,5.81c-1.46,2.9-1.07,5.63,1.03,8.06c1.19,1.38,1.8,2.76,1.23,4.62
	c-0.4,1.3-0.22,2.79,0.86,3.61c2.55,1.94,1.18,3.01-0.67,4.11c-2.87,2.49-6.06,4.5-9.38,6.32c-2.55,1.4-4.93,3.03-6.71,5.38
	c-2.23,2.94-1.24,5.39,2.44,5.9c6.26,0.88,12.56,0.75,18.82,0.32c7.95-0.55,15.88-1.44,23.83-2.18c2.94-0.27,4.15-2.09,4.29-4.8
	c0.16-2.98,0.22-5.97,0.33-8.95c-0.37-1.98-0.2-3.48,2-4.6c2.38-1.22,2.86-3.76,2.5-6.26c-0.22-1.51-0.01-2.72,1-3.85
	c1.92-2.16,2.3-4.72,1.16-7.26c-2.42-5.39-1.61-10.85-1.08-16.43c1.44-15.18,2.62-30.39,3.89-45.59c0.31-3.68,0.55-7.36,0.9-11.03
	c0.06-0.69-0.39-1.78,0.78-1.95c1.02-0.15,1.72,0.55,1.97,1.48c0.71,2.59,1.75,5.17,1.93,7.81c0.87,12.17,3.93,23.97,5.64,36
	c1.46,10.26,3.15,20.48,5.46,30.59c0.4,1.77-0.14,3.35-0.72,4.94c-0.97,2.65-0.47,4.88,1.81,6.65c0.67,0.52,1.41,0.87,1.3,2.09
	c-0.5,5.49-0.37,5.6,4.45,7.92c0.21,0.1,0.31,0.45,0.46,0.68c1.1,4.97,2.61,9.81,4.22,14.64c1.91,5.72,5.74,8.85,11.78,9.51
	c4.3,0.47,8.57,0.84,12.8-0.24c4.65-1.18,6.02-3.56,4.83-8.12c-1.32-5.02-3.53-9.73-5.23-14.62c-0.06-1.21-2.69-2.84,0.26-3.53
	c3.46-0.81,4.71-2.92,4.69-6.18c-0.9-1.2-1.21-2.22-0.03-3.62c1.97-2.35,1.65-5.17,0.65-7.82c-1.85-4.91-0.9-9.87-0.6-14.84
	c0.08-0.76,0.17-1.53,0.25-2.29c0.1-11.39,0.5-22.77,1.18-34.13c0.01-0.4,0.01-0.8,0.02-1.2c0.02-1.2,0.04-2.4,0.06-3.59
	c0.02-1.05,0.03-2.11,0.05-3.16c0.04-3.12,0.07-6.24,0.11-9.36c-0.01-1.24-0.02-2.48-0.03-3.72c-0.02-1.13-0.04-2.26-0.07-3.38
	c-0.79-5.79-0.33-11.6-0.03-17.38c0.09-1.84,1.01-4.63,2.35-5.23c3.07-1.39,3.54-4.12,4.8-6.49c0.58-1.09,1.08-2.04,2.36-2.48
	c2.74-0.95,4.45-3.02,5.45-5.61c4.02-10.39,8.01-20.78,9.8-31.86C237.08,253.78,234.1,246.09,232.73,238.13z M173.19,169.79
	c0.4-0.49,0.85-0.48,1.31-0.2c2.04,1.25,4.07,2.52,6.1,3.8c0.98,0.62,0.69,1.25,0,1.92c-3.81,3.68-7.67,7.29-12.13,10.21
	c-1.19,0.78-1.92,0.6-2.73-0.5c-1.83-2.48-3.74-4.9-5.8-7.57C164.7,175.16,169.8,173.95,173.19,169.79z M111.93,133.81
	c-4.37-3.79-7.06-7.71-5.85-13.28c0.21-0.95,0.61-1.9,1.13-2.73c0.69-1.09,1.6-2.33,3.03-1.96c1.24,0.32,0.96,1.81,1.16,2.83
	C112.33,123.49,112.23,128.35,111.93,133.81z M112.82,95.24c-0.91,2.62-1.41,5.4-1.86,8.14c-0.27,1.66-0.96,1.94-2.43,1.56
	c-3.33-0.86-5.79-3.64-6.03-6.98c-0.35-4.9,0.37-9.61,3.11-13.75c1.15-1.75,0.86-3.04-0.03-4.63c-3.26-5.8-1.69-11.11,4.22-14.25
	c2.82-1.49,5.62-3.07,8.74-3.88c2.96-0.77,4.85-3.11,7.07-4.89c10.49-8.43,22.43-10.78,35.63-9.66c8.2,0.69,15.94,2.24,23.23,6.06
	c3.02,1.58,5.73,3.58,8.43,5.64c1.89,1.45,3.09,1.08,3.56-1.22c0.32-1.54,0.23-3.16,0.37-5.34c2.89,2.28,4.04,4.74,3.26,7.84
	c-0.66,2.65,0.62,2.99,2.72,2.62c0.59-0.1,1.17-0.39,1.75-0.36c1.23,0.05,3.13-0.69,3.48,0.72c0.33,1.32-1.59,1.28-2.65,1.69
	c-1.96,0.76-1.99,2.3-0.1,3.85c4.98,4.08,8.56,9.13,10.52,15.27c0.92,2.89,1.32,5.68-0.65,8.53c-1.21,1.75-0.43,4.09-0.44,6.16
	c-0.04,7.49-2.3,10.07-9.86,11.07c-0.69,0.09-1.36,0.32-2.05,0.4c-8.01,0.99-11.23-3.15-9.82-11.17c0.32-1.79-0.09-1.9-1.39-1.84
	c-11.77,0.48-20.23-6.26-28.67-13.06c-0.62-0.5-1.13-1.13-1.72-1.67c-0.61-0.57-1.28-1.03-2.13-0.47c-0.79,0.52-0.88,1.35-0.61,2.13
	c0.67,1.98,1.48,3.92,2.12,5.9c0.32,0.99,1.21,2.13,0.29,3.08c-1,1.03-2.28,0.33-3.36-0.09c-5.17-2-9.85-4.79-13.74-8.81
	c-0.79-0.82-1.46-2.2-2.88-1.75c-1.67,0.53-1.05,2.13-1.18,3.35c-0.07,0.67,0.26,1.55-0.45,1.92c-0.95,0.5-1.46-0.45-1.92-1
	c-3.64-4.32-5.77-9.26-6.04-14.95c-0.04-0.89,0.08-1.88-0.85-2.41c-1.15-0.65-1.49,0.56-2.16,1.03
	C119.49,76.2,116.12,85.73,112.82,95.24z M125.67,148.85c-6.82-5.64-10.84-12.34-10.01-21.48c0.42-4.61-0.81-9.12-1.33-13.66
	c-0.7-6.01,0.14-11.74,1.98-17.37c2.24-6.84,5.24-13.33,9.42-19.23c0.38-1.3,1.35-2.1,2.39-3.21c0.7,2.71,1.18,5.13,1.96,7.45
	c1.3,3.87,3.52,7.15,6.97,9.45c3.34,2.22,5.18,1.56,6.51-2.51c1.53,1.19,2.96,2.37,4.45,3.46c2.85,2.07,5.94,3.71,9.4,4.43
	c5.31,1.11,7.22-0.39,7.47-5.72c0.95-0.38,1.4,0.47,1.96,0.89c6.35,4.65,13.09,8.39,21.12,9.2c2.62,0.26,1.09,2.22,1.38,3.44
	c0.61,2.96,1.44,5.84,3.7,8.01c0.93,0.9,0.57,1.82,0.37,2.76c-0.52,2.46-0.65,4.94-0.5,7.44c0.07,1.12,0.26,2.24,1.46,2.73
	c1.31,0.53,2.36-0.13,3.23-0.99c1.65-1.63,2.72-3.68,3.95-5.61c3.11-4.85,8.49-4.61,11.05,0.6c2.2,4.48,1.9,9.02-1.09,13.01
	c-2.98,3.96-7.21,5.75-12.14,4.75c-2.05-0.41-2.85,0.2-3.74,1.78c-5.19,9.18-12.79,15.42-23.01,18.31
	c-1.83,0.51-2.69,1.52-2.78,3.33c-0.09,1.89-0.43,3.81-0.23,5.67c0.27,2.64-0.93,4.08-3.15,5.05c-0.82,0.36-1.56,0.9-2.37,1.28
	c-8.54,4.03-6.75,4.45-13.99-2.1c-0.39-2.67,0.12-3.68,2.18-4.23c2.53-0.67,4.9-1.69,7.06-3.16c0.99-0.67,1.98-1.41,1.81-2.85
	c-1.22-1.25-2.8-0.81-4.24-0.82C145.45,158.81,134.8,156.4,125.67,148.85z M140.2,171.28c1.54-0.67,3.03-1.47,4.1-2
	c1.19-0.21,1.6,0.19,1.98,0.69c1.75,2.31,3.76,4.36,6.15,6.02c0.99,0.68,1.06,1.18,0.05,1.99c-2.08,1.68-4.12,3.43-6.03,5.31
	c-1.25,1.22-1.8,0.61-2.43-0.5c-1.57-2.76-3.11-5.54-4.75-8.26C138.35,173.02,138.5,172.02,140.2,171.28z M40.77,230.77
	c-1.84-0.65-3.67-1.34-5.5-2.01c-5.27-1.35-10.05-3.58-14.19-7.8c3.63-0.88,6.24,1.21,9.15,1.89c-0.3-2.1-0.3-2.1-4.63-4.11
	c-1.96-0.91-3.93-1.82-6.13-2.85c1-1.27,2.14-1.05,3.13-1.03c3.79,0.07,7.59,0.22,11.38,0.32c0.87,0.02,1.9,0.41,2.47-0.54
	c0.6-1-0.05-1.9-0.53-2.77c-0.69-1.27-2-2.19-2.4-4.63c4.69,3.27,9.45,5.23,12.99,9.06c0.54,0.58,0.87,1.36,0.7,2.21
	c-0.79,3.89-1.32,7.88-3.9,11.15C42.92,231.08,41.94,231.18,40.77,230.77z M45.67,235.81c-1.74-0.92-1.84-1.77-0.52-3.08
	c0.55-0.55,0.99-1.21,1.48-1.82c1.55-4.59,3.16-9.17,3.13-14.12c4.26,0.84,4.65,1.41,4.34,5.28c-0.3,3.8-0.91,7.47-3.23,10.64
	C49.39,236.72,48.39,237.24,45.67,235.81z M108.65,274.26c4.64-22.7,7.55-45.61,7.88-68.8c0-0.26-0.17-0.52-0.82-0.86l-3.84,22.03
	c-0.72,5.81-1.43,11.62-2.17,17.43c-0.06,0.46-0.26,1.03-0.59,1.32c-4.47,3.93-8.36,8.56-13.81,11.34c-2.55,1.3-5.16,1.76-7.79,0.79
	c-10.56-3.88-21.45-6.89-31.65-11.72c-0.9-0.43-1.83-0.84-2.62-1.42c-3.32-2.44-3.48-5.34-0.5-8.04c2.36-5.64,4.21-11.37,3.07-17.62
	c-0.18-0.96,0.69-1.1,1.29-1.35c2.61-1.1,5.31-1.76,8.16-1.21c5.76,1.13,11.52,2.32,17.28,3.43c0.88,0.17,1.36,0.77,1.96,1.26
	c0.39-0.01,0.77-0.02,1.16-0.03c1.32-2.34,1.55,0.79,2.47,0.49c0.35-1.56-2.18-3.06-0.11-4.66c3.93-4.48,8.34-8.5,12.01-13.25
	c5.42-7,11.24-13.7,16.89-20.52c-0.03-0.13-0.03-0.26,0.02-0.39c0.08-1.42,1.33-1.67,2.26-2.09c4.63-2.12,9.31-4.11,13.94-6.23
	c1.49-0.68,2.18-0.47,2.83,1.16c1.57,3.9,3.88,7.41,6.39,10.78c1.65,2.21,3.55,2.41,5.61,0.62c1.65-1.43,3.24-2.93,5.06-4.59
	c0.53,1.07,0.38,2.03,0.15,2.93c-4.84,19.2-5.23,38.88-6.23,58.49c-0.5,9.66-0.86,19.33-1.25,28.99c-0.24,6.01,0.16,11.97,2.1,17.73
	c0.75,2.21,0.06,2.76-2.18,2.63c-10.97-0.66-21.89-1.84-32.76-3.47c-1.43-0.21-2.03-0.83-2.77-2.12
	C107.68,283.07,107.71,278.82,108.65,274.26z M109.91,291.8c0.33-1.85,1.67-0.7,2.6-0.45c8.02,2.15,16.26,2.9,24.49,3.68
	c2.97,0.28,5.97,0.36,8.96,0.5c1.33,0.06,2.53,0.16,1.83,2.02c-0.69,4.38-0.69,4.4-5.29,3.98c-7.84-0.72-15.52-2.27-23.15-4.16
	c-2.81-0.09-5.5-0.89-8.19-1.6C108.79,295.13,109.66,293.18,109.91,291.8z M112.26,299.59c1.11-0.25,3.87-0.67,4.28,1.91
	c0.19,1.19-4.36,5.34-5.42,5.19c-1.03-0.15-0.69-1.01-0.84-1.88C111.56,303.36,109.45,300.22,112.26,299.59z M139.35,432.24
	c0.04,3.5-1.73,3.91-4.45,3.49c-11.59,1.13-23.18,2.34-34.84,2.4c-0.8,0-1.6,0.02-2.39-0.07c-1.03-0.13-1.2-0.82-0.48-1.4
	c2.63-2.14,5.5-3.96,8.58-5.38c1.03-0.47,2,0.68,3.02,1.04c0.94,0.33,2.2,0.99,2.74,0.04c0.73-1.27-1.03-1.34-1.61-2.02
	c-0.24-0.29-0.57-0.5-1.06-0.92c1.49-0.53,2.5-0.2,3.36,0.73c0.7,0.76,1.49,1.11,2.3,0.24c0.78-0.83,0-1.39-0.46-2.04
	c-0.51-0.73-2.19-1.05-1.33-2.23c0.77-1.08,2.18-0.67,3.34-0.3c0.47,0.15,0.91,0.41,1.37,0.6c0.75,0.32,1.65,0.69,2.14-0.17
	c0.58-1.02-0.38-1.56-1.03-2.17c-0.57-0.54-2.11-0.38-1.62-1.64c0.4-1.01,1.6-1.03,2.63-1c0.3,0.01,0.6,0.03,0.9,0.04
	c5.93,0.28,11.78,1.59,17.77,1.21c1.61-0.1,1.44,1.28,1.31,2.4c0,0.34-0.01,0.68-0.01,1.02
	C139.74,428.15,139.32,430.22,139.35,432.24z M207.23,443.51c0.6,1.88-0.15,2.97-1.96,3.21c-5.35,0.74-10.72,1.06-15.97-0.6
	c-1.77-0.56-2.99-1.8-3.92-3.47c-2.58-4.6-3.37-9.75-4.86-14.69c-0.41-0.9-1.07-2.25,0.53-2.23c3.1,0.04,5.74-1.54,8.68-1.92
	c3.19-0.41,6.32,0.34,9.46,0.64c1.43,0.14,1.7,1.15,1.59,2.37C203.39,432.22,205.41,437.82,207.23,443.51z M208.67,317.46
	c-1.25,7.82-0.25,15.69-0.62,23.53c-0.43,9.23-0.79,18.46-1.18,27.69c0.42,8.67-0.85,17.3-0.62,26.14c-1.54-1.57,0.69-4.1-1.74-5.15
	c-0.2,3.14,0.21,6.31-0.43,9.43c1.37,0.06,2.3,0.54,2.16,2.14c-0.12,1.42,0.27,2.76,0.76,4.05c1.27,3.33,1.63,6.53-1.05,9.41
	c-0.69,0.74-0.85,1.54-0.26,2.41c1.29,1.98,0.64,3.12-1.54,3.69c-1.86,0.48-3.83,0.98-5.62,0.45c-5.66-1.68-11.04-0.08-16.5,0.95
	c-1.46,0.27-2.97,0.31-4.45,0.44c-1.12,0.1-1.94-0.22-2.17-1.48c-0.21-1.17-0.22-2.22,1.11-2.72c2.67-1.02,1.21-1.82-0.13-2.62
	c-4.57-2.75-4.71-2.78-3.6-7.99c1.11-5.22-0.72-10.09-1.56-15.02c-3.5-20.69-6.87-41.4-11.06-61.98c-0.84-4.14-2.42-6.63-6.84-7.27
	c-3.23-0.47-6.37-1.63-9.54-2.48c-0.87-0.23-1.88-0.64-2.51,0.2c-0.8,1.05-0.02,1.84,0.82,2.49c0.74,0.26,1.5,0.5,2.22,0.79
	c5.85,2.38,6.08,2.41,5.45,8.5c-0.29,2.88,0.11,5.91-1.12,8.68c-0.66,8.53-1.31,17.07-1.98,25.6c-0.74,9.43-2.06,18.8-2.21,28.28
	c-0.03,1.63,0.11,3.22,0.79,4.68c2.01,4.31,1.85,8.21-1.95,11.52c0.2,0.6,0.4,1.19,0.59,1.79c0.85,3-0.17,4.68-3.26,4.75
	c-4.77,0.11-9.6,0.7-14.29-0.61c-3.23-0.9-6.34-0.17-9.48,0.2c-3.68,0.44-4.14-0.05-3.29-3.8c0.13-0.58,0.17-1.17,0.25-1.76
	c-0.81-1.33-1.62-2.65-2.42-3.98c-1-0.79-1.22-1.72-0.68-2.9c1.7-3.73,1.83-7.59,1.52-11.67c-0.51-6.75-0.27-13.53-0.62-20.3
	c-0.55-10.54-0.54-21.11-0.79-31.67c-0.21-8.66-0.8-17.32-0.6-25.99c0.03-1.31-0.1-2.63,1.23-3.45c-0.2-0.17-0.39-0.34-0.59-0.51
	c-1.07-1.22-0.29-1.89,0.71-2.6c2.18-1.56,4.32-3.19,6.47-4.79c0.38-0.7,0.73-1.4,1.13-2.08c0.4-0.69,0.83-1.54,1.81-1.2
	c1.11,0.39-0.18,1.45,0.59,2.21c0.76-1.86,2.11-1.87,3.86-1.55c5.67,1.04,11.36,2.13,17.15,2.07c3.5-0.03,2.29,2.43,2.56,4.16
	c0,0,0.03,0.04,0.03,0.04c0.36,0.2,0.72,0.41,1.08,0.61c0.03-0.18,0.05-0.36,0.08-0.54c-0.11-4.34,1.09-5.12,5.14-3.71
	c2.12,0.74,1.18,2.36,1.43,3.66l0,0c0.27-0.13,0.77-0.25,0.77-0.38c0.11-3.82,2.85-3.25,5.27-3.18c9.21,0.26,18.18-1.57,27.14-3.3
	c2.35-0.46,3.59,0.17,4.63,2c4.54,5.48,10.44,9.14,16.61,12.44C208.05,316.15,208.84,316.42,208.67,317.46z M151.81,295.63
	c10.78,0.51,21.43-1.27,32.15-1.84c2.64-0.14,5.27-0.66,7.95-1.01c-0.66,4.91-0.82,5.05-5.45,5.23
	c-11.02,2.12-22.12,3.62-33.37,3.76c-3.07,0.04-3.1-2.09-3.07-4.27C149.66,295.96,150.45,295.57,151.81,295.63z M209.76,308.83
	c-1.3,4.02-1.3,4.02-4.8,2.04c-2.68-1.52-5.44-2.93-7.71-5.07c-1.13-0.76-2.39-1.45-2.16-3.14c0.26-0.52,0.15-1.74,1.06-1.25
	c1.65,0.9,3.67,1.28,4.76,3.06c3,0.24,5.58,1.84,8.4,2.64C210.31,307.39,210.55,308.02,209.76,308.83z M214.85,302.47
	c-0.57,1.57-1.42,2.56-3.34,1.99c-5.27-1.56-10.29-3.69-15.1-6.34c-3.39-1.87-0.6-4.08-0.35-6.47c5.33,4.15,11.33,6.13,16.97,8.81
	C213.85,300.85,215.52,300.67,214.85,302.47z M230.6,271.25c-2.42,7.05-4.41,14.26-7.47,21.08c-2.02,4.5-5.76,6.44-9.66,5.14
	c-5.42-2.24-10.86-4.46-16.27-6.75c-1.52-0.64-3.04-5.62-2.43-7.7c1.55-5.25,3.17-10.47,4.68-15.73c0.89-3.11,2.43-6.13,1.41-9.55
	c-0.13-0.44,0.41-1.07,0.63-1.61c0.06-0.43,0.13-0.87,0.19-1.3c-2.85-12.02-5.94-23.98-9.99-35.66c-0.2-0.58-0.25-1.43-1.36-1.54
	c-0.42,1.24-0.1,2.49,0.03,3.72c2.63,10.82,5.63,21.57,7.63,32.5c0.47,2.58,0.61,5.97-0.41,8.97c-2.24,6.59-4.2,13.28-6.37,19.9
	c-0.51,1.55-0.26,2.92,0.27,4.34c1.21,3.25,1.2,3.25-2.39,3.11c-0.3-0.01-0.59-0.07-0.89-0.11c-6.29,0.97-12.64,1.27-18.94,2.38
	c-5.6,0.99-11.46,0.53-17.2,0.8c-1.89,0.09-2.27-1.02-2.7-2.47c-2.47-8.39-2.15-16.96-1.74-25.54c0.71-14.94,1.52-29.88,2.09-44.82
	c0.34-8.69,1.68-17.27,2.87-25.83c0.71-5.1,2.08-10.3,4.17-15.49c2.15,2.12,3.5,4.64,5.07,6.98c3.48,5.17,4.37,5.34,9.49,1.95
	c4.69-3.1,8.71-6.99,12.69-10.91c1.11-1.1,1.97-1.53,3.33-0.79c0.17,0.09,0.38,0.13,0.56,0.21c21.59,9.55,19.44,7.32,28.35,27.52
	c4.5,10.21,8.91,20.49,11.38,31.46C232.04,247.14,234.85,258.86,230.6,271.25z"/>
<path class="st1" d="M85.67,62.4"/>
<path class="st1" d="M146.62,40.47c-0.12,0.1-0.23,0.2-0.34,0.29c-0.08-0.12-0.18-0.24-0.24-0.37c-0.01-0.03,0.13-0.18,0.15-0.17
	C146.33,40.28,146.45,40.37,146.62,40.47z"/>
<path class="st1" d="M217.72,94.41c-0.12-0.43,0.12-0.66,0.48-0.81C218.04,93.86,217.88,94.14,217.72,94.41z"/>
<path class="st2" d="M261.89,250.14c-0.39,0.19-0.63,0.41-0.8,0.37c-0.18-0.05-0.29-0.36-0.43-0.55c0.15-0.09,0.33-0.28,0.46-0.25
	C261.33,249.74,261.52,249.92,261.89,250.14z"/>
<path class="st2" d="M217.65,398.36c0.1,0.11,0.19,0.22,0.28,0.33c-0.13,0.07-0.26,0.16-0.4,0.21c-0.03,0.01-0.16-0.15-0.14-0.18
	C217.45,398.58,217.56,398.47,217.65,398.36z"/>
<path class="st3" d="M204.52,389.68c-0.2,3.14,0.21,6.31-0.43,9.43c-0.06,0.59-0.14,1.18-0.19,1.77c-0.4,4.68,0.74,9.41-1,14.08
	c-0.76,2.03,1.19,2.29,2.81,2.18c1.29,1.98,0.64,3.12-1.54,3.69c-1.86,0.48-3.83,0.98-5.62,0.45c-5.66-1.68-11.04-0.08-16.5,0.95
	c-1.46,0.27-2.97,0.31-4.45,0.44c-1.12,0.1-1.94-0.22-2.17-1.48c-0.21-1.17-0.22-2.22,1.11-2.72c2.67-1.02,1.21-1.82-0.13-2.62
	c-4.57-2.75-4.71-2.78-3.6-7.99c1.11-5.22-0.72-10.09-1.56-15.02c-3.5-20.69-6.87-41.4-11.06-61.98c-0.84-4.14-2.42-6.63-6.84-7.27
	c-3.23-0.47-6.37-1.63-9.54-2.48c-0.87-0.23-1.88-0.64-2.51,0.2c-0.8,1.05-0.02,1.84,0.82,2.49c-0.12,1.47,0.38,2.73,1.22,3.91
	c1.25,1.74,2.15,3.81,2.06,5.83c-0.27,6.65-0.92,13.28-1.36,19.92c-0.12,1.86-0.02,3.73-0.02,5.6c1.87-7.23,1.22-14.62,2.39-22.22
	c1.18,1.83,0.63,3.86,2.26,4.93c-0.66,8.53-1.31,17.07-1.98,25.6c-0.74,9.43-2.06,18.8-2.21,28.28c-0.03,1.63,0.11,3.22,0.79,4.68
	c2.01,4.31,1.85,8.21-1.95,11.52c-0.38-0.08-0.78-0.12-1.15-0.25c-1.16-0.42-2.58-0.27-2.72,0.85c-0.21,1.67,1.47,1,2.4,1.14
	c0.67,0.1,1.37,0.04,2.06,0.05c0.85,3-0.17,4.68-3.26,4.75c-4.77,0.11-9.6,0.7-14.29-0.61c-3.23-0.9-6.34-0.17-9.48,0.2
	c-3.68,0.44-4.14-0.05-3.29-3.8c0.13-0.58,0.17-1.17,0.25-1.76c3.91-0.91,7.83-0.62,11.79-0.3c2.25,0.18,4.53,1.74,6.84,0.19
	c0.49,0.02,1.18,0.19,1.33-0.34c0.21-0.75-0.57-0.96-1.1-1.11c-4.2-1.22-8.45-2.26-12.83-2.61c-1.8-0.14-3.74-1.19-5.33,0.62
	c-1.04-0.14-2.09-0.28-3.13-0.43c-1-0.79-1.22-1.72-0.68-2.9c1.7-3.73,1.83-7.59,1.52-11.67c-0.51-6.75-0.27-13.53-0.62-20.3
	c-0.55-10.54-0.54-21.11-0.79-31.67c-0.21-8.66-0.8-17.32-0.6-25.99c0.03-1.31-0.1-2.63,1.23-3.45c0.01-0.21,0.03-0.41,0.04-0.62
	l0,0c0.51,0.04,0.94-0.09,1.19-0.59l0.02-0.01c2.24-0.34,4.1-1.17,4.79-3.58l0.01-0.01c1.72,0.13,2.63-0.77,2.99-2.36
	c0.18-0.02,0.37-0.05,0.55-0.08c7.9,2.09,16,2.51,24.1,2.97c0,0,0.02,0.04,0.02,0.04c-0.33,2.32,0.29,4.57,0.61,6.82
	c0.37,2.56,5.4,4.92,7.78,3.81c0.99-0.46,1.1-1.33,1.1-2.26c0.01-1.8,0.05-3.59-0.01-5.39c-0.06-1.58,0.45-2.35,2.19-2.42
	c2.98-0.13,5.96-0.41,8.92-0.79c8.4-1.08,16.75-2.45,24.95-4.62c4.54,5.48,10.44,9.14,16.61,12.44c0.72,0.39,1.51,0.66,1.35,1.69
	c-1.25,7.82-0.25,15.69-0.62,23.53c-0.43,9.23-0.79,18.46-1.18,27.69c-2.06-0.8-1.28-2.64-1.08-3.87c0.58-3.48,0.35-6.96,0.46-10.44
	c0.2-6.07-0.15-12.14,0.47-18.22c0.33-3.21,0.65-6.61-0.74-9.76c-0.6,5.57-0.63,11.16-0.72,16.71
	C204.99,358.62,204.86,374.15,204.52,389.68z M199.12,314.73c-0.09-0.02-0.18-0.05-0.27-0.07c0.06,0.05,0.12,0.11,0.18,0.16
	c1.25,1.76,3.01,2.63,5,3.08C203.02,315.79,201.22,315.02,199.12,314.73z M188.29,306.39c-0.07-0.03-0.13-0.06-0.2-0.1
	c0.06,0.04,0.12,0.07,0.19,0.11c0.74,2.93,3.32,5.17,6.74,5.45C192.57,309.87,190.43,308.13,188.29,306.39z M193.79,414.82
	c1.2,0,2.39,0.05,3.59-0.02c0.7-0.04,1.85,0.34,1.83-0.87c-0.01-0.8-0.96-0.91-1.66-0.93c-4.98-0.15-9.95-0.2-14.83,1.08
	c-0.75,0.2-1.93,0.2-1.8,1.15c0.17,1.25,1.45,0.79,2.23,0.66C186.67,415.33,190.19,414.74,193.79,414.82z M140.77,409.78
	c1.74-6.76,1.2-13.58,1.07-20.39C140.76,396.17,141.27,402.99,140.77,409.78z M142.42,383.35c0.82-6.12,1.66-12.29,1.21-18.55
	C142.76,370.93,141.94,377.07,142.42,383.35z"/>
<path class="st4" d="M201.69,254.82c-2.85-12.02-5.94-23.98-9.99-35.66c-0.2-0.58-0.25-1.43-1.36-1.54
	c-0.42,1.24-0.1,2.49,0.03,3.72c-1.32,0.94-0.95,2.36-0.85,3.57c0.77,9.59,1.88,19.13,4.33,28.47c0.62,2.37,1.74,4.88,0.55,7.27
	c-2.39,4.82-3.31,9.93-3.66,15.21c-0.04,0.59-0.07,1.28-0.39,1.72c-2.76,3.82-3.9,7.89-2.14,12.47c-6.29,0.97-12.64,1.27-18.94,2.38
	c-5.6,0.99-11.46,0.53-17.2,0.8c-1.89,0.09-2.27-1.02-2.7-2.47c-2.47-8.39-2.15-16.96-1.74-25.54c0.71-14.94,1.52-29.88,2.09-44.82
	c0.34-8.69,1.68-17.27,2.87-25.83c0.71-5.1,2.08-10.3,4.17-15.49c2.15,2.12,3.5,4.64,5.07,6.98c3.48,5.17,4.37,5.34,9.49,1.95
	c4.69-3.1,8.71-6.99,12.69-10.91c1.11-1.1,1.97-1.53,3.33-0.79c0.17,0.09,0.38,0.13,0.56,0.21c21.59,9.55,19.44,7.32,28.35,27.52
	c4.5,10.21,8.91,20.49,11.38,31.46c-0.42,1.07-0.19,2.13-0.07,3.23c0.55,5.34,1.51,10.69,1.4,16.02
	c-0.32,15.92-5.49,30.22-15.49,42.7c-5.42-2.24-10.86-4.46-16.27-6.75c-1.52-0.64-3.04-5.62-2.43-7.7
	c1.55-5.25,3.17-10.47,4.68-15.73c0.89-3.11,2.43-6.13,1.41-9.55c-0.13-0.44,0.41-1.07,0.63-1.61c0.24-0.04,0.48-0.08,0.72-0.11
	c0,0,0.21,0.01,0.21,0.01l0.21-0.03c0.02,0.27,0.04,0.54,0.05,0.8c-0.57,1.92,1,1.07,1.57,1.07c4.18-0.02,8.38-0.36,12.42,1.13
	c1.02,0.38,1.72-0.14,2.21-1.01c1.29-1.64,0.21-2.46-1.08-3.3c-2.19-1.41-4.73-0.82-7.78-1.13c2.32-0.88,4.03-1.38,5.6-2.16
	c1.57-0.78,2.11-1.89,0.22-3.05c-4.4-1.31-11.1,2.02-13.21,6.56l0.03-0.03c-0.22,0-0.44,0-0.66,0
	C201.91,254.81,201.8,254.79,201.69,254.82z M172.1,237.27c3.21-0.19,5.63-2.26,8.37-3.56c1.26-0.6,2.92-0.97,3.22-2.77
	c0.15-0.3,0.29-0.61,0.44-0.91c1.46-0.95,1.04-2.5,1.11-3.82c0.2-3.71,0.93-7.43,0.13-11.57c-1.54,1.15-1.8,2.34-1.74,3.68
	c-1.14,1.51-1.12,3.33-1.32,5.07c-0.33,2.88-1.21,5.09-4.08,6.65c-2.61,1.42-5.67,2.45-7.41,5.2c-2.33-1.34-4.61-2.81-7.02-3.98
	c-1.69-0.82-2.3-1.92-2.26-3.73c0.08-4.4,0.02-8.79,0.02-13.19c-0.29,0-0.58,0-0.87,0c-0.73,5.1-0.65,10.23-0.24,15.36
	c0.04,0.46,0.28,1.04,0.63,1.31C164.45,233.62,167.62,236.61,172.1,237.27z M162.51,212.39c5.95,1.45,12.02,1.67,18.11,1.52
	c0.78-0.02,2.1,0.21,2.04-1.05c-0.04-0.86-1.22-0.87-1.97-0.92C174.64,211.54,168.6,211.62,162.51,212.39z M205.32,187.57
	c-6.44,3.95-9.88,10-11.99,16.98C196.5,198.31,200.22,192.46,205.32,187.57z M157.26,195.24c-1.11,0.18-1.84,0.82-1.81,1.96
	c0.03,1.02,0.72,1.63,1.76,1.59c1.04-0.05,1.59-0.73,1.62-1.75C158.86,195.99,158.3,195.4,157.26,195.24z M152.76,274.17
	c-0.21-0.96-0.72-1.72-1.76-1.62c-1.15,0.1-1.73,0.93-1.61,2.06c0.11,1.05,0.83,1.55,1.86,1.42
	C152.3,275.9,152.71,275.16,152.76,274.17z M153.62,243.97c-0.08-0.79-0.43-1.58-1.53-1.67c-1.1-0.09-1.65,0.57-1.69,1.61
	c-0.04,1.02,0.49,1.76,1.51,1.88C153.03,245.92,153.5,245.18,153.62,243.97z M155.42,215.3c-0.03-1.05-0.49-1.76-1.58-1.72
	c-1.04,0.03-1.62,0.69-1.6,1.73c0.02,1.02,0.63,1.73,1.63,1.75C154.94,217.09,155.35,216.28,155.42,215.3z"/>
<path class="st4" d="M52.73,236.32c2.36-5.64,4.21-11.37,3.07-17.62c-0.18-0.96,0.69-1.1,1.29-1.35c2.61-1.1,5.31-1.76,8.16-1.21
	c5.76,1.13,11.52,2.32,17.28,3.43c0.88,0.17,1.36,0.77,1.96,1.26c1.18,2.57,2.38,5.14,3.55,7.72c0.96,2.13,0.87,4.63,2.39,6.56
	c1.48,0.97,1.68-0.2,1.85-1.18c0.22-1.29-0.1-2.53-0.51-3.77c-0.32-0.96-1.14-2,0.08-2.95c0.49,0.86,0.96,1.72,1.47,2.57
	c0.38,0.63,0.54,1.72,1.57,1.41c0.78-0.23,1.07-1.14,1.22-1.92c0.21-1.12-0.28-2.13-0.72-3.12c-1.27-2.89-3.52-4.98-5.88-6.94
	c-0.83-0.69-1.87-1.21-1.48-2.58c3.93-4.48,8.34-8.5,12.01-13.25c5.42-7,11.24-13.7,16.89-20.52c0.24,2.73-0.09,5.56,1.43,8.06
	c0.05-2.9,0.63-5.9-1.4-8.45c0.08-1.42,1.33-1.67,2.26-2.09c4.63-2.12,9.31-4.11,13.94-6.23c1.49-0.68,2.18-0.47,2.83,1.16
	c1.57,3.9,3.88,7.41,6.39,10.78c1.65,2.21,3.55,2.41,5.61,0.62c1.65-1.43,3.24-2.93,5.06-4.59c0.53,1.07,0.38,2.03,0.15,2.93
	c-4.84,19.2-5.23,38.88-6.23,58.49c-0.5,9.66-0.86,19.33-1.25,28.99c-0.24,6.01,0.16,11.97,2.1,17.73c0.75,2.21,0.06,2.76-2.18,2.63
	c-10.97-0.66-21.89-1.84-32.76-3.47c-1.43-0.21-2.03-0.83-2.77-2.12c-2.43-4.2-2.4-8.45-1.47-13.01c4.64-22.7,7.55-45.61,7.88-68.8
	c0-0.26-0.17-0.52-0.82-0.86c-1.28,7.34-2.56,14.69-3.84,22.03c-1.4,0.69-1.63,2.19-2.29,3.38c-3,5.39-5.89,10.86-10.64,15.01
	c-4.13,3.6-9.1,6.38-14.39,5.18C73.13,247.63,61.73,244.59,52.73,236.32z"/>
<path class="st5" d="M161.15,159.76c-1.22-1.25-2.8-0.81-4.24-0.82c-11.47-0.13-22.12-2.54-31.24-10.08
	c-6.82-5.64-10.84-12.34-10.01-21.48c0.42-4.61-0.81-9.12-1.33-13.66c-0.7-6.01,0.14-11.74,1.98-17.37
	c2.24-6.84,5.24-13.33,9.42-19.23c1.14,1.98,2.18,4,3.07,6.11c1.92,4.53,4.56,8.62,8.33,11.88c2.05,1.77,5.05,3.49,7.01,1.84
	c3.39-2.88,5.66-1.02,8.41,0.4c1.32,0.68,2.75,1.19,4.18,1.58c3.86,1.06,7.37,0.45,8.4-1.88c1.09-2.47,2.12-1.82,3.81-0.8
	c6.33,3.79,12.72,7.5,20.41,7.77c0.61,2.96,1.44,5.84,3.7,8.01c0.93,0.9,0.57,1.82,0.37,2.76c-0.52,2.46-0.65,4.94-0.5,7.44
	c0.07,1.12,0.26,2.24,1.46,2.73c1.31,0.53,2.36-0.13,3.23-0.99c1.65-1.63,2.72-3.68,3.95-5.61c3.11-4.85,8.49-4.61,11.05,0.6
	c2.2,4.48,1.91,9.02-1.09,13.01c-2.98,3.96-7.21,5.75-12.14,4.75c-2.05-0.41-2.85,0.2-3.74,1.78c-5.19,9.18-12.79,15.42-23.01,18.31
	c-1.82,0.51-2.69,1.52-2.78,3.33c-0.09,1.89-0.43,3.81-0.23,5.67c0.27,2.64-0.93,4.08-3.15,5.05c-0.82,0.36-1.56,0.9-2.37,1.28
	c-8.54,4.03-6.75,4.45-13.99-2.1c7.08-0.38,12.57-4.14,17.85-8.33c0.7-0.56,1.37-1.28,0.81-2.31c-0.45-0.83-1.33-0.99-2.1-0.78
	C164.85,159.05,162.88,158.84,161.15,159.76z M128.63,127c3.5-2.18,4.85-8.22,2.55-11.53c-0.91-1.31-2.15-2.08-3.8-1.92
	c-1.72,0.16-2.69,1.33-3.13,2.82c-1.1,3.71-1.02,7.27,1.8,10.32c-2.18-0.1-4.39-0.45-6.5,0.33c-1.53,0.56-2.94,1.44-3.18,3.25
	c-0.25,1.9,1.07,2.88,2.49,3.72c0.6,0.35,1.24,0.67,1.9,0.87c3.39,1.05,7.79,0.21,9.24-1.77C131.85,130.56,129.87,128.86,128.63,127
	z M167.31,127.41c0.08,0.73-0.18,1.33-0.53,1.96c-1.79,3.24-0.96,5.15,2.59,6.14c2.75,0.77,5.48,0.72,8.2-0.13
	c1.92-0.6,3.51-1.49,3.53-3.83c0.02-2.32-1.61-3.29-3.44-3.97c-2.17-0.81-4.47-0.89-6.77-0.83c1.97-3.17,2.17-6.54,1-10
	c-0.5-1.48-1.54-2.55-3.24-2.68c-1.44-0.11-2.46,0.53-3.21,1.73C163.3,119.22,164.2,124.81,167.31,127.41z M170.97,107.61
	c1.69,0,3.38-0.01,5.07,0c0.89,0.01,1.54-0.36,1.88-1.18c0.34-0.82,0.12-1.53-0.51-2.16c-2.3-2.27-11.16-2.87-13.71-0.91
	c-0.66,0.51-1.23,1.11-1.11,1.97c0.14,1.01,0.91,1.47,1.84,1.69C166.59,107.55,168.79,107.33,170.97,107.61z M128.41,101.78
	c-2.08,0.16-4.14,0.38-6.06,1.28c-0.85,0.4-1.52,0.95-1.43,2.02c0.11,1.25,1.03,1.73,2.05,1.75c3.47,0.07,6.94,0.06,10.4,0
	c1.04-0.02,1.96-0.55,2.13-1.7c0.18-1.19-0.69-1.8-1.59-2.25C132.19,102.02,130.3,101.9,128.41,101.78z M146.71,144.15
	c2.63,0.06,5.11-0.61,7.51-1.58c1.06-0.43,2.63-0.89,2.12-2.36c-0.51-1.48-1.96-0.85-3.11-0.53c-3.41,0.95-6.77,2.47-10.43,1.06
	c-0.63-0.24-1.2-0.03-1.45,0.63c-0.24,0.63,0.02,1.16,0.55,1.54C143.34,143.93,144.99,144.2,146.71,144.15z M144.78,122.68
	c-1.54,0.42-2.53,1.39-2.62,3.07c-0.08,1.45,0.56,2.72,2.11,2.59c1.65-0.14,2.5-1.45,2.55-3.1
	C146.87,123.89,146.2,123.01,144.78,122.68z"/>
<path class="st6" d="M196.82,52.04c2.89,2.28,4.04,4.74,3.26,7.84c-0.66,2.65,0.62,2.99,2.72,2.62c0.59-0.1,1.17-0.39,1.75-0.36
	c1.23,0.05,3.13-0.69,3.48,0.72c0.33,1.32-1.59,1.28-2.65,1.69c-1.96,0.76-1.99,2.3-0.1,3.85c4.98,4.08,8.56,9.13,10.52,15.27
	c0.92,2.89,1.32,5.68-0.65,8.53c-1.21,1.75-0.43,4.09-0.44,6.16c-0.04,7.49-2.3,10.07-9.86,11.07c-0.69,0.09-1.36,0.32-2.05,0.4
	c-8.01,0.99-11.23-3.15-9.82-11.17c0.32-1.79-0.09-1.9-1.39-1.84c-11.77,0.48-20.23-6.26-28.67-13.06c-0.62-0.5-1.13-1.13-1.72-1.67
	c-0.61-0.57-1.28-1.03-2.13-0.47c-0.79,0.52-0.88,1.35-0.61,2.13c0.67,1.98,1.48,3.92,2.12,5.9c0.32,0.99,1.21,2.13,0.29,3.08
	c-1,1.03-2.28,0.33-3.36-0.09c-5.17-2-9.85-4.79-13.74-8.81c-0.79-0.82-1.46-2.2-2.88-1.75c-1.67,0.53-1.05,2.13-1.18,3.35
	c-0.07,0.67,0.26,1.55-0.45,1.92c-0.95,0.5-1.46-0.45-1.92-1c-3.64-4.32-5.77-9.26-6.04-14.95c-0.04-0.89,0.08-1.88-0.85-2.41
	c-1.15-0.65-1.49,0.56-2.16,1.03c-8.8,6.18-12.17,15.7-15.47,25.22c-0.91,2.62-1.41,5.4-1.86,8.14c-0.27,1.66-0.96,1.94-2.43,1.56
	c-3.33-0.86-5.79-3.64-6.03-6.98c-0.35-4.9,0.37-9.61,3.11-13.75c1.15-1.75,0.86-3.04-0.03-4.63c-3.26-5.8-1.69-11.11,4.22-14.25
	c2.82-1.49,5.62-3.07,8.74-3.88c2.96-0.77,4.85-3.11,7.07-4.89c10.49-8.43,22.43-10.78,35.63-9.66c8.2,0.69,15.94,2.24,23.23,6.06
	c3.02,1.58,5.73,3.58,8.43,5.64c1.89,1.45,3.09,1.08,3.56-1.22C196.77,55.84,196.69,54.22,196.82,52.04z"/>
<path class="st7" d="M52.73,236.32c9,8.27,20.41,11.31,31.81,13.88c5.3,1.19,10.26-1.58,14.39-5.18c4.75-4.15,7.65-9.61,10.64-15.01
	c0.66-1.19,0.89-2.69,2.29-3.38c-0.72,5.81-1.43,11.62-2.17,17.43c-0.06,0.46-0.26,1.03-0.59,1.32c-4.47,3.93-8.36,8.56-13.81,11.34
	c-2.55,1.3-5.16,1.76-7.79,0.79c-10.56-3.88-21.45-6.89-31.65-11.72c-0.9-0.43-1.83-0.84-2.62-1.42
	C49.91,241.92,49.75,239.02,52.73,236.32z"/>
<path class="st8" d="M139.54,425.07c0,0.34-0.01,0.68-0.01,1.02c-1.68,3.15-3.8,6.08-4.63,9.64c-11.59,1.13-23.18,2.34-34.84,2.4
	c-0.8,0-1.6,0.02-2.39-0.07c-1.03-0.13-1.2-0.82-0.48-1.4c2.63-2.14,5.5-3.96,8.58-5.38c1.03-0.47,2,0.68,3.02,1.04
	c0.94,0.33,2.2,0.99,2.74,0.04c0.73-1.27-1.03-1.34-1.61-2.02c-0.24-0.29-0.57-0.5-1.06-0.92c1.49-0.53,2.5-0.2,3.36,0.73
	c0.7,0.76,1.49,1.11,2.3,0.24c0.78-0.83,0-1.39-0.46-2.04c-0.51-0.73-2.19-1.05-1.33-2.23c0.77-1.08,2.18-0.67,3.34-0.3
	c0.47,0.15,0.91,0.41,1.37,0.6c0.75,0.32,1.65,0.69,2.14-0.17c0.58-1.02-0.38-1.56-1.03-2.17c-0.57-0.54-2.11-0.38-1.62-1.64
	c0.4-1.01,1.6-1.03,2.63-1c0.3,0.01,0.6,0.03,0.9,0.04c0.9,1.73,2.67,1.47,4.14,1.68C129.57,423.86,134.56,424.44,139.54,425.07z"/>
<path class="st8" d="M200.77,426.84c2.62,5.38,4.64,10.98,6.45,16.67c0.6,1.88-0.15,2.97-1.96,3.21c-5.35,0.74-10.72,1.06-15.97-0.6
	c-1.77-0.56-2.99-1.8-3.92-3.47c-2.58-4.6-3.37-9.75-4.86-14.69c2.3,0.91,4.83,0.1,6.77-0.42
	C191.83,426.33,196.29,427.11,200.77,426.84z M193.64,437.9c-0.94,0.46-1.67,0.77-2.36,1.16c-0.75,0.43-2,0.83-1.59,1.83
	c0.58,1.42,1.82,0.36,2.52,0c3.32-1.72,6.66-1.85,10.12-0.57c0.51,0.19,1.13,0.48,1.72-0.32c-2.2-2.69-5.43-2.3-8.95-2.65
	c2.3-0.76,4.25,0.09,6.59-1.06c-3.11-1.41-5.67-1.41-8.29-0.71c-0.73,0.2-1.81,0.28-1.77,1.28
	C191.65,438.02,192.99,437.19,193.64,437.9z M187.48,431.87c4.09-0.98,7.52-1.92,11.07-1.62c0.43,0.04,0.84-0.22,0.8-0.67
	c-0.04-0.55-0.56-0.75-1.02-0.97C195.73,427.37,190.22,428.74,187.48,431.87z M196.75,434c0.99,0,1.9,0.05,2.79-0.02
	c0.34-0.03,0.83-0.24,0.94-0.5c0.25-0.58-0.25-1.01-0.72-1.07c-3.27-0.44-6.55-0.77-9.66,0.76c-0.52,0.26-1.14,0.72-0.91,1.37
	c0.36,1.01,1.15,0.4,1.76,0.24C192.89,434.29,194.82,433.77,196.75,434z"/>
<path class="st5" d="M35.27,228.76c-5.27-1.35-10.05-3.58-14.19-7.8c3.63-0.88,6.24,1.21,9.15,1.89c-0.3-2.1-0.3-2.1-4.63-4.11
	c-1.96-0.91-3.93-1.82-6.13-2.85c1-1.27,2.14-1.05,3.13-1.03c3.79,0.07,7.59,0.22,11.38,0.32c0.87,0.02,1.9,0.41,2.47-0.54
	c0.6-1-0.05-1.9-0.53-2.77c-0.69-1.27-2-2.19-2.4-4.63c4.69,3.27,9.45,5.23,12.99,9.06c0.54,0.58,0.87,1.36,0.7,2.21
	c-0.79,3.89-1.32,7.88-3.9,11.15C40.78,227.93,38.04,228.17,35.27,228.76z M32.44,223c0.68-2.15,1.79-3.68,0.99-5.63
	c-0.05-0.13-0.64-0.22-0.75-0.11c-1.44,1.44-1.08,3.22-0.85,4.97C31.83,222.3,31.93,222.37,32.44,223z M42.65,220.37
	c-0.71-1.83-2-2.7-3.66-3.12c-0.11-0.03-0.51,0.4-0.47,0.54c0.45,1.76,1.86,2.38,3.44,2.76C42.03,220.57,42.13,220.51,42.65,220.37z
	"/>
<path class="st9" d="M189.35,104c-7.69-0.27-14.08-3.98-20.41-7.77c-1.69-1.01-2.72-1.67-3.81,0.8c-1.03,2.33-4.55,2.94-8.4,1.88
	c-1.43-0.39-2.87-0.9-4.18-1.58c-2.75-1.42-5.02-3.28-8.41-0.4c-1.96,1.66-4.96-0.07-7.01-1.84c-3.77-3.25-6.41-7.34-8.33-11.88
	c-0.89-2.12-1.93-4.14-3.07-6.11c0.38-1.3,1.35-2.1,2.39-3.21c0.7,2.71,1.18,5.13,1.96,7.45c1.3,3.87,3.52,7.15,6.97,9.45
	c3.34,2.22,5.18,1.56,6.51-2.5c1.53,1.19,2.96,2.37,4.46,3.46c2.85,2.07,5.94,3.71,9.4,4.43c5.31,1.11,7.22-0.39,7.47-5.72
	c0.95-0.38,1.4,0.47,1.96,0.89c6.35,4.65,13.09,8.39,21.12,9.2C190.59,100.82,189.06,102.78,189.35,104z"/>
<path class="st7" d="M213.47,297.47c10-12.48,15.17-26.78,15.49-42.7c0.11-5.33-0.85-10.69-1.4-16.02c-0.11-1.1-0.35-2.16,0.07-3.23
	c4.41,11.63,7.22,23.35,2.97,35.74c-2.42,7.05-4.41,14.26-7.47,21.08C221.11,296.82,217.37,298.76,213.47,297.47z"/>
<path class="st7" d="M188.2,290.05c-1.76-4.58-0.62-8.65,2.14-12.47c0.32-0.44,0.35-1.14,0.39-1.72c0.36-5.28,1.27-10.39,3.66-15.21
	c1.19-2.39,0.07-4.9-0.55-7.27c-2.45-9.34-3.56-18.88-4.33-28.47c-0.1-1.21-0.47-2.63,0.85-3.57c2.63,10.82,5.63,21.57,7.63,32.5
	c0.47,2.58,0.61,5.97-0.41,8.97c-2.24,6.59-4.2,13.28-6.37,19.9c-0.51,1.55-0.26,2.92,0.26,4.34c1.21,3.25,1.2,3.25-2.39,3.11
	C188.79,290.15,188.49,290.09,188.2,290.05z"/>
<path class="st4" d="M159.94,177.44c4.75-2.28,9.86-3.5,13.25-7.66c0.4-0.49,0.85-0.48,1.31-0.2c2.04,1.25,4.07,2.52,6.1,3.8
	c0.98,0.62,0.69,1.25,0,1.92c-3.81,3.68-7.67,7.29-12.13,10.21c-1.19,0.78-1.92,0.6-2.73-0.5
	C163.91,182.54,162,180.12,159.94,177.44z"/>
<path class="st6" d="M190.71,303.32c-8.2,2.17-16.55,3.55-24.95,4.62c-2.96,0.38-5.94,0.66-8.92,0.79
	c-1.74,0.07-2.25,0.85-2.19,2.42c0.06,1.79,0.02,3.59,0.01,5.39c0,0.93-0.11,1.8-1.1,2.26c-2.39,1.11-7.41-1.25-7.78-3.81
	c-0.32-2.25-0.94-4.5-0.61-6.82c0.36,0.2,0.72,0.41,1.08,0.61c0.56,2.29,1.01,4.62,1.72,6.87c0.68,2.13,2.55,2.44,4.4,2.01
	c1.84-0.43,1.15-2.15,1.01-3.26c-0.27-2.07-0.56-4.11-0.47-6.2c0.27-0.13,0.77-0.25,0.77-0.38c0.11-3.82,2.85-3.25,5.27-3.18
	c9.21,0.26,18.18-1.57,27.14-3.3C188.43,300.87,189.67,301.5,190.71,303.32z"/>
<path class="st7" d="M150.02,297.5c-0.36-1.54,0.43-1.93,1.79-1.87c10.78,0.51,21.43-1.27,32.15-1.84c2.64-0.14,5.27-0.66,7.95-1.01
	c-0.66,4.91-0.82,5.05-5.45,5.23c-0.28-1.19-1.24-1.1-2.14-1.13c-5.89-0.21-11.74,0.57-17.6,0.89
	C161.15,298.06,155.58,298.45,150.02,297.5z"/>
<path class="st4" d="M144.31,169.28c1.19-0.21,1.6,0.19,1.98,0.69c1.75,2.31,3.76,4.36,6.15,6.02c0.99,0.68,1.06,1.18,0.05,1.99
	c-2.08,1.68-4.12,3.43-6.03,5.31c-1.25,1.22-1.8,0.61-2.43-0.5c-1.57-2.76-3.11-5.54-4.75-8.26c-0.92-1.52-0.77-2.51,0.94-3.25
	C141.75,170.61,143.23,169.81,144.31,169.28z"/>
<path class="st7" d="M119.35,297.36c-2.81-0.09-5.5-0.89-8.19-1.6c-2.38-0.63-1.51-2.58-1.26-3.96c0.33-1.85,1.67-0.7,2.6-0.45
	c8.02,2.15,16.26,2.9,24.49,3.68c2.97,0.28,5.97,0.36,8.96,0.5c1.33,0.06,2.53,0.16,1.83,2.02c-8.08-0.07-16.15-0.23-24.2-1.2
	C122.24,296.18,120.33,295.29,119.35,297.36z"/>
<path class="st6" d="M120.5,305.24c-0.36,1.59-1.27,2.49-2.99,2.36c0.48-0.57,0.96-1.14,1.44-1.72c1.22-1.45-0.23-1.16-0.9-1.38
	c0.38-0.7,0.73-1.4,1.13-2.08c0.4-0.69,0.83-1.54,1.81-1.2c1.11,0.39-0.18,1.45,0.59,2.21c0.76-1.86,2.11-1.87,3.86-1.55
	c5.67,1.04,11.36,2.13,17.15,2.07c3.5-0.03,2.29,2.43,2.56,4.16c-8.1-0.46-16.2-0.89-24.1-2.97
	C120.86,305.18,120.68,305.21,120.5,305.24z"/>
<path class="st4" d="M150.02,297.5c5.55,0.96,11.12,0.56,16.7,0.26c5.87-0.32,11.71-1.09,17.6-0.89c0.9,0.03,1.86-0.06,2.14,1.13
	c-11.03,2.12-22.12,3.62-33.37,3.76C150.03,301.8,149.99,299.68,150.02,297.5z"/>
<path class="st4" d="M196.07,291.66c5.33,4.15,11.33,6.13,16.97,8.81c0.81,0.38,2.48,0.2,1.82,2c-0.57,1.57-1.42,2.56-3.34,1.99
	c-5.27-1.56-10.29-3.69-15.1-6.34C193.03,296.25,195.82,294.04,196.07,291.66z"/>
<path class="st6" d="M148.66,341.74c-1.64-1.08-1.08-3.1-2.26-4.93c-1.17,7.6-0.52,14.98-2.39,22.22c0-1.87-0.1-3.74,0.02-5.6
	c0.44-6.64,1.1-13.27,1.36-19.92c0.08-2.02-0.81-4.09-2.06-5.83c-0.85-1.18-1.34-2.44-1.22-3.91c0.74,0.26,1.5,0.5,2.22,0.79
	c5.85,2.38,6.08,2.41,5.45,8.5C149.48,335.94,149.88,338.96,148.66,341.74z"/>
<path class="st6" d="M204.52,389.68c0.34-15.53,0.47-31.05,0.74-46.58c0.1-5.54,0.13-11.13,0.72-16.71
	c1.39,3.15,1.07,6.55,0.74,9.76c-0.62,6.08-0.27,12.15-0.47,18.22c-0.11,3.48,0.11,6.96-0.46,10.44c-0.2,1.23-0.98,3.07,1.08,3.87
	c0.42,8.67-0.85,17.3-0.62,26.14C204.72,393.26,206.95,390.73,204.52,389.68z"/>
<path class="st4" d="M119.35,297.36c0.98-2.06,2.89-1.18,4.24-1.01c8.04,0.96,16.12,1.13,24.2,1.2c-0.69,4.38-0.69,4.4-5.29,3.98
	C134.67,300.8,126.98,299.24,119.35,297.36z"/>
<path class="st9" d="M161.15,159.76c1.72-0.92,3.7-0.71,5.52-1.19c0.77-0.2,1.64-0.05,2.1,0.78c0.56,1.03-0.11,1.75-0.81,2.31
	c-5.28,4.19-10.78,7.96-17.85,8.33c-0.39-2.67,0.12-3.68,2.18-4.23c2.53-0.67,4.9-1.69,7.06-3.16
	C160.33,161.93,161.32,161.2,161.15,159.76z"/>
<path class="st9" d="M111.93,133.81c-4.37-3.79-7.06-7.71-5.85-13.28c0.21-0.95,0.61-1.9,1.13-2.73c0.69-1.09,1.6-2.33,3.03-1.96
	c1.24,0.32,0.96,1.81,1.16,2.83C112.33,123.49,112.23,128.35,111.93,133.81z"/>
<path class="st4" d="M46.63,230.92c1.55-4.59,3.16-9.17,3.13-14.12c4.26,0.84,4.65,1.41,4.34,5.28c-0.3,3.8-0.91,7.47-3.23,10.64
	C49.46,232.11,48.05,231.51,46.63,230.92z"/>
<path class="st6" d="M200.77,426.84c-4.48,0.27-8.94-0.51-13.49,0.71c-1.94,0.52-4.47,1.33-6.77,0.42c-0.41-0.9-1.07-2.25,0.53-2.23
	c3.1,0.04,5.74-1.54,8.68-1.92c3.19-0.41,6.32,0.34,9.46,0.64C200.61,424.61,200.89,425.62,200.77,426.84z"/>
<path class="st6" d="M205.71,417.13c-1.62,0.12-3.57-0.14-2.81-2.18c1.74-4.66,0.61-9.4,1-14.08c0.05-0.59,0.12-1.18,0.19-1.77
	c1.37,0.06,2.3,0.54,2.16,2.14c-0.12,1.42,0.27,2.76,0.76,4.05c1.27,3.33,1.63,6.53-1.05,9.41
	C205.28,415.45,205.12,416.25,205.71,417.13z"/>
<path class="st3" d="M152.9,308.19c-0.09,2.09,0.2,4.13,0.47,6.2c0.14,1.11,0.83,2.83-1.01,3.26c-1.84,0.43-3.72,0.12-4.4-2.01
	c-0.71-2.24-1.16-4.57-1.72-6.87c0.03-0.18,0.05-0.36,0.08-0.54C148.52,308.22,150.71,308.21,152.9,308.19L152.9,308.19z"/>
<path class="st6" d="M88.02,216.62c-0.4,1.37,0.65,1.89,1.48,2.58c2.36,1.97,4.61,4.05,5.88,6.94c0.44,0.99,0.93,1.99,0.72,3.12
	c-0.15,0.78-0.43,1.69-1.22,1.92c-1.03,0.31-1.19-0.78-1.57-1.41c-0.51-0.84-0.98-1.71-1.47-2.57c-0.87-2.2-2.46-3.96-3.72-5.92
	C88.48,219.72,85.94,218.22,88.02,216.62z"/>
<path class="st6" d="M111.4,408.4c1.04,0.14,2.09,0.28,3.13,0.43c0.94,0.8,2.08,0.44,3.14,0.57c4.99,0.62,10.01,1.15,14.78,2.88
	c-2.31,1.54-4.59-0.01-6.84-0.19c-3.96-0.32-7.88-0.61-11.79,0.3C113.02,411.05,112.21,409.72,111.4,408.4z"/>
<path class="st5" d="M209.76,308.83c-1.3,4.02-1.3,4.02-4.8,2.04c-2.68-1.52-5.44-2.93-7.71-5.07c0.24-0.28,0.47-0.55,0.71-0.83
	c0.95,0.33,1.85,0.85,2.91,0.72C203.51,307.66,206.56,308.46,209.76,308.83z"/>
<path class="st6" d="M110.27,304.8c1.29-1.44-0.82-4.58,1.99-5.21c1.11-0.25,3.87-0.67,4.28,1.91c0.19,1.19-4.36,5.34-5.42,5.19
	C110.08,306.53,110.42,305.67,110.27,304.8z"/>
<path class="st6" d="M139.54,425.07c-4.98-0.63-9.96-1.21-14.93-1.93c-1.47-0.21-3.24,0.05-4.14-1.68
	c5.93,0.28,11.78,1.59,17.77,1.21C139.84,422.57,139.67,423.95,139.54,425.07z"/>
<path class="st7" d="M88.13,221.29c1.26,1.96,2.85,3.71,3.72,5.92c-1.22,0.95-0.4,1.99-0.08,2.95c0.41,1.24,0.73,2.48,0.51,3.77
	c-0.16,0.97-0.37,2.15-1.85,1.18c0-5.3-1.54-10.08-4.78-14.3C86.97,218.46,87.21,221.59,88.13,221.29z"/>
<path class="st6" d="M152.9,308.19c-2.19,0.02-4.38,0.03-6.57,0.05c-0.11-4.34,1.09-5.12,5.14-3.71
	C153.59,305.27,152.65,306.89,152.9,308.19z"/>
<path class="st6" d="M134.89,435.72c0.83-3.56,2.96-6.49,4.63-9.64c0.22,2.06-0.2,4.13-0.18,6.15
	C139.38,435.74,137.61,436.14,134.89,435.72z"/>
<path class="st7" d="M46.63,230.92c1.41,0.6,2.82,1.19,4.24,1.79c-1.48,4.02-2.48,4.54-5.2,3.1c-1.74-0.92-1.84-1.77-0.52-3.08
	C45.7,232.19,46.14,231.53,46.63,230.92z"/>
<path class="st6" d="M85.66,220.8c3.24,4.22,4.77,9.01,4.78,14.3c-1.51-1.93-1.43-4.43-2.39-6.56c-1.16-2.58-2.36-5.15-3.55-7.72
	C84.88,220.82,85.27,220.81,85.66,220.8z"/>
<path class="st9" d="M209.76,308.83c-3.2-0.37-6.25-1.17-8.89-3.14c0.01-0.41,0.03-0.82,0.04-1.22c3,0.24,5.58,1.84,8.4,2.64
	C210.31,307.39,210.55,308.02,209.76,308.83z"/>
<path class="st3" d="M118.04,304.51c0.67,0.22,2.12-0.08,0.9,1.38c-0.48,0.57-0.96,1.14-1.44,1.72c0,0-0.01,0.01-0.01,0.01
	c-1.93,0.75-3.57,1.88-4.79,3.58c0,0-0.02,0.01-0.02,0.01c-0.5-0.01-0.92,0.14-1.19,0.59c0,0,0,0,0,0c-0.21,0.03-0.42,0.07-0.63,0.1
	c-1.07-1.22-0.29-1.89,0.71-2.6C113.76,307.73,115.89,306.11,118.04,304.51z"/>
<path class="st1" d="M35.27,228.76c2.78-0.59,5.51-0.83,8.02,0.9c-0.37,1.43-1.35,1.53-2.52,1.11
	C38.93,230.11,37.1,229.43,35.27,228.76z"/>
<path class="st10" d="M200.91,304.47c-0.01,0.41-0.03,0.82-0.04,1.22c-1.06,0.13-1.96-0.4-2.91-0.72c-0.62-1.19-1.52-2.03-2.87-2.32
	c0.26-0.52,0.15-1.74,1.06-1.25C197.8,302.31,199.82,302.7,200.91,304.47z"/>
<path class="st6" d="M116.95,182.46c2.03,2.55,1.45,5.54,1.4,8.45c-1.52-2.5-1.19-5.33-1.43-8.06
	C116.89,182.71,116.9,182.58,116.95,182.46z"/>
<path class="st6" d="M143.89,413.6c-0.69-0.01-1.39,0.06-2.06-0.05c-0.93-0.14-2.61,0.52-2.4-1.14c0.14-1.12,1.56-1.27,2.72-0.85
	c0.36,0.13,0.76,0.17,1.15,0.25C143.5,412.4,143.7,413,143.89,413.6z"/>
<path class="st9" d="M195.09,302.66c1.35,0.28,2.25,1.13,2.87,2.32c-0.24,0.27-0.47,0.55-0.71,0.83
	C196.12,305.04,194.86,304.35,195.09,302.66z"/>
<path class="st7" d="M201.69,254.82c0.11-0.02,0.22-0.01,0.33,0.05c0.07,0.38,0.14,0.76,0.2,1.14c-0.24,0.04-0.48,0.08-0.72,0.11
	C201.56,255.68,201.62,255.25,201.69,254.82z"/>
<path class="st6" d="M110.87,311.89c0.21-0.03,0.42-0.07,0.63-0.1c-0.01,0.21-0.03,0.41-0.04,0.62
	C111.26,312.24,111.06,312.07,110.87,311.89z"/>
<path class="st2" d="M225.17,74.57c-0.09,0.12-0.18,0.23-0.27,0.35c-0.09-0.11-0.2-0.21-0.27-0.34c-0.02-0.03,0.1-0.19,0.13-0.18
	C224.9,74.43,225.04,74.51,225.17,74.57z"/>
<path class="st6" d="M193.79,414.82c-3.6-0.08-7.12,0.51-10.65,1.08c-0.78,0.13-2.05,0.58-2.23-0.66c-0.13-0.94,1.06-0.95,1.8-1.15
	c4.87-1.28,9.85-1.23,14.83-1.08c0.7,0.02,1.65,0.13,1.66,0.93c0.02,1.21-1.12,0.83-1.83,0.87
	C196.18,414.87,194.99,414.82,193.79,414.82z"/>
<path class="st0" d="M132.45,412.27c-4.78-1.73-9.79-2.27-14.78-2.88c-1.06-0.13-2.21,0.24-3.14-0.57c1.59-1.8,3.53-0.76,5.33-0.62
	c4.38,0.34,8.62,1.39,12.83,2.61c0.53,0.15,1.31,0.36,1.1,1.11C133.63,412.46,132.94,412.29,132.45,412.27z"/>
<path class="st6" d="M140.77,409.78c0.49-6.79-0.01-13.61,1.07-20.39C141.98,396.21,142.51,403.02,140.77,409.78z"/>
<path class="st6" d="M142.42,383.35c-0.48-6.28,0.34-12.42,1.21-18.55C144.08,371.06,143.23,377.23,142.42,383.35z"/>
<path class="st6" d="M188.29,306.39c2.14,1.74,4.28,3.48,6.73,5.47c-3.42-0.28-6.01-2.52-6.74-5.45L188.29,306.39z"/>
<path class="st6" d="M199.13,314.73c2.09,0.29,3.89,1.06,4.91,3.17c-1.99-0.45-3.75-1.32-5-3.08L199.13,314.73z"/>
<path class="st6" d="M112.71,311.19c1.21-1.71,2.86-2.83,4.79-3.58C116.81,310.02,114.95,310.85,112.71,311.19z"/>
<path class="st6" d="M111.5,311.79c0.27-0.45,0.69-0.6,1.19-0.59C112.45,311.7,112.02,311.83,111.5,311.79z"/>
<path class="st0" d="M120.5,305.24c0.18-0.03,0.36-0.05,0.55-0.08C120.86,305.19,120.68,305.22,120.5,305.24z"/>
<path class="st6" d="M199.04,314.82c-0.06-0.05-0.12-0.11-0.18-0.16c0.09,0.02,0.18,0.05,0.27,0.07
	C199.13,314.73,199.04,314.82,199.04,314.82z"/>
<path class="st6" d="M188.27,306.41c-0.06-0.04-0.12-0.07-0.19-0.11c0.07,0.03,0.13,0.06,0.2,0.09
	C188.29,306.39,188.27,306.41,188.27,306.41z"/>
<path class="st7" d="M202.69,256.79c-0.02-0.27-0.04-0.54-0.05-0.8c0.01-0.37,0.02-0.74,0.03-1.12l-0.03,0.03
	c0.46-0.13,1-0.14,1.38-0.4c3.45-2.33,6.95-4.55,11.17-5.28c0.26-0.05,0.44-0.58,0.66-0.88c1.9,1.15,1.35,2.27-0.22,3.05
	c-1.57,0.78-3.28,1.28-5.6,2.16c3.06,0.31,5.59-0.28,7.78,1.13c1.3,0.83,2.37,1.66,1.08,3.3
	C213.63,255.73,208.19,255.83,202.69,256.79z"/>
<path class="st7" d="M170.81,235.24c1.74-2.75,4.8-3.78,7.41-5.2c2.88-1.56,3.75-3.78,4.08-6.65c0.2-1.74,0.19-3.56,1.32-5.07
	c0.93,1.15,0.34,2.49,0.48,3.74c0.29,2.65-1,5.31,0.02,7.96c-0.15,0.3-0.29,0.61-0.44,0.91c-4.47,0.56-8.01,3.08-11.63,5.45
	C171.35,236.34,170.93,235.95,170.81,235.24z"/>
<path class="st6" d="M170.81,235.24c0.12,0.71,0.54,1.09,1.25,1.15c0.01,0.29,0.03,0.58,0.04,0.88c-4.48-0.66-7.66-3.65-11.04-6.26
	c-0.35-0.27-0.59-0.85-0.63-1.31c-0.42-5.13-0.5-10.26,0.24-15.36c0.29,0,0.58,0,0.87,0c0,4.4,0.05,8.8-0.02,13.19
	c-0.03,1.8,0.58,2.91,2.26,3.73C166.21,232.44,168.48,233.9,170.81,235.24z"/>
<path class="st0" d="M162.51,212.39c6.09-0.77,12.13-0.85,18.18-0.45c0.75,0.05,1.93,0.06,1.97,0.92c0.06,1.25-1.26,1.03-2.04,1.05
	C174.53,214.06,168.46,213.84,162.51,212.39z"/>
<path class="st6" d="M205.32,187.57c-5.1,4.89-8.82,10.74-11.99,16.98C195.44,197.57,198.88,191.52,205.32,187.57z"/>
<path class="st0" d="M215.85,248.33c-0.22,0.31-0.39,0.84-0.66,0.88c-4.22,0.73-7.72,2.95-11.17,5.28c-0.38,0.25-0.91,0.27-1.38,0.4
	C204.75,250.35,211.45,247.02,215.85,248.33z"/>
<path class="st6" d="M202.69,256.79c5.5-0.95,10.93-1.05,16.2,1.18c-0.49,0.87-1.18,1.39-2.21,1.01c-4.05-1.49-8.24-1.15-12.42-1.13
	C203.69,257.86,202.12,258.71,202.69,256.79z"/>
<path class="st6" d="M184.13,230.03c-1.02-2.65,0.28-5.31-0.02-7.96c-0.14-1.25,0.45-2.59-0.48-3.74c-0.06-1.34,0.19-2.53,1.74-3.68
	c0.8,4.13,0.07,7.86-0.13,11.57C185.17,227.54,185.59,229.08,184.13,230.03z"/>
<path class="st0" d="M172.1,237.27c-0.01-0.29-0.03-0.58-0.04-0.88c3.61-2.37,7.16-4.9,11.63-5.45c-0.3,1.81-1.96,2.18-3.22,2.77
	C177.74,235.01,175.31,237.08,172.1,237.27z"/>
<path class="st0" d="M157.26,195.24c1.04,0.16,1.61,0.75,1.57,1.8c-0.03,1.01-0.58,1.7-1.62,1.75c-1.04,0.04-1.73-0.57-1.76-1.59
	C155.42,196.06,156.15,195.42,157.26,195.24z"/>
<path class="st0" d="M152.76,274.17c-0.05,0.99-0.46,1.73-1.51,1.86c-1.03,0.13-1.75-0.38-1.86-1.42c-0.12-1.13,0.46-1.96,1.61-2.06
	C152.05,272.45,152.56,273.2,152.76,274.17z"/>
<path class="st0" d="M153.62,243.97c-0.13,1.21-0.6,1.94-1.71,1.82c-1.02-0.12-1.55-0.85-1.51-1.88c0.04-1.04,0.59-1.7,1.69-1.61
	C153.19,242.39,153.54,243.18,153.62,243.97z"/>
<path class="st0" d="M155.42,215.3c-0.06,0.98-0.48,1.79-1.56,1.76c-1-0.02-1.61-0.73-1.63-1.75c-0.02-1.04,0.56-1.7,1.6-1.73
	C154.93,213.54,155.39,214.25,155.42,215.3z"/>
<path class="st0" d="M202.67,254.86c-0.01,0.37-0.02,0.75-0.03,1.12c0,0-0.21,0.03-0.21,0.03s-0.21-0.01-0.21-0.01
	c-0.07-0.38-0.14-0.76-0.2-1.14C202.23,254.87,202.45,254.86,202.67,254.86z"/>
<path class="st9" d="M170.89,126.75c2.3-0.06,4.6,0.03,6.77,0.83c1.83,0.68,3.46,1.65,3.44,3.97c-0.02,2.33-1.62,3.23-3.53,3.83
	c-2.72,0.85-5.45,0.9-8.2,0.13c-3.54-0.99-4.38-2.9-2.59-6.14c0.35-0.63,0.61-1.24,0.53-1.96
	C168.56,127.51,169.78,127.42,170.89,126.75z"/>
<path class="st9" d="M128.63,127c1.24,1.85,3.23,3.56,1.37,6.09c-1.45,1.98-5.85,2.82-9.24,1.77c-0.66-0.21-1.3-0.52-1.9-0.87
	c-1.42-0.84-2.74-1.82-2.49-3.72c0.24-1.81,1.65-2.68,3.18-3.25c2.11-0.78,4.32-0.43,6.5-0.33
	C126.91,126.79,127.77,126.9,128.63,127z"/>
<path class="st0" d="M128.63,127c-0.86-0.11-1.72-0.21-2.58-0.32c-2.82-3.05-2.9-6.61-1.8-10.32c0.44-1.49,1.41-2.66,3.13-2.82
	c1.65-0.16,2.9,0.61,3.8,1.92C133.48,118.78,132.12,124.82,128.63,127z"/>
<path class="st0" d="M170.89,126.75c-1.11,0.68-2.33,0.77-3.58,0.66c-3.11-2.59-4.01-8.19-1.88-11.6c0.75-1.2,1.77-1.85,3.21-1.73
	c1.71,0.13,2.74,1.2,3.24,2.68C173.06,120.2,172.86,123.58,170.89,126.75z"/>
<path class="st0" d="M170.97,107.61c-2.18-0.28-4.38-0.06-6.54-0.57c-0.93-0.22-1.71-0.69-1.84-1.69c-0.12-0.87,0.45-1.46,1.11-1.97
	c2.55-1.96,11.41-1.37,13.71,0.91c0.64,0.63,0.85,1.34,0.51,2.16c-0.34,0.82-0.99,1.19-1.88,1.18
	C174.35,107.6,172.66,107.61,170.97,107.61z"/>
<path class="st0" d="M128.42,101.78c1.88,0.12,3.77,0.24,5.5,1.09c0.91,0.45,1.77,1.06,1.59,2.25c-0.17,1.16-1.1,1.68-2.13,1.7
	c-3.47,0.07-6.94,0.08-10.4,0c-1.02-0.02-1.94-0.5-2.05-1.75c-0.1-1.07,0.58-1.62,1.43-2.02
	C124.27,102.16,126.34,101.94,128.42,101.78z"/>
<path class="st0" d="M146.71,144.15c-1.72,0.05-3.36-0.22-4.8-1.24c-0.53-0.37-0.79-0.91-0.55-1.54c0.25-0.66,0.83-0.87,1.45-0.63
	c3.66,1.41,7.01-0.11,10.43-1.06c1.14-0.32,2.6-0.95,3.11,0.53c0.51,1.47-1.06,1.93-2.12,2.36
	C151.82,143.55,149.33,144.21,146.71,144.15z"/>
<path class="st9" d="M144.78,122.68c1.43,0.32,2.09,1.21,2.05,2.55c-0.05,1.66-0.91,2.97-2.55,3.1c-1.56,0.13-2.19-1.14-2.11-2.59
	C142.25,124.08,143.24,123.1,144.78,122.68z"/>
<path class="st0" d="M193.64,437.9c-0.64-0.71-1.98,0.12-2.03-1.05c-0.04-0.99,1.04-1.08,1.77-1.28c2.62-0.7,5.18-0.7,8.29,0.71
	c-2.33,1.15-4.29,0.3-6.59,1.06c3.52,0.36,6.75-0.03,8.95,2.65c-0.59,0.81-1.21,0.51-1.72,0.32c-3.47-1.28-6.8-1.15-10.12,0.57
	c-0.7,0.36-1.94,1.42-2.52,0c-0.41-1,0.84-1.41,1.59-1.83C191.96,438.67,192.7,438.35,193.64,437.9z"/>
<path class="st0" d="M187.48,431.87c2.75-3.13,8.25-4.5,10.85-3.25c0.46,0.22,0.98,0.42,1.02,0.97c0.03,0.44-0.38,0.7-0.8,0.67
	C195,429.94,191.56,430.88,187.48,431.87z"/>
<path class="st0" d="M196.75,434c-1.93-0.23-3.86,0.29-5.8,0.78c-0.61,0.15-1.4,0.76-1.76-0.24c-0.23-0.66,0.39-1.12,0.91-1.37
	c3.11-1.54,6.39-1.21,9.66-0.76c0.46,0.06,0.97,0.49,0.72,1.07c-0.11,0.26-0.6,0.48-0.94,0.5C198.65,434.04,197.75,434,196.75,434z"
	/>
<path class="st6" d="M32.44,223c-0.51-0.63-0.6-0.7-0.61-0.77c-0.23-1.75-0.58-3.52,0.85-4.97c0.11-0.11,0.7-0.02,0.75,0.11
	C34.22,219.32,33.11,220.85,32.44,223z"/>
<path class="st6" d="M42.65,220.37c-0.52,0.14-0.61,0.2-0.69,0.18c-1.58-0.38-2.99-1-3.44-2.76c-0.04-0.14,0.36-0.57,0.47-0.54
	C40.65,217.67,41.94,218.54,42.65,220.37z"/>
</svg>
