<?xml version="1.0" standalone="no"?>
<!DOCTYPE svg PUBLIC "-//W3C//DTD SVG 20010904//EN"
 "http://www.w3.org/TR/2001/REC-SVG-20010904/DTD/svg10.dtd">
<svg version="1.0" xmlns="http://www.w3.org/2000/svg"
 width="4267.000000pt" height="4267.000000pt" viewBox="0 0 4267.000000 4267.000000"
 preserveAspectRatio="xMidYMid meet">

<g transform="translate(0.000000,4267.000000) scale(0.100000,-0.100000)"
fill="#000000" stroke="none">
<path d="M26512 36526 c-168 -266 -282 -585 -332 -926 -25 -166 -35 -440 -22
-580 5 -58 9 -106 7 -108 -5 -5 -83 124 -114 189 -17 35 -38 102 -47 149 -8
47 -23 117 -31 155 -9 39 -18 135 -21 215 -7 217 21 379 132 775 24 88 43 161
42 162 -2 2 -133 4 -292 6 -334 2 -368 -3 -519 -79 -248 -127 -431 -295 -606
-558 -86 -130 -211 -372 -274 -531 -22 -55 -40 -101 -41 -103 -5 -8 -139 68
-287 160 -144 91 -328 188 -354 188 -26 0 -31 -269 -8 -406 30 -175 88 -342
196 -561 165 -336 368 -557 842 -915 l118 -90 -113 -75 c-310 -207 -482 -378
-578 -576 -33 -70 -69 -184 -70 -224 0 -6 20 -19 45 -29 66 -25 152 -15 415
51 332 82 605 134 708 135 l32 0 0 -180 c0 -333 31 -496 130 -693 83 -163 100
-232 107 -437 l5 -165 -85 -63 c-95 -70 -197 -174 -197 -201 0 -18 73 -129
138 -211 19 -25 40 -50 44 -57 22 -29 -202 -74 -467 -93 -82 -6 -186 -15 -230
-21 -94 -12 -245 -48 -245 -59 0 -20 86 -296 130 -416 77 -209 141 -357 270
-619 216 -439 257 -498 385 -560 89 -43 185 -62 357 -71 l136 -7 6 -116 c27
-487 61 -666 176 -937 100 -237 316 -587 463 -749 55 -60 234 -265 397 -455
163 -190 356 -411 428 -491 145 -161 167 -176 329 -222 73 -21 97 -22 374 -21
l297 0 -33 -50 c-89 -140 -167 -330 -212 -516 -22 -90 -26 -136 -30 -327 l-5
-222 30 -65 c17 -36 38 -100 47 -144 l16 -79 -143 -144 c-221 -223 -285 -331
-403 -680 -85 -253 -126 -329 -240 -448 -50 -53 -135 -158 -189 -234 -53 -75
-134 -183 -179 -238 -111 -137 -152 -203 -209 -344 -86 -208 -148 -326 -202
-383 -27 -29 -111 -100 -187 -158 -76 -58 -154 -123 -174 -146 -21 -22 -64
-97 -97 -166 -32 -69 -74 -144 -92 -167 -47 -57 -115 -91 -219 -108 -101 -18
-153 -44 -257 -131 -57 -47 -70 -64 -70 -87 0 -42 65 -379 98 -508 l29 -111
-86 -64 c-47 -34 -111 -81 -141 -103 -30 -22 -109 -89 -175 -147 -66 -59 -171
-146 -234 -193 -63 -48 -162 -129 -221 -182 -59 -53 -164 -145 -234 -206 -70
-60 -158 -138 -197 -171 -38 -34 -116 -94 -173 -133 -57 -40 -157 -115 -222
-168 -212 -171 -392 -277 -608 -358 -467 -174 -1077 -191 -1519 -42 -217 74
-361 100 -792 142 -442 43 -610 77 -870 175 -174 65 -276 94 -424 119 -163 28
-167 27 -214 -15 -48 -44 -125 -80 -197 -94 -29 -5 -123 -10 -209 -10 -288 0
-369 -21 -691 -179 -262 -128 -302 -136 -496 -101 -105 19 -171 35 -556 134
-281 73 -429 97 -618 103 -156 5 -189 2 -615 -51 -604 -76 -1371 -168 -2745
-331 -630 -75 -1350 -160 -1600 -190 -250 -30 -520 -58 -599 -61 l-144 -7 7
244 c15 541 73 1974 89 2194 l12 170 40 9 c24 6 1268 10 3160 10 2437 1 3127
4 3154 13 41 15 77 47 99 88 20 38 19 165 -2 325 -28 209 -44 411 -361 4335
-188 2335 -266 3291 -365 4465 -38 454 -81 967 -95 1140 -15 173 -31 332 -36
352 -16 61 -68 119 -139 156 l-65 32 -1060 110 c-3717 386 -6925 722 -8980
941 -1053 112 -1136 119 -1212 109 -186 -24 -370 -96 -469 -184 -68 -60 -115
-149 -121 -230 -3 -33 25 -425 61 -871 84 -1033 172 -2144 341 -4315 373
-4781 490 -6223 511 -6299 10 -34 28 -67 47 -86 32 -32 33 -32 167 -39 74 -3
419 -6 765 -6 596 1 867 -5 908 -19 15 -6 -17 -41 -165 -186 -101 -99 -254
-261 -339 -360 -351 -407 -694 -747 -1069 -1060 -52 -44 -187 -170 -300 -280
-298 -291 -402 -375 -765 -620 -194 -131 -471 -329 -576 -412 -195 -154 -601
-503 -727 -626 -87 -84 -98 -99 -152 -211 -32 -67 -81 -184 -109 -261 -29 -77
-56 -150 -61 -162 -6 -14 -39 -36 -92 -61 -51 -23 -94 -52 -112 -73 -28 -33
-28 -35 -21 -119 4 -47 10 -321 14 -610 6 -467 8 -528 24 -557 31 -57 91 -81
265 -103 46 -6 89 -13 95 -16 7 -2 31 -69 55 -147 55 -181 285 -814 323 -889
33 -65 115 -201 183 -303 53 -79 166 -296 166 -318 0 -8 -45 -35 -110 -66 -70
-33 -110 -57 -110 -67 0 -8 7 -46 16 -85 18 -78 10 -75 131 -58 179 25 253 96
253 245 0 99 -27 164 -186 440 -239 416 -420 835 -500 1152 l-19 74 23 18 c12
10 46 21 75 24 28 3 799 11 1712 16 913 6 1759 15 1880 21 198 8 557 0 571
-14 23 -22 34 -1327 14 -1528 -6 -57 -28 -228 -50 -379 -48 -338 -60 -468 -60
-635 0 -161 13 -279 45 -413 61 -253 8 -479 -161 -690 -119 -149 -258 -251
-463 -340 -171 -74 -580 -238 -901 -362 -146 -56 -314 -127 -375 -158 -251
-128 -442 -287 -560 -467 -92 -139 -195 -353 -249 -518 l-49 -147 -372 0 -372
0 -36 78 c-83 178 -117 324 -124 538 -12 338 43 501 319 954 206 338 266 462
315 650 23 85 26 120 31 332 l4 238 102 60 c55 34 112 70 124 80 24 20 24 20
5 51 -32 57 -66 74 -141 73 -86 0 -154 -29 -215 -92 -65 -67 -71 -95 -73 -377
-1 -268 -8 -314 -70 -463 -49 -120 -117 -245 -249 -457 -305 -493 -360 -646
-359 -1005 1 -193 19 -330 74 -539 17 -62 30 -115 30 -117 0 -2 -129 -4 -287
-4 -412 -1 -546 -21 -619 -94 -70 -69 -75 -121 -49 -477 28 -396 86 -1348 155
-2574 78 -1376 125 -2148 170 -2785 27 -366 33 -427 48 -438 39 -31 243 -123
317 -144 75 -22 96 -23 366 -21 l286 2 7 -46 c3 -25 3 -61 0 -82 -7 -44 11
-188 28 -225 34 -77 265 -126 496 -106 175 15 217 26 257 66 45 45 55 84 64
241 3 72 9 134 12 137 8 8 988 -16 2039 -49 1049 -34 3777 -139 3784 -146 3
-2 13 -99 23 -214 l18 -210 115 -18 c78 -13 175 -19 300 -20 345 -3 372 18
376 301 1 79 4 145 7 148 2 3 92 0 198 -6 563 -31 682 -31 746 3 44 23 88 80
107 139 29 92 17 345 -25 513 -80 315 -301 493 -684 550 -60 9 -223 20 -363
25 -140 5 -256 11 -258 12 -2 2 8 161 21 353 30 416 46 758 44 950 -1 124 18
421 66 1020 20 240 51 549 74 729 l18 139 -76 34 c-183 83 -441 157 -661 189
-124 17 -127 17 -305 -5 -99 -12 -425 -62 -725 -111 -463 -76 -740 -116 -912
-132 -35 -4 -36 -3 -43 37 -5 34 -25 7965 -20 7973 1 1 654 13 1451 27 1647
28 2624 47 3959 75 2060 43 1953 41 3830 95 1133 32 2444 64 2674 65 l33 0 -5
-417 c-3 -230 -8 -427 -11 -438 -7 -20 -8 -20 -142 -3 -546 68 -1204 43 -1899
-73 -692 -115 -1242 -317 -1670 -614 -133 -92 -245 -195 -449 -411 -203 -215
-234 -261 -281 -429 -174 -610 -100 -1173 221 -1692 167 -270 277 -409 537
-681 252 -262 382 -445 622 -872 54 -96 126 -213 161 -260 66 -88 127 -196
163 -288 30 -77 115 -197 316 -452 287 -363 433 -562 670 -919 123 -185 253
-371 289 -414 125 -148 180 -242 202 -346 17 -80 19 -462 4 -746 -6 -104 -14
-289 -19 -410 -8 -199 -11 -228 -36 -300 -29 -86 -47 -121 -109 -204 -109
-146 -317 -259 -523 -286 -29 -4 -68 -17 -87 -30 -78 -53 -277 -167 -556 -317
-162 -88 -304 -166 -315 -172 -19 -13 -177 -52 -300 -76 -143 -28 -299 -73
-398 -115 -105 -45 -107 -45 -219 -45 -62 0 -219 9 -348 20 -477 41 -682 37
-920 -16 -154 -35 -247 -72 -358 -144 -328 -212 -525 -607 -509 -1020 12 -307
130 -547 336 -684 80 -53 319 -159 546 -241 88 -32 219 -79 292 -106 323 -119
600 -183 976 -226 216 -25 979 -25 1282 0 566 47 673 63 1345 197 272 54 571
111 664 125 246 38 786 149 918 189 150 46 266 95 379 162 132 78 226 152 253
199 55 94 93 233 126 465 11 80 29 191 40 248 24 124 25 185 4 339 -25 188
-31 293 -19 293 50 0 513 -35 735 -56 151 -14 305 -28 342 -31 77 -7 70 5 88
-148 20 -171 60 -248 145 -281 25 -9 49 -14 53 -10 4 4 9 96 12 204 l5 197
195 0 c107 0 308 -7 445 -15 138 -8 320 -15 405 -15 173 0 202 8 267 77 61 64
70 144 27 249 -61 149 -177 286 -317 373 -104 65 -188 92 -374 121 -287 44
-437 59 -1433 140 -173 14 -327 28 -342 31 -26 5 -26 7 -35 112 -22 290 -2
755 48 1097 30 208 125 654 142 671 2 2 73 -28 158 -67 85 -39 334 -147 554
-241 612 -261 728 -315 775 -362 43 -42 90 -130 135 -252 48 -132 115 -182
315 -236 103 -29 347 -31 469 -4 69 15 85 16 93 4 120 -182 233 -461 283 -700
53 -253 44 -589 -21 -759 -86 -229 -127 -433 -128 -634 0 -143 10 -210 46
-325 93 -296 403 -524 788 -581 204 -29 569 7 852 85 327 90 559 219 805 445
213 196 401 423 516 621 35 61 74 181 88 271 17 110 64 248 99 291 44 53 124
88 390 168 129 39 347 107 483 151 347 111 580 178 781 224 28 6 -132 -153
-244 -243 -141 -113 -518 -428 -570 -476 -25 -23 -106 -96 -180 -163 -236
-210 -321 -332 -337 -483 -7 -73 5 -125 62 -256 l45 -101 -83 -85 c-144 -148
-171 -215 -182 -449 -14 -294 34 -493 151 -627 136 -155 470 -196 773 -95 113
38 150 59 216 127 68 69 124 173 149 277 23 93 21 253 -4 358 -23 96 -85 234
-131 292 -42 53 -133 117 -251 175 -54 27 -98 51 -98 55 0 11 252 251 345 329
50 42 126 102 170 134 44 32 139 118 210 190 72 72 209 201 305 287 96 86 256
234 355 329 161 154 189 176 263 211 45 21 85 39 88 39 3 0 4 -102 3 -228 l-3
-227 49 -33 c69 -45 176 -87 267 -106 145 -30 394 -17 553 29 105 30 169 93
202 200 15 51 18 90 15 256 l-2 195 49 10 c47 10 50 9 102 -28 182 -130 360
-239 609 -373 198 -107 390 -222 895 -535 237 -147 502 -309 589 -361 128 -75
178 -111 250 -181 l91 -88 -31 -27 c-17 -16 -62 -54 -100 -86 -112 -95 -169
-168 -203 -262 -77 -214 -68 -428 26 -608 44 -84 164 -211 258 -272 195 -128
456 -169 660 -105 242 77 405 338 405 651 0 131 -24 233 -80 336 -80 149 -184
241 -388 342 l-123 62 46 83 c85 156 102 245 69 357 -24 80 -123 173 -283 264
-156 90 -349 214 -429 277 -79 62 -135 95 -295 175 -134 66 -168 87 -277 164
-36 25 -136 84 -223 130 -125 67 -174 99 -235 156 l-77 71 60 -4 c182 -15 369
-42 705 -104 1343 -246 1737 -322 2070 -400 190 -44 535 -136 560 -150 12 -7
19 -48 33 -197 30 -318 20 -486 -38 -638 -44 -118 -59 -210 -59 -355 2 -159
22 -250 83 -375 45 -92 134 -196 193 -226 124 -63 312 -80 603 -54 221 20 224
21 321 111 36 34 46 54 77 149 19 61 41 142 48 180 20 101 17 342 -4 430 -24
96 -87 220 -147 287 -71 80 -119 97 -294 110 -78 5 -157 14 -177 19 -35 9 -37
12 -48 68 -13 68 -30 245 -30 311 0 45 1 45 99 125 112 90 111 85 25 156 -74
61 -134 83 -441 158 -1215 296 -2316 520 -3502 711 -525 85 -565 89 -1082 115
-309 16 -457 28 -467 39 -8 8 -38 464 -52 791 -26 592 -43 2137 -23 2148 17
11 254 59 497 102 324 57 468 90 522 121 111 64 137 165 121 459 -5 88 -5 178
-1 200 l9 39 254 43 c311 52 533 107 688 169 185 74 211 96 347 304 122 185
169 220 325 239 47 6 308 31 580 56 577 53 869 85 1141 125 312 47 349 59 439
150 185 185 185 531 0 733 -58 63 -133 105 -252 142 -218 66 -415 87 -843 90
-176 1 -356 3 -401 4 l-81 1 59 118 c69 139 349 763 443 988 99 239 106 252
148 291 49 44 113 73 252 113 133 39 190 64 282 126 411 279 659 705 927 1595
l26 86 51 7 c97 13 159 44 230 115 109 109 161 249 161 431 0 140 -11 164
-177 374 -48 62 -54 75 -61 133 -7 71 -2 132 26 303 10 63 21 196 24 295 3 99
14 261 25 360 67 600 97 1184 112 2145 5 333 14 823 20 1090 6 267 10 685 10
930 -1 245 5 729 14 1075 17 715 19 1245 5 1545 -5 113 -12 383 -15 600 -8
575 -27 783 -90 1016 -44 162 -95 255 -204 368 -114 118 -245 198 -411 250
-146 46 -245 56 -585 56 -326 0 -440 -5 -1065 -45 -330 -21 -799 -45 -907 -45
-18 0 -33 5 -33 11 0 6 47 108 104 227 137 287 166 379 166 535 -1 231 -76
364 -341 602 -74 66 -147 133 -164 149 -44 42 -360 279 -507 380 -191 130
-440 245 -611 280 -197 41 -491 4 -1356 -169 -288 -58 -526 -104 -528 -102 -7
8 27 273 43 334 18 71 71 187 94 208 10 9 74 26 151 40 164 29 177 32 262 58
l69 20 -8 86 c-13 155 -8 419 9 501 23 104 88 229 207 400 157 225 174 265
269 665 38 161 65 230 147 367 254 429 428 950 479 1440 17 169 20 488 5 639
-33 328 -117 630 -256 915 -113 232 -327 527 -534 734 -241 242 -460 373 -734
439 -159 39 -243 93 -456 296 -74 70 -163 148 -198 173 -162 115 -592 257
-992 326 -292 51 -531 74 -1130 111 -482 29 -704 48 -920 75 -479 62 -782 156
-975 305 -99 76 -169 164 -238 300 -37 75 -30 69 -167 120 -11 4 -31 -19 -68
-79z m2848 -3035 c0 -385 86 -696 282 -1016 188 -305 362 -535 496 -655 202
-180 443 -413 435 -420 -14 -13 -232 -79 -333 -101 -53 -11 -154 -23 -230 -26
-154 -6 -254 8 -366 53 -67 27 -69 27 -243 21 -208 -6 -311 -19 -776 -97 -192
-32 -393 -63 -445 -70 -151 -18 -224 -38 -400 -110 -91 -38 -177 -74 -192 -81
-35 -15 -47 -54 -55 -176 l-6 -93 -181 0 c-100 0 -238 3 -309 7 l-127 6 -40
71 c-49 90 -101 143 -154 157 -45 13 -406 17 -823 10 -139 -3 -256 -2 -260 2
-14 15 -52 211 -42 218 13 8 211 43 423 74 139 21 283 36 566 61 56 5 69 10
95 39 77 81 72 249 -8 295 -35 19 -148 5 -467 -61 -427 -88 -470 -95 -480 -79
-28 46 -33 597 -6 805 40 311 135 616 259 834 l42 74 325 -7 c179 -4 393 -11
475 -18 406 -30 739 19 1655 242 460 112 798 186 863 189 l27 1 0 -149z
m-23770 -541 c47 -5 738 -79 1535 -164 2719 -292 5455 -580 7780 -821 1587
-164 1460 -149 1491 -170 43 -28 62 -88 78 -250 55 -530 255 -2942 546 -6580
125 -1558 215 -2676 245 -3035 36 -421 42 -526 33 -531 -52 -33 -556 -44 -803
-19 -158 16 -548 18 -5814 25 -4719 7 -4433 3 -4462 57 -13 24 -19 83 -149
1553 -105 1187 -219 2514 -450 5225 -105 1229 -215 2521 -245 2870 -30 349
-57 671 -60 715 -4 44 -20 226 -36 405 -16 179 -32 419 -36 534 l-6 209 134
-7 c74 -4 172 -11 219 -16z m26560 -1833 c68 -32 138 -91 152 -126 54 -140 67
-459 29 -699 -40 -258 -71 -330 -189 -453 -99 -105 -209 -187 -325 -244 -119
-58 -187 -76 -317 -82 l-106 -5 -52 74 c-48 71 -52 81 -63 169 -16 122 -16
487 0 612 40 317 243 609 507 728 143 65 264 73 364 26z m-2632 -92 c55 -192
75 -390 76 -750 1 -298 -8 -388 -46 -477 -24 -57 -64 -93 -116 -107 -69 -19
-418 -80 -568 -100 -83 -11 -232 -25 -333 -32 l-183 -12 -24 29 c-95 114 -197
294 -228 404 -8 30 -40 127 -70 216 -34 97 -66 216 -82 300 -14 76 -28 149
-30 162 -6 28 -40 42 -76 30 -29 -10 -30 -14 -67 -263 l-17 -110 -34 125 c-62
230 -50 380 32 414 49 21 375 101 523 130 335 65 928 127 1160 122 l60 -1 23
-80z m-3500 -331 c18 -36 18 -38 -4 -133 -33 -139 -40 -196 -23 -186 67 40
131 90 143 113 26 51 57 68 151 85 130 25 281 19 292 -10 8 -22 -53 -160 -112
-254 -30 -48 -55 -89 -55 -92 0 -3 29 -15 64 -27 58 -19 156 -72 156 -85 0 -3
-7 -47 -15 -98 -8 -50 -21 -163 -30 -250 -9 -97 -21 -172 -31 -193 -20 -41
-128 -142 -161 -150 -13 -4 -128 12 -256 35 -127 23 -247 44 -264 47 -26 4
-33 10 -33 27 0 129 -50 737 -81 985 -11 90 -18 169 -16 175 2 7 48 19 103 28
149 25 150 25 172 -17z m4636 -61 c19 -110 32 -240 46 -458 6 -93 15 -213 21
-265 23 -212 81 -421 141 -508 42 -62 139 -163 202 -211 61 -47 119 -62 315
-80 63 -6 115 -12 117 -14 2 -1 -13 -86 -32 -187 -91 -484 -148 -609 -393
-864 -269 -279 -431 -426 -683 -616 -308 -233 -628 -434 -878 -550 -91 -43
-271 -128 -400 -190 -616 -295 -913 -383 -1290 -384 -151 -1 -180 2 -209 18
-55 29 -205 180 -339 341 -165 197 -248 290 -467 525 -370 396 -428 473 -603
811 -136 263 -168 353 -207 574 -19 112 -35 367 -28 462 l6 71 51 -5 c99 -10
444 40 640 92 20 6 20 5 2 -6 -16 -10 -10 -19 67 -90 47 -43 102 -104 122
-135 59 -89 224 -181 373 -208 38 -7 39 -3 8 73 -58 144 -140 237 -321 366
-184 131 -235 186 -235 255 0 35 137 161 300 275 199 140 277 218 361 359 35
60 86 134 113 163 45 50 50 52 62 35 7 -10 58 -117 114 -238 173 -373 255
-509 390 -644 92 -92 160 -135 237 -149 100 -19 396 10 916 89 292 45 357 60
442 100 86 41 137 89 178 167 75 144 93 263 105 723 l7 275 150 28 c199 37
568 95 576 91 4 -2 14 -43 23 -91z m-5090 -320 c10 -184 31 -406 61 -640 14
-106 25 -199 25 -206 0 -11 -160 -67 -193 -67 -13 0 -95 101 -138 170 -40 64
-288 774 -275 787 10 10 431 88 497 92 14 1 17 -19 23 -136z m1744 89 c-19
-21 -74 -94 -123 -163 -113 -160 -195 -260 -206 -253 -5 3 -9 36 -9 73 0 108
24 219 72 334 l20 47 140 0 140 0 -34 -38z m3940 -3348 l3 -845 -89 -132
c-289 -428 -644 -1056 -760 -1342 -121 -302 -140 -350 -176 -455 -48 -138 -89
-205 -145 -238 -44 -26 -48 -26 -282 -30 -256 -5 -322 2 -451 44 -121 40 -115
29 -128 244 -6 102 -17 221 -25 265 -8 44 -19 150 -25 235 -32 491 -130 1014
-274 1472 l-24 77 56 11 c167 32 435 139 627 249 201 116 722 474 1005 689 69
53 152 116 185 141 102 76 244 204 375 335 69 69 125 126 125 126 0 0 1 -381
3 -846z m2321 811 c89 -21 188 -74 393 -209 97 -63 230 -148 295 -187 168
-101 229 -147 306 -228 84 -89 113 -147 126 -244 25 -202 -49 -416 -194 -563
-115 -117 -230 -162 -554 -219 -257 -45 -285 -50 -383 -75 -283 -73 -607 -247
-913 -493 -274 -220 -718 -655 -1065 -1042 -201 -224 -323 -356 -539 -581 -85
-88 -178 -138 -421 -224 -96 -34 -187 -68 -201 -76 -25 -13 -56 -51 -184 -231
-58 -82 -170 -199 -212 -222 -20 -10 -23 -9 -29 15 -22 88 25 208 158 404 121
179 130 197 213 420 199 530 439 1007 783 1560 319 511 477 716 796 1035 236
234 695 624 861 730 63 41 257 136 263 130 7 -6 -100 -165 -169 -250 -35 -44
-170 -188 -299 -320 -406 -415 -595 -633 -865 -995 -128 -172 -672 -986 -854
-1279 -164 -263 -351 -591 -337 -591 8 0 80 43 100 59 10 9 80 102 155 206
129 179 204 287 631 915 439 645 723 1007 1060 1350 387 394 522 548 652 745
80 121 158 266 203 376 18 45 39 86 47 90 20 13 107 10 177 -6z m-5042 -2015
l33 -30 -10 -116 c-5 -65 -7 -121 -4 -125 3 -5 -6 -55 -20 -111 -22 -92 -29
-127 -42 -218 -12 -82 -17 -179 -15 -280 1 -63 -1 -170 -5 -237 -6 -118 -7
-121 -30 -126 -57 -10 -70 1 -103 84 -17 44 -34 107 -37 142 -3 34 -7 80 -10
102 -2 22 -6 123 -8 225 -6 254 22 408 104 571 24 47 98 149 109 149 3 0 21
-14 38 -30z m5427 -935 c170 -45 272 -178 376 -493 87 -264 115 -492 107 -847
-16 -672 -172 -1350 -492 -2140 -151 -372 -192 -450 -284 -539 l-41 -40 -24
20 c-13 10 -55 45 -93 77 -498 425 -1308 613 -2166 501 -65 -8 -138 -19 -162
-23 -53 -10 -52 -12 -24 89 15 54 46 118 113 230 119 199 183 320 294 555 120
255 163 366 307 795 127 377 279 785 345 925 91 190 191 302 361 402 347 205
740 366 1179 482 92 24 129 25 204 6z m-5676 -422 c-16 -63 -56 -121 -111
-164 -68 -54 -92 -103 -128 -260 -124 -550 -180 -1136 -209 -2169 -5 -201 -13
-434 -16 -519 l-6 -153 -42 -19 c-65 -29 -143 -34 -209 -15 -95 27 -110 76
-108 336 1 177 32 861 51 1135 39 546 145 1113 241 1282 18 32 57 108 87 168
69 140 119 210 226 312 67 64 93 83 123 88 21 4 45 8 53 10 8 1 25 3 37 4 20
1 21 -1 11 -36z m1162 -643 c96 -11 260 -24 364 -30 105 -6 191 -11 191 -13 1
-1 6 -20 12 -42 10 -40 9 -43 -55 -130 -75 -105 -107 -167 -152 -290 -18 -49
-48 -120 -67 -156 l-34 -67 -53 -6 c-33 -5 -79 -1 -124 8 -76 16 -302 94 -302
105 0 3 5 137 10 296 10 285 15 345 28 345 4 0 86 -9 182 -20z m1287 -244 c2
-2 -1 -58 -9 -123 -23 -211 -16 -753 16 -1228 20 -290 29 -496 30 -705 1 -329
1 -332 -69 -408 -31 -35 -121 -102 -137 -102 -3 0 -8 61 -11 136 -8 162 -27
379 -68 764 -74 708 -101 1163 -83 1407 9 117 13 135 37 172 43 65 137 103
236 96 29 -2 55 -6 58 -9z m-1726 -301 c59 -87 121 -173 139 -192 18 -18 89
-68 159 -112 l126 -79 16 -64 c9 -35 22 -127 28 -204 13 -154 30 -236 57 -265
28 -31 87 -44 124 -29 46 19 57 44 70 155 17 146 46 285 85 410 20 61 39 116
43 123 9 13 319 109 327 101 11 -11 81 -700 100 -974 3 -44 12 -130 21 -191
13 -93 14 -138 5 -283 -7 -122 -7 -229 0 -369 13 -227 6 -471 -14 -555 -11
-42 -30 -77 -73 -133 -113 -144 -173 -236 -193 -296 -12 -34 -20 -62 -18 -64
1 -1 67 -17 147 -36 l145 -35 -2 -66 c-4 -123 -50 -231 -212 -501 -54 -91
-111 -198 -126 -238 -71 -189 -152 -332 -290 -514 -86 -114 -125 -154 -320
-332 -88 -80 -204 -188 -257 -240 l-97 -95 -269 6 c-274 7 -522 23 -533 35
-29 30 -48 733 -30 1087 17 333 79 1126 97 1245 77 509 270 1447 349 1690 50
156 88 316 144 605 66 342 122 576 135 572 6 -2 59 -74 117 -162z m2159 -76
c125 -145 223 -278 245 -331 27 -65 23 -173 -10 -293 -15 -55 -38 -141 -50
-191 -47 -182 -154 -432 -270 -630 -68 -115 -66 -116 -89 63 -19 151 -33 362
-46 713 -5 151 -15 340 -22 420 -13 167 -9 201 31 261 26 38 95 100 110 98 3
0 49 -50 101 -110z m-3873 -489 c-4 -157 -16 -411 -28 -565 -16 -206 -22 -369
-23 -617 -1 -254 -4 -338 -13 -338 -6 0 -58 11 -115 25 -57 14 -106 25 -109
25 -4 0 -10 -11 -13 -24 -4 -17 12 -71 50 -171 31 -80 54 -148 51 -151 -3 -3
-109 6 -236 20 -262 29 -443 33 -558 11 -101 -19 -122 -19 -187 4 -50 17 -154
81 -218 133 l-28 22 -114 -20 -115 -20 26 46 c14 25 46 75 69 111 39 59 49 68
108 92 94 38 207 66 316 77 152 16 405 50 436 59 l29 8 -40 17 c-22 10 -106
36 -187 59 l-148 42 0 62 c0 60 2 64 48 120 100 119 251 248 435 372 42 28 77
57 77 64 1 46 24 164 45 228 45 134 120 253 318 503 103 129 111 137 120 115
5 -14 7 -144 4 -309z m4853 -1430 c197 -11 341 -29 482 -61 302 -66 576 -203
762 -380 l80 -76 17 -184 c10 -101 18 -195 18 -208 l1 -24 -107 6 c-202 11
-328 59 -703 264 -274 151 -372 187 -625 232 -244 44 -363 55 -570 55 -365 -1
-625 -80 -836 -256 l-62 -51 7 35 c3 19 20 78 36 131 30 94 33 99 118 188 169
178 267 235 481 279 266 54 542 70 901 50z m-23795 -130 c120 -10 238 -30 252
-43 3 -4 0 -70 -6 -149 -15 -189 -37 -616 -56 -1073 -27 -659 -65 -1229 -83
-1247 -18 -18 -211 -80 -368 -119 -155 -39 -167 -44 -232 -93 -128 -96 -150
-119 -186 -197 -91 -197 -109 -440 -46 -624 21 -61 28 -54 -70 -75 -130 -29
-284 -125 -365 -227 -55 -70 -109 -177 -126 -255 l-13 -56 -76 -12 c-136 -20
-269 -23 -359 -6 -45 8 -85 17 -88 20 -3 3 9 44 25 93 17 48 37 115 46 148 15
60 66 350 66 377 0 16 20 17 -290 -18 -124 -14 -291 -28 -372 -31 -82 -3 -148
-9 -148 -12 0 -3 9 -52 20 -109 11 -56 20 -138 20 -181 l0 -79 -62 19 c-128
40 -229 83 -244 103 -19 27 -21 24 -80 -134 -26 -69 -51 -130 -55 -136 -28
-35 -381 -71 -744 -76 -178 -3 -181 -3 -235 24 -30 15 -100 66 -155 113 -191
162 -267 186 -533 166 -154 -11 -196 -10 -271 5 -23 5 -19 12 66 97 49 51 128
132 174 181 98 103 216 205 356 304 54 39 130 99 168 133 259 229 383 320 955
695 68 44 122 91 189 163 102 110 239 229 359 312 104 71 177 139 251 231 34
43 144 153 244 246 157 146 343 336 521 529 27 29 87 85 135 125 119 100 224
211 275 288 67 101 140 184 222 250 86 69 106 91 157 175 32 55 70 97 121 136
14 11 66 15 215 20 108 3 219 6 246 7 28 1 109 -3 180 -8z m17859 -562 c45
-40 126 -110 179 -156 118 -100 165 -158 269 -332 96 -160 278 -510 278 -535
0 -16 -108 -151 -173 -216 -62 -62 -395 -302 -797 -574 -427 -289 -688 -478
-854 -619 -145 -122 -290 -180 -481 -193 -106 -6 -710 13 -840 27 -281 31
-614 134 -951 295 -194 92 -450 247 -439 266 4 5 30 9 59 9 29 0 122 7 207 15
389 39 643 102 870 215 267 134 932 645 1679 1289 204 175 417 335 535 401 74
40 356 176 373 179 2 1 40 -32 86 -71z m5511 22 c287 -33 753 -171 889 -263
79 -53 188 -158 226 -217 62 -96 53 -115 -246 -535 -170 -240 -212 -294 -308
-400 -41 -45 -109 -126 -151 -180 -114 -147 -255 -302 -411 -455 -177 -172
-364 -360 -529 -528 -71 -74 -159 -154 -195 -180 -182 -128 -309 -261 -374
-391 -36 -71 -66 -161 -66 -197 0 -13 -19 -76 -42 -140 l-41 -118 -101 -101
c-241 -243 -533 -395 -857 -445 -41 -6 -192 -14 -335 -17 -416 -9 -665 15
-1149 112 -1144 229 -2147 302 -3214 235 -1044 -65 -1621 -64 -2001 6 -216 40
-445 112 -625 198 -95 46 -121 64 -189 132 -135 136 -273 323 -404 551 -83
142 -156 186 -320 191 -180 6 -257 -22 -647 -232 -112 -61 -307 -136 -353
-136 -16 0 -23 10 -31 50 -6 28 -11 60 -11 71 0 27 149 209 269 330 143 142
256 212 395 244 49 11 444 45 531 45 20 0 20 3 10 98 l-10 97 -70 7 c-168 18
-462 -28 -628 -98 -249 -105 -481 -346 -637 -662 -41 -83 -49 -92 -90 -110
-70 -31 -117 -41 -217 -48 -130 -10 -129 -11 -89 84 35 83 102 178 310 437
242 300 312 346 712 464 93 28 229 70 301 95 169 57 255 71 391 63 229 -13
405 -83 845 -334 292 -166 576 -303 777 -374 91 -31 230 -80 310 -108 231 -80
472 -121 830 -142 207 -12 435 -8 895 16 154 8 384 19 510 25 328 16 516 31
1380 114 817 79 967 88 1519 92 479 4 479 4 530 28 73 33 152 96 303 238 77
73 158 138 194 159 79 43 140 98 248 224 159 184 249 309 286 395 61 143 143
294 215 396 38 54 112 183 164 285 112 220 174 327 271 469 39 58 94 143 121
189 72 123 104 152 204 191 96 36 206 66 295 79 85 12 304 13 410 1z m-3850
-1141 c59 -63 72 -110 56 -202 -22 -131 -24 -275 -6 -546 16 -237 17 -522 3
-536 -6 -7 -328 -43 -799 -89 -600 -60 -1080 -96 -1514 -116 -126 -5 -278 -12
-338 -15 -100 -4 -107 -3 -98 13 19 35 96 102 149 129 31 15 112 68 181 117
152 107 415 281 606 401 81 50 170 116 211 155 49 46 97 80 150 106 44 21 121
72 173 113 52 41 100 74 107 74 7 0 42 -19 79 -43 l66 -43 102 6 c206 11 386
97 556 268 68 67 163 189 195 251 l20 37 29 -17 c16 -9 48 -38 72 -63z m-8000
-409 c135 -34 339 -122 337 -145 -1 -5 -81 -24 -178 -41 l-177 -33 -86 -58
c-115 -77 -216 -176 -378 -365 -74 -87 -154 -172 -179 -189 -156 -107 -371
-159 -654 -159 l-135 1 -35 46 c-19 25 -38 51 -42 58 -13 22 73 122 152 176
94 64 169 124 336 265 181 154 316 261 400 317 115 76 241 139 297 148 80 12
253 2 342 -21z m-956 -72 c-3 -58 -17 -79 -94 -144 -44 -38 -139 -120 -210
-184 -205 -182 -323 -268 -453 -334 l-52 -26 -30 47 c-54 84 -72 176 -50 254
10 34 17 39 208 131 108 53 238 113 287 134 95 39 375 143 388 144 4 0 6 -10
6 -22z m1926 -177 c46 -21 72 -48 59 -61 -5 -4 -76 -29 -159 -55 -329 -102
-462 -146 -510 -169 -61 -28 -190 -148 -294 -272 -42 -50 -146 -189 -231 -308
l-155 -216 -105 0 c-58 0 -135 3 -172 6 l-68 7 -35 71 -36 71 168 175 c295
307 517 527 550 544 52 26 136 44 285 61 182 20 214 28 328 86 52 27 120 55
150 63 78 21 176 20 225 -3z m-11911 -426 c222 -46 410 -165 476 -298 98 -200
-4 -472 -215 -572 -275 -130 -700 -144 -1175 -39 -70 15 -79 20 -136 78 -75
76 -105 145 -111 261 -9 153 43 291 152 401 57 58 141 108 195 118 14 2 86 16
160 30 74 14 173 30 220 35 118 13 339 6 434 -14z m964 -721 c273 -117 638
-239 832 -278 82 -17 406 -87 467 -102 l72 -18 31 -57 c16 -31 30 -59 30 -61
0 -6 -46 -7 -655 -12 -524 -4 -826 1 -840 15 -2 3 15 56 40 117 25 62 45 113
45 115 0 2 -18 18 -40 36 l-39 31 -48 -33 c-89 -63 -377 -227 -398 -227 -3 0
27 42 68 93 96 120 221 286 276 365 24 34 46 62 48 62 2 0 52 -21 111 -46z
m11502 -132 c72 -107 176 -243 306 -400 48 -57 84 -105 82 -107 -15 -15 -150
-68 -206 -81 -153 -36 -251 9 -462 210 -41 40 -104 97 -140 128 -137 117 -149
246 -27 293 46 17 266 52 337 54 l45 0 65 -97z m-14932 -199 c-7 -106 -34
-183 -85 -243 -45 -52 -122 -90 -183 -90 -85 0 -86 2 -105 103 -9 51 -19 115
-22 143 -5 49 -4 52 29 78 46 34 107 55 232 76 154 27 140 34 134 -67z m-515
-246 c10 -49 17 -89 15 -91 -4 -3 -322 15 -326 19 -1 1 3 23 10 48 l12 45 120
36 c67 19 127 34 135 33 10 -1 21 -31 34 -90z m-1970 58 c82 -17 172 -63 221
-114 l37 -38 -258 -13 c-454 -23 -525 -25 -529 -18 -9 14 105 103 172 135 124
59 235 74 357 48z m28373 -186 c-11 -229 -38 -418 -102 -699 -27 -119 -40
-159 -57 -174 -27 -23 -159 -89 -298 -149 -467 -203 -936 -491 -1214 -745
-119 -109 -208 -169 -289 -194 -65 -20 -84 -21 -310 -15 -133 3 -367 16 -521
28 -246 19 -333 22 -725 18 -245 -2 -584 -4 -754 -4 l-308 0 -24 63 -23 63
107 70 c59 38 123 74 142 79 19 5 94 14 165 21 176 16 432 6 805 -31 520 -51
719 -57 955 -29 103 12 238 39 248 48 10 10 -123 54 -223 75 -42 8 -183 27
-315 40 -132 14 -337 36 -455 50 -118 13 -363 39 -545 56 -181 18 -332 34
-334 36 -2 2 16 95 42 206 25 112 53 244 63 293 9 50 20 93 23 96 3 3 65 0
136 -7 254 -25 540 -35 723 -24 283 17 393 42 755 169 122 43 236 81 252 85
l30 8 -26 -29 c-185 -204 -258 -293 -307 -374 -43 -71 -97 -198 -87 -207 8 -9
209 25 344 58 343 84 730 245 1151 480 278 155 390 242 745 574 121 113 224
206 229 206 5 0 6 -59 2 -141z m-5586 -455 c370 -37 719 -90 1125 -170 127
-25 239 -48 249 -51 18 -5 18 -13 12 -122 -12 -216 -44 -379 -106 -540 -33
-86 -34 -87 -191 -151 -189 -78 -247 -147 -318 -378 -26 -85 -35 -102 -49 -98
-9 3 -75 19 -147 35 -413 95 -851 149 -1375 170 -761 31 -883 34 -1170 27
-357 -7 -498 -14 -1230 -61 -583 -37 -915 -55 -1015 -55 l-63 0 -7 91 c-4 51
-4 201 0 334 l7 242 137 12 c138 12 451 23 1096 41 389 10 617 19 1360 51 264
12 643 24 843 26 l362 6 56 39 c52 38 55 43 50 72 -28 147 -26 362 5 470 l11
39 106 -7 c59 -4 172 -13 252 -22z m9260 -479 c431 -15 849 -40 1140 -69 79
-8 239 -39 294 -58 73 -24 196 -85 196 -97 0 -9 -266 -6 -320 3 -14 2 -47 7
-75 10 -27 3 -61 8 -75 11 -289 57 -611 78 -1185 77 -426 0 -688 -12 -1050
-47 -38 -4 -81 -8 -95 -10 -14 -1 -54 -6 -90 -10 -88 -9 -119 -13 -160 -19
-19 -3 -55 -7 -80 -11 -25 -3 -61 -7 -80 -10 -19 -3 -51 -7 -70 -10 -19 -3
-46 -7 -60 -10 -14 -3 -47 -8 -75 -11 -27 -3 -72 -10 -100 -16 -27 -5 -66 -12
-85 -14 -19 -3 -42 -7 -50 -10 -8 -3 -33 -8 -55 -11 -22 -2 -103 -18 -180 -34
-77 -17 -151 -32 -165 -35 -14 -2 -31 -7 -39 -10 -8 -2 -29 -7 -48 -10 -18 -3
-115 -25 -216 -50 -100 -25 -193 -47 -206 -50 -12 -3 -91 -21 -175 -40 -675
-156 -1024 -285 -1345 -498 -212 -141 -258 -192 -263 -291 -2 -44 10 -137 21
-169 7 -18 -4 -27 -93 -77 -150 -83 -292 -184 -501 -354 -121 -99 -346 -267
-351 -263 -2 2 -6 55 -10 118 -3 63 -8 118 -10 121 -6 10 52 208 86 293 269
678 896 1165 1805 1401 406 105 901 171 1355 180 129 3 258 7 285 9 55 5 190
16 245 21 19 2 73 6 120 10 47 4 103 9 125 10 131 11 289 20 550 29 110 4 201
8 202 10 4 4 720 -3 883 -9z m259 -871 c-211 -614 -512 -1411 -717 -1894 -38
-91 -135 -327 -215 -526 -246 -612 -425 -990 -612 -1294 -196 -319 -310 -463
-696 -875 -250 -267 -416 -464 -475 -565 l-16 -27 -237 -6 c-130 -4 -440 -10
-688 -14 l-453 -6 0 28 c0 49 21 154 33 164 32 25 288 81 489 106 134 16 512
39 572 33 l39 -3 28 -93 c15 -52 30 -97 34 -100 11 -12 169 76 236 131 94 78
159 165 248 334 43 81 132 245 198 363 566 1016 1170 2233 1720 3465 69 154
142 314 163 355 20 41 61 134 90 205 29 72 72 172 95 222 47 100 59 110 140
120 22 2 42 6 44 9 3 2 8 1 13 -4 5 -5 -10 -62 -33 -128z m-3614 -749 c94 -20
169 -58 234 -119 65 -62 100 -129 109 -207 l7 -59 75 -55 c41 -30 108 -77 147
-105 178 -124 332 -271 449 -429 108 -145 294 -534 294 -614 0 -16 -77 56
-275 258 l-276 280 -82 -89 -83 -89 -30 16 c-72 37 -210 151 -359 297 -88 85
-241 221 -340 300 -163 130 -385 338 -385 359 0 5 126 12 281 16 l281 7 -39
42 c-147 155 -175 190 -156 197 29 12 72 10 148 -6z m600 -59 c103 -31 254
-56 337 -56 84 0 203 26 276 60 35 16 66 30 67 30 2 0 30 -48 63 -107 127
-229 186 -364 221 -501 21 -82 39 -252 27 -252 -4 0 -44 33 -89 73 -118 105
-219 181 -514 390 -243 172 -398 290 -483 367 -40 36 -41 36 95 -4z m-24379
-1021 c4 -357 9 -1831 10 -3275 1 -1444 3 -2652 6 -2685 21 -272 26 -926 18
-2250 l-5 -741 -270 2 c-148 1 -336 5 -416 9 l-146 8 -8 71 c-4 39 -8 1646
-11 3571 -2 1925 -6 3579 -9 3675 -3 96 -8 247 -12 335 -9 216 -10 944 0 1077
4 59 12 120 18 135 21 57 91 133 206 225 143 115 273 249 373 383 41 55 108
135 150 178 l75 79 7 -74 c3 -40 10 -365 14 -723z m25967 -229 c3 -8 9 -41 12
-73 7 -59 7 -59 -79 -231 -68 -135 -91 -173 -108 -176 -85 -17 -88 -17 -99 12
-66 172 9 353 187 449 66 36 79 39 87 19z m-433 -1036 c-16 -76 -80 -205 -132
-267 -34 -40 -53 -54 -88 -62 -88 -22 -198 -30 -397 -31 l-203 0 0 34 c0 28 4
35 22 38 16 2 42 37 99 132 43 70 81 132 87 138 5 5 54 -1 126 -17 l117 -27
82 35 c45 19 100 40 122 47 24 8 66 37 105 74 l65 61 3 -50 c2 -27 -2 -75 -8
-105z m-26642 -2562 l2 -2137 -32 -6 c-43 -7 -311 -45 -320 -45 -13 0 -50 -76
-65 -134 -20 -79 -14 -324 21 -811 42 -575 55 -793 62 -1012 4 -139 12 -239
24 -303 26 -134 38 -255 46 -484 l7 -198 -389 7 c-214 4 -390 8 -391 9 -1 1 2
62 8 136 47 679 89 1256 140 1920 78 1025 133 1803 159 2225 11 187 29 441 40
565 22 248 26 490 9 522 -6 11 -32 30 -57 41 -47 22 -53 22 -932 28 -487 3
-886 6 -886 7 -4 4 18 92 38 152 89 276 315 552 599 733 168 107 804 380 1298
558 109 39 189 75 232 104 88 58 252 191 314 254 48 50 50 51 60 29 7 -16 11
-726 13 -2160z m16362 1362 c347 -9 429 -16 520 -46 l45 -14 59 -148 c33 -81
88 -203 122 -272 54 -107 71 -133 122 -177 118 -103 426 -230 697 -286 317
-66 558 -84 1295 -98 734 -14 1954 0 2235 27 229 21 602 24 614 5 24 -39 34
-151 36 -411 2 -299 9 -360 52 -411 55 -65 108 -78 433 -109 118 -11 289 -30
380 -41 179 -23 629 -95 636 -102 2 -2 7 -334 10 -738 8 -854 -10 -1729 -41
-2105 l-6 -71 -77 -7 c-234 -21 -756 -109 -1132 -192 -391 -86 -1040 -259
-1513 -402 -53 -17 -99 -27 -101 -23 -11 17 -27 180 -36 369 -15 298 -41 469
-122 786 -98 387 -202 645 -446 1111 -37 72 -107 229 -156 350 -115 289 -241
547 -301 612 -68 76 -325 217 -464 255 -101 28 -311 29 -506 3 -180 -24 -375
-25 -475 -3 -41 9 -108 19 -147 23 -302 26 -700 207 -995 451 -44 36 -110 83
-146 105 -37 21 -89 56 -117 78 -27 22 -98 66 -156 100 -152 86 -259 168 -384
295 -76 77 -129 121 -172 144 -123 65 -214 141 -629 523 -93 86 -196 188 -229
228 -65 77 -131 178 -123 186 24 24 427 26 1218 5z m-18394 -1313 c14 -14 26
-2157 17 -3227 -4 -586 -6 -1246 -4 -1466 l3 -402 -106 -7 c-59 -4 -218 -2
-354 4 -308 14 -433 14 -564 0 -288 -31 -497 -131 -674 -322 -116 -126 -167
-231 -203 -422 -28 -149 -51 -185 -118 -185 -41 0 -51 10 -74 71 -57 147 -58
153 -94 799 -64 1131 -133 2268 -260 4323 -35 562 -41 735 -29 796 l7 31 341
1 c187 1 494 5 681 9 425 9 1421 7 1431 -3z m1119 -79 c-3 -40 -12 -179 -21
-308 -24 -377 -70 -1017 -134 -1855 -95 -1248 -140 -1894 -175 -2555 -9 -162
-19 -298 -21 -302 -3 -4 -117 -8 -254 -8 l-248 0 -8 188 c-11 251 -11 3741 0
4395 l8 517 430 0 429 0 -6 -72z m20297 -1039 c182 -136 303 -322 479 -735 76
-179 143 -322 209 -444 129 -241 299 -719 370 -1040 72 -328 95 -565 87 -868
-8 -284 -46 -517 -122 -742 -31 -91 -101 -239 -126 -265 -15 -15 -11 164 6
251 156 846 11 1786 -421 2719 -160 344 -412 775 -616 1052 -21 29 -38 55 -38
58 0 5 91 65 100 65 3 0 35 -23 72 -51z m-349 -284 c87 -18 162 -52 212 -96
67 -59 264 -377 395 -639 142 -283 217 -474 306 -775 127 -427 198 -745 225
-998 6 -60 9 -110 7 -112 -2 -2 -33 3 -70 10 -175 37 -483 39 -692 5 l-57 -9
-75 59 c-106 84 -214 133 -364 164 -47 10 -65 17 -64 29 1 8 35 64 76 124 94
135 127 201 135 264 5 42 1 58 -26 113 -29 58 -37 68 -89 93 -54 27 -63 28
-189 26 l-133 -1 0 61 0 62 80 95 c70 84 81 103 100 171 46 172 15 214 -192
261 -54 12 -98 25 -98 29 0 4 25 70 55 148 96 246 121 385 132 713 l6 207 26
4 c64 10 232 5 294 -8z m-15657 -646 c61 -11 64 -12 70 -45 3 -19 4 -37 1 -41
-16 -16 -180 -23 -287 -13 -63 6 -115 12 -116 13 -1 1 -5 19 -9 39 -8 40 -12
36 60 51 42 9 221 7 281 -4z m-638 -96 l122 -6 0 -43 0 -42 -63 -11 c-88 -15
-191 -14 -283 4 -86 16 -99 25 -107 73 l-6 32 108 0 c59 0 163 -3 229 -7z
m-483 -96 l60 -12 3 -47 c3 -47 2 -48 -25 -48 -32 0 -178 22 -270 40 -60 12
-61 13 -71 53 l-11 40 127 -7 c70 -4 154 -12 187 -19z m-450 -58 c80 -24 105
-47 105 -94 l0 -35 -122 0 c-67 0 -161 5 -210 11 l-88 12 0 52 c0 53 0 53 38
63 68 18 204 14 277 -9z m16818 -421 c-7 -56 -2 -51 -203 -235 l-45 -42 83
-37 c50 -22 81 -42 78 -49 -2 -7 -36 -63 -75 -126 -51 -82 -67 -115 -58 -121
20 -13 191 -9 339 8 77 9 142 13 145 10 3 -3 6 -27 6 -54 2 -101 -64 -155
-234 -190 -69 -15 -148 -43 -279 -102 -146 -65 -325 -130 -357 -130 -11 0 7
96 33 177 14 45 52 134 84 199 32 65 58 120 56 121 -6 6 -163 -93 -241 -152
-48 -36 -88 -65 -91 -65 -2 0 -4 34 -4 75 0 74 0 75 33 91 96 50 321 224 299
232 -10 3 -135 -14 -254 -34 l-37 -7 31 59 c43 82 53 91 121 116 44 16 85 44
151 101 166 144 277 205 378 206 l47 1 -6 -52z m131 -935 c-13 -75 -47 -147
-90 -193 -34 -36 -46 -59 -57 -109 l-15 -63 72 7 c39 4 152 17 251 30 99 13
182 22 184 20 1 -2 3 -30 4 -62 0 -94 -42 -154 -123 -172 -77 -17 -414 -174
-436 -203 -6 -7 -22 -41 -37 -76 l-27 -63 38 7 c71 13 238 72 357 127 66 30
179 82 251 115 283 130 388 154 670 153 261 -2 320 -19 375 -107 21 -34 22
-43 16 -168 -11 -213 -35 -351 -88 -491 -16 -44 -40 -78 -88 -128 -146 -152
-311 -229 -721 -336 -359 -93 -1335 -268 -1372 -245 -4 3 -8 47 -8 98 0 121
21 201 111 421 64 158 78 184 128 237 30 33 89 86 131 118 88 68 160 140 140
140 -8 0 -35 -5 -60 -11 -55 -13 -183 -14 -204 -2 -13 7 -7 20 36 83 52 76
122 214 133 261 l6 26 -112 11 c-62 7 -114 14 -117 17 -9 8 19 53 57 91 30 30
112 76 173 97 10 3 20 19 24 34 21 96 26 104 92 167 37 36 80 74 95 87 32 25
198 119 210 119 4 0 5 -17 1 -37z m6033 -259 c166 -34 346 -116 623 -284 102
-62 362 -215 578 -342 650 -379 1031 -618 1290 -812 101 -75 103 -78 97 -109
-9 -42 -48 -124 -77 -163 l-23 -31 -365 220 c-769 463 -1653 983 -2262 1332
-153 88 -274 163 -270 167 17 17 140 36 235 37 54 1 132 -6 174 -15z m-1288
-31 c10 -8 -153 -162 -302 -285 -222 -183 -482 -412 -1134 -1000 -312 -281
-581 -517 -599 -524 -49 -21 -94 -17 -152 12 -62 31 -93 71 -99 128 -7 61 33
133 126 230 136 140 942 840 1251 1086 341 272 387 301 520 336 93 24 368 36
389 17z m-11545 -113 c15 -5 79 -57 144 -116 64 -58 185 -163 267 -232 83 -70
210 -177 283 -240 l133 -113 -22 -30 c-53 -75 -443 -410 -609 -524 -89 -62
-250 -125 -698 -276 -398 -133 -509 -163 -752 -201 -128 -20 -184 -22 -475
-23 -344 0 -395 4 -650 51 -475 86 -939 292 -1300 574 -56 44 -111 91 -124
104 l-22 24 88 17 c116 23 407 31 599 16 82 -6 215 -16 296 -21 188 -12 256
-30 395 -101 l113 -58 0 34 c0 19 9 58 19 85 54 143 207 229 363 206 37 -6 47
-13 70 -49 66 -104 220 -244 421 -382 l88 -60 -6 -65 c-10 -105 -7 -102 -68
-80 -119 42 -236 106 -482 263 l-99 64 -63 -21 c-35 -11 -63 -23 -63 -26 1 -8
209 -166 313 -238 235 -161 366 -201 513 -157 50 15 125 70 145 106 16 31 -14
105 -83 211 -79 120 -79 122 -37 113 52 -11 154 -48 255 -93 148 -65 244 -92
334 -92 l79 0 99 123 c114 140 216 241 284 281 l47 27 178 -60 c182 -61 323
-103 323 -95 0 2 -29 51 -65 109 -36 57 -65 107 -65 109 0 2 59 46 130 98 72
51 130 97 130 102 0 17 -163 170 -305 285 -178 146 -270 227 -301 268 l-25 32
43 22 c76 39 118 46 162 29z m-335 -219 c29 -34 102 -96 167 -141 175 -124
278 -234 299 -322 7 -26 3 -29 -124 -92 -72 -37 -137 -66 -144 -66 -13 0 -78
73 -200 226 -39 49 -63 71 -75 68 -9 -2 -105 -8 -213 -14 -108 -5 -220 -14
-250 -20 -75 -13 -139 -31 -139 -39 0 -3 25 -19 56 -35 31 -16 77 -54 105 -85
51 -56 129 -203 166 -309 l18 -52 -32 -58 c-18 -33 -40 -58 -50 -60 -11 -2
-60 18 -111 43 -98 49 -227 160 -296 254 -29 39 -136 282 -136 308 0 7 882
449 901 452 3 1 29 -26 58 -58z m-1061 -523 c39 -58 53 -97 61 -168 5 -44 4
-60 -5 -60 -17 0 -203 66 -271 95 l-57 26 45 45 c44 45 146 104 180 104 10 0
31 -19 47 -42z m946 -39 c43 -10 81 -20 83 -23 3 -3 2 -21 -1 -40 -13 -68 -85
-126 -155 -126 -25 0 -40 13 -95 82 -67 83 -75 101 -54 114 41 26 89 24 222
-7z m2772 -226 c-8 -105 -27 -191 -53 -230 -24 -37 -65 -53 -136 -53 -55 0
-70 4 -105 30 -23 16 -62 58 -87 92 -36 50 -43 65 -33 74 33 32 367 183 407
184 11 0 12 -18 7 -97z m-6316 -98 c7 -8 71 -58 142 -111 486 -360 1025 -586
1613 -675 166 -25 661 -42 855 -28 421 29 854 155 1439 421 l174 78 58 -16
c33 -9 59 -21 59 -27 0 -17 -111 -195 -177 -285 -98 -131 -188 -234 -331 -376
l-130 -128 -103 136 c-56 75 -105 136 -108 136 -3 0 -26 -37 -50 -83 -120
-224 -217 -306 -363 -307 -38 0 -68 2 -68 5 0 2 23 62 51 132 28 71 54 134 57
142 8 20 -129 9 -163 -13 -23 -15 -25 -22 -24 -84 0 -37 4 -90 8 -119 l7 -52
-84 -7 c-102 -8 -255 0 -298 16 -33 12 -71 77 -115 198 -12 31 -25 61 -29 65
-8 10 -101 -88 -190 -201 l-65 -82 -45 5 c-25 3 -171 14 -325 25 -205 14 -313
26 -405 45 -302 64 -604 166 -980 333 -129 57 -751 350 -759 357 -2 2 2 40 8
84 12 90 33 139 97 222 50 65 201 209 219 209 7 0 18 -7 25 -15z m-9310 -224
c1287 -26 1840 -39 3965 -95 710 -19 1382 -40 1495 -45 215 -11 402 -35 557
-71 91 -21 94 -23 147 -81 29 -33 68 -86 85 -118 30 -57 31 -60 37 -254 l7
-197 -99 0 c-378 0 -2632 77 -3939 135 -71 3 -329 12 -573 20 -244 8 -547 19
-675 25 -320 13 -785 27 -1492 45 -625 15 -851 22 -1070 30 -71 3 -249 10
-395 15 -146 6 -298 13 -338 16 l-73 6 7 31 c26 123 85 299 110 331 34 44 152
140 203 166 33 16 189 38 396 54 76 6 1064 -2 1645 -13z m20613 -147 c26 -3
47 -8 47 -10 0 -12 -253 -372 -315 -449 -94 -115 -119 -139 -178 -165 -117
-52 -261 -61 -532 -31 -144 15 -178 22 -225 46 -77 39 -166 112 -243 199 l-65
75 12 48 12 48 65 7 c35 4 115 12 178 18 146 14 328 48 599 111 309 72 543
118 572 114 14 -2 46 -7 73 -11z m-11637 -273 c5 -5 34 -22 64 -38 30 -16 132
-72 225 -123 94 -52 231 -123 305 -158 231 -110 562 -242 606 -242 9 0 100
-18 202 -41 838 -182 833 -181 1422 -187 743 -7 1397 30 2117 118 89 11 201
20 248 20 51 0 151 12 248 29 340 62 857 127 938 119 l33 -3 -56 -37 c-161
-107 -407 -184 -678 -213 -75 -8 -71 -8 -175 -33 -44 -11 -112 -31 -150 -45
-99 -35 -233 -62 -430 -86 -229 -28 -289 -38 -430 -71 -305 -72 -708 -142
-1030 -180 -356 -41 -830 -71 -908 -56 -20 4 -67 27 -103 51 -37 25 -70 45
-74 45 -3 0 -24 -15 -46 -34 -75 -64 -94 -69 -223 -62 -415 26 -847 114 -1316
271 -300 100 -406 144 -477 196 -29 21 -78 55 -108 75 -95 63 -138 103 -186
170 -66 92 -92 175 -102 325 l-8 124 29 38 c29 37 45 45 63 28z"/>
<path d="M28011 31849 c-134 -11 -178 -28 -203 -79 -20 -40 -23 -124 -8 -198
l11 -49 517 -6 c680 -9 950 -29 1257 -92 66 -14 125 -25 132 -25 9 0 113 288
113 313 0 12 -94 40 -175 53 -140 21 -403 52 -595 70 -206 19 -874 27 -1049
13z"/>
<path d="M5620 32482 c-20 -4 -51 -19 -68 -33 l-33 -25 -3 -195 c-2 -107 1
-232 5 -279 5 -47 18 -175 29 -285 26 -252 27 -264 35 -355 7 -88 9 -102 34
-325 11 -93 22 -208 26 -254 17 -243 48 -520 75 -676 10 -60 21 -123 24 -140
3 -16 10 -97 16 -179 10 -140 34 -308 46 -327 3 -5 0 -55 -6 -111 -11 -100 -8
-139 115 -1353 233 -2308 305 -3026 390 -3880 46 -467 87 -875 90 -905 3 -30
23 -237 45 -460 50 -513 57 -549 123 -607 26 -22 49 -32 88 -37 257 -31 157
-30 3509 -47 1108 -6 2121 -15 2250 -19 129 -5 1180 -12 2336 -15 l2101 -8 41
38 c48 43 72 107 72 192 0 41 -68 902 -95 1213 -11 115 -137 1746 -190 2450
-31 404 -58 762 -60 795 -3 33 -55 728 -115 1545 -141 1895 -217 2909 -229
3033 -6 64 -17 113 -32 143 -24 51 -85 101 -133 109 -17 3 -202 21 -411 40
-209 19 -402 37 -430 40 -27 3 -383 37 -790 75 -755 72 -2670 256 -2760 265
-27 3 -581 57 -1230 120 -2581 253 -4218 415 -4375 435 -173 22 -430 33 -490
22z m745 -322 c378 -52 2003 -216 5595 -565 938 -91 2198 -215 2800 -276 602
-60 1123 -112 1157 -116 l62 -6 6 -41 c9 -65 154 -1957 265 -3436 33 -443 103
-1383 155 -2090 53 -707 131 -1746 175 -2310 43 -563 77 -1027 74 -1029 -12
-12 -684 -19 -1064 -11 -234 6 -1473 14 -2755 19 -1281 6 -2863 15 -3515 20
-652 6 -1471 13 -1820 16 -349 3 -653 8 -676 11 l-41 5 -16 112 c-26 172 -32
228 -97 872 -211 2093 -435 4271 -590 5715 -33 311 -65 651 -70 755 -5 105
-12 206 -15 225 -17 115 -128 996 -144 1155 -37 354 -58 776 -46 920 l8 88
201 -6 c113 -3 266 -15 351 -27z"/>
<path d="M13488 30773 c-46 -4 -48 -6 -48 -34 0 -16 20 -283 45 -592 24 -309
90 -1140 145 -1847 131 -1674 187 -2384 260 -3280 33 -404 71 -926 85 -1160
41 -686 70 -1001 116 -1276 l10 -61 672 -6 c588 -5 1160 3 1174 17 4 4 -30
410 -87 1031 -12 121 -34 342 -50 490 -16 149 -39 419 -50 600 -56 890 -136
1935 -195 2525 -14 140 -32 377 -40 525 -18 336 -30 543 -56 895 -23 326 -156
1956 -165 2018 -3 27 -15 54 -32 72 l-27 29 -260 16 c-143 8 -354 19 -469 25
-234 11 -955 20 -1028 13z"/>
<path d="M7226 30603 c3 -54 7 -103 9 -109 8 -28 351 -55 496 -40 l64 7 -9
109 -9 110 -31 4 c-17 3 -142 8 -278 11 l-248 7 6 -99z"/>
<path d="M8036 30604 c-25 -187 -11 -196 344 -210 l178 -7 6 54 c3 30 7 82 9
116 l3 63 -30 5 c-75 12 -271 25 -382 25 l-121 0 -7 -46z"/>
<path d="M8947 30600 c-93 -16 -143 -64 -132 -128 12 -65 24 -80 79 -94 58
-15 400 -18 480 -5 l48 9 -5 35 c-10 56 -53 121 -98 144 -25 12 -84 25 -157
35 -127 15 -143 16 -215 4z"/>
<path d="M10115 30548 c-2 -7 -8 -30 -14 -50 -9 -36 -8 -37 23 -48 85 -28 206
-41 496 -55 173 -9 351 -20 395 -26 115 -14 805 -24 805 -12 0 6 -5 24 -11 41
-13 37 -34 43 -263 72 -199 25 -384 37 -831 55 -360 14 -465 20 -553 31 -30 4
-43 1 -47 -8z"/>
<path d="M6435 30020 l-150 -5 -21 -100 c-12 -55 -21 -100 -20 -101 0 0 62
-13 136 -27 200 -39 296 -49 424 -45 111 3 117 4 143 31 25 24 28 35 28 92 0
61 -2 66 -38 103 -63 65 -88 67 -502 52z"/>
<path d="M10180 29828 c0 -84 3 -169 6 -189 l6 -37 72 -11 c39 -7 215 -16 391
-21 176 -6 437 -20 579 -31 154 -13 289 -19 332 -16 71 6 178 39 190 58 10 17
-38 81 -84 110 -56 35 -110 46 -290 58 -163 12 -198 23 -279 94 -29 24 -67 54
-86 66 -62 38 -372 71 -674 71 l-163 0 0 -152z"/>
<path d="M7283 29933 l-53 -4 1 -67 c2 -121 4 -124 84 -146 55 -14 119 -19
296 -23 l226 -5 7 70 c9 95 -7 137 -61 151 -102 28 -307 37 -500 24z"/>
<path d="M8275 29889 c-60 -4 -116 -7 -124 -8 -11 -1 -13 -22 -9 -111 3 -61 9
-114 13 -118 3 -4 128 -9 276 -10 l270 -4 -5 24 c-3 12 -8 47 -11 77 -10 89
-27 118 -76 131 -65 18 -211 26 -334 19z"/>
<path d="M6268 29154 c3 -76 6 -86 25 -94 40 -16 190 -31 391 -37 l199 -6 -7
92 c-4 50 -9 97 -12 105 -5 14 -217 26 -468 26 l-131 0 3 -86z"/>
<path d="M7180 29095 c0 -84 2 -95 18 -95 9 0 211 -14 447 -30 413 -28 1090
-58 1100 -49 2 3 -6 43 -18 89 l-22 85 -61 22 c-52 18 -105 24 -350 37 -382
21 -784 36 -966 36 l-148 0 0 -95z"/>
<path d="M8974 29010 c3 -57 9 -106 12 -109 3 -3 123 -7 266 -9 229 -4 260 -3
255 11 -3 8 -9 51 -12 95 -4 44 -11 85 -15 92 -5 9 -77 14 -260 18 l-253 5 7
-103z"/>
<path d="M10253 28998 l-53 -10 25 -33 c14 -18 38 -38 53 -43 69 -27 294 -47
612 -57 113 -3 311 -15 440 -27 273 -24 398 -20 467 13 51 25 70 51 49 69 -36
29 -516 70 -831 70 -104 0 -262 7 -350 15 -178 16 -333 18 -412 3z"/>
<path d="M6360 28421 l0 -58 92 -7 c50 -3 228 -6 395 -6 l303 0 0 39 0 38
-112 7 c-62 4 -196 13 -298 21 -102 8 -229 16 -282 19 l-98 5 0 -58z"/>
<path d="M10326 28083 c-10 -45 10 -169 33 -207 12 -18 34 -38 49 -44 15 -6
90 -14 167 -17 77 -4 262 -13 410 -21 317 -16 833 -19 888 -3 20 5 44 21 53
35 34 51 -3 160 -67 198 -33 20 -118 31 -389 51 -200 14 -789 35 -1022 35
l-116 0 -6 -27z"/>
<path d="M9100 27848 c5 -138 16 -175 58 -194 9 -4 111 -9 226 -12 l208 -4 -3
113 c-5 133 -21 172 -84 204 -35 17 -64 20 -225 23 l-185 4 5 -134z"/>
<path d="M9224 27044 c-10 -101 1 -301 21 -356 14 -41 22 -49 53 -58 59 -18
248 -22 342 -8 l85 13 7 50 c9 60 -7 291 -25 360 -13 47 -15 50 -53 57 -21 4
-125 7 -231 7 l-191 1 -8 -66z"/>
<path d="M6605 26232 c-6 -4 -8 -46 -5 -107 l5 -100 293 -3 292 -2 0 103 0
104 -142 6 c-190 9 -431 8 -443 -1z"/>
<path d="M7520 26203 c0 -16 -3 -65 -6 -109 l-7 -81 94 -7 c267 -20 674 -34
680 -24 14 23 20 138 9 172 -9 30 -17 36 -58 45 -103 24 -198 31 -449 31
l-263 0 0 -27z"/>
<path d="M8600 26102 l0 -100 33 -6 c152 -27 372 -25 427 4 41 22 54 99 24
145 -25 38 -73 47 -286 52 l-198 5 0 -100z"/>
<path d="M9344 26053 c-8 -52 1 -369 11 -394 8 -22 254 -54 405 -52 145 2 210
18 230 59 21 42 17 171 -10 282 -21 90 -23 94 -58 109 -74 31 -181 43 -377 43
l-194 0 -7 -47z"/>
<path d="M10563 26002 l-9 -60 110 -6 c652 -32 2188 -53 2411 -32 89 9 90 9
57 23 -89 37 -149 45 -427 53 -154 5 -336 14 -405 19 -69 6 -339 15 -600 21
-556 12 -1052 28 -1096 36 l-31 6 -10 -60z"/>
<path d="M6690 25311 l0 -129 33 -6 c129 -24 367 -28 486 -10 l34 5 -7 121
c-3 67 -7 123 -9 124 -9 10 -235 24 -373 24 l-164 0 0 -129z"/>
<path d="M7585 25374 c-7 -63 -3 -140 9 -151 3 -3 29 -12 58 -21 64 -18 451
-28 654 -17 l134 7 0 99 c0 115 17 102 -160 119 -190 17 -427 30 -562 30
l-126 0 -7 -66z"/>
<path d="M10603 25381 l9 -58 67 -7 c36 -3 382 -6 769 -6 l702 0 0 44 0 44
-92 11 c-210 26 -329 30 -884 31 l-581 0 10 -59z"/>
<path d="M9625 25134 c-16 -2 -58 -7 -92 -10 l-63 -6 0 -81 c1 -157 19 -341
39 -407 20 -63 22 -66 68 -84 64 -25 239 -32 386 -16 l114 12 6 123 c6 138 -5
293 -28 372 l-15 52 -68 22 c-50 16 -98 22 -192 24 -69 2 -138 1 -155 -1z"/>
<path d="M10680 24777 l0 -43 188 -18 c361 -33 680 -37 882 -11 88 12 90 18
27 60 -76 51 -113 54 -659 54 l-438 1 0 -43z"/>
<path d="M10768 24522 c-27 -2 -48 -5 -48 -8 0 -2 6 -20 14 -38 12 -30 20 -34
72 -44 133 -26 270 -31 924 -37 639 -5 766 -2 875 21 l29 7 -48 24 c-98 50
-185 65 -401 69 -266 5 -1357 10 -1417 6z"/>
<path d="M10763 24214 c3 -10 8 -38 12 -60 l6 -41 422 -7 c232 -4 591 -12 797
-18 448 -14 401 -14 529 0 57 7 210 12 340 12 239 0 381 13 466 43 l40 14 -40
7 c-115 18 -362 26 -840 26 -389 0 -578 5 -710 16 -102 8 -364 18 -604 21
-412 6 -423 5 -418 -13z"/>
<path d="M6898 24153 c-79 -5 -72 16 -59 -173 14 -198 47 -234 215 -231 116 2
326 18 334 25 5 6 -14 285 -24 333 -5 27 -11 32 -48 37 -58 8 -338 14 -418 9z"/>
<path d="M10897 23888 c-82 -9 -97 -13 -93 -27 2 -9 7 -30 11 -48 4 -21 14
-35 28 -39 30 -10 532 -10 581 0 l38 7 -23 25 c-13 14 -53 39 -88 57 -64 31
-69 32 -211 34 -80 0 -189 -4 -243 -9z"/>
<path d="M6852 23301 c2 -55 8 -105 13 -110 29 -29 135 -43 353 -48 l222 -5
-1 68 c0 38 -3 87 -7 109 -7 38 -10 40 -67 59 -50 16 -98 20 -289 24 l-228 4
4 -101z"/>
<path d="M7814 23361 c-46 -20 -59 -132 -21 -177 20 -23 34 -27 117 -36 81 -9
647 -4 656 5 4 4 -23 197 -28 202 -9 9 -704 15 -724 6z"/>
<path d="M7508 22623 l14 -71 87 -9 c103 -10 1496 -11 1506 -1 11 11 -25 94
-52 120 l-25 23 -341 2 c-188 2 -536 4 -773 5 l-430 3 14 -72z"/>
<path d="M31855 30766 c-168 -53 -303 -213 -355 -420 -22 -88 -26 -225 -10
-303 19 -86 21 -86 102 -6 l73 72 80 -24 c44 -14 83 -25 86 -25 3 0 29 34 58
75 l52 75 -32 43 c-18 23 -35 45 -39 50 -4 4 -53 -4 -111 -18 -149 -36 -143
-38 -115 41 29 79 84 162 140 211 42 36 106 73 127 73 6 0 50 -35 98 -77 47
-42 97 -86 110 -97 l24 -21 -6 81 c-5 86 -23 138 -80 232 l-31 52 -66 -1 c-36
0 -83 -6 -105 -13z"/>
<path d="M28596 30930 c-88 -14 -165 -35 -258 -71 -108 -42 -101 -44 217 -58
265 -12 341 -21 390 -48 47 -25 245 -176 245 -186 0 -5 -25 -47 -55 -93 -45
-67 -69 -92 -126 -129 -93 -63 -219 -106 -435 -150 -98 -20 -180 -38 -182 -39
-5 -6 218 -16 337 -16 116 1 131 3 193 29 99 42 220 127 326 228 l92 88 -21
70 c-14 45 -44 104 -85 165 -104 155 -106 157 -220 186 -112 28 -316 40 -418
24z"/>
<path d="M28501 30638 c-28 -35 -65 -90 -82 -124 l-32 -61 39 -36 c51 -48 72
-53 171 -38 65 9 209 45 220 55 1 1 -13 60 -31 131 l-32 130 -102 3 -101 3
-50 -63z"/>
<path d="M27348 28939 c67 -93 189 -145 282 -119 52 14 130 84 112 102 -26 26
-150 50 -286 55 l-139 6 31 -44z"/>
<path d="M27670 27984 c-165 -11 -340 -28 -350 -34 -7 -4 -8 -22 -4 -48 l7
-42 306 0 c269 0 391 7 454 26 12 4 17 13 15 27 -2 16 -15 25 -48 34 -86 25
-275 43 -380 37z"/>
<path d="M29161 20653 c-15 -78 -14 -158 4 -228 19 -71 67 -160 86 -160 18 0
76 97 94 159 19 65 19 179 0 216 -25 49 -62 70 -120 70 l-52 0 -12 -57z"/>
<path d="M29590 20610 c-51 -7 -96 -28 -124 -59 -17 -19 -20 -37 -20 -119 0
-163 32 -200 174 -201 89 -1 232 19 249 34 11 11 12 41 4 174 -6 89 -12 163
-14 165 -8 7 -225 12 -269 6z"/>
<path d="M5270 18107 c-36 -7 -156 -42 -268 -77 l-204 -65 7 -95 c7 -106 23
-253 31 -287 l6 -22 51 28 c93 51 152 66 267 65 117 0 206 -21 324 -74 38 -17
70 -29 72 -27 2 2 5 100 7 218 2 205 1 216 -21 260 -35 71 -51 82 -134 85 -40
2 -102 -2 -138 -9z m79 -177 l53 -49 -32 -57 -33 -57 -71 7 c-39 3 -93 12
-121 19 -46 11 -50 15 -48 41 3 41 38 74 118 112 39 18 72 33 75 33 3 0 29
-22 59 -49z"/>
<path d="M4957 8742 l-96 -198 -103 -23 c-57 -13 -107 -25 -111 -28 -5 -3 25
-25 65 -50 40 -25 74 -47 76 -48 10 -8 -40 -187 -99 -359 -38 -110 -79 -237
-90 -280 -40 -157 -36 -304 13 -419 24 -55 21 -55 134 -3 98 46 133 80 220
218 165 261 237 439 268 661 2 20 1 35 -3 32 -5 -2 -71 -89 -147 -192 l-139
-187 -3 51 c-4 72 29 220 77 346 22 59 60 155 82 215 60 156 89 279 89 378 l0
84 -68 0 -69 0 -96 -198z"/>
<path d="M4510 13320 c-128 -69 -204 -127 -229 -174 -14 -24 -13 -28 14 -56
57 -59 154 -61 264 -5 130 66 183 167 131 252 -35 58 -43 57 -180 -17z"/>
</g>
</svg>
